<svg id="Calque_1" data-name="Calque 1" xmlns="http://www.w3.org/2000/svg" viewBox="0 0 1007 1007"><defs><style>.cls-1{fill:#f9f1e6;}.cls-2{fill:none;stroke:red;stroke-miterlimit:10;stroke-width:7px;}.cls-3{font-size:90px;font-family:Poppins-Bold, Poppins;font-weight:700;letter-spacing:-0.05em;}.cls-3,.cls-4{fill:#ff0513;}</style></defs><rect class="cls-1" x="3" y="3" width="1000" height="1000"/><rect class="cls-2" x="3.5" y="3.5" width="1000" height="1000"/><text class="cls-3" transform="translate(74.61 454.67)">Adoptez un stagiaire</text><path class="cls-4" d="M500,480.78A149.61,149.61,0,1,0,649.61,630.39,149.62,149.62,0,0,0,500,480.78Zm113.25,97.79c0,1.19.23,2.21.23,3.46,0,13-2.45,27.64-9.76,46L566.48,735.68A124.51,124.51,0,0,1,541.12,748L502.27,641.59,465,750a123.52,123.52,0,0,1-22.85-9.25L384.64,583.28A124.66,124.66,0,0,1,397.21,560c1.27,0,2.7.06,3.82.06,13.42,0,34.2-1.63,34.2-1.63,6.93-.39,7.73,9.76.82,10.58,0,0-6.95.81-14.68,1.22l46.73,139L496.17,625l-20-54.81c-6.93-.39-13.46-1.2-13.46-1.2-6.94-.41-6.1-11,.81-10.58,0,0,21.19,1.63,33.78,1.63,13.42,0,34.2-1.63,34.2-1.63,6.93-.39,7.73,9.76.82,10.58,0,0-7,.81-14.68,1.22l46.37,138,12.82-42.81q9.76-25,9.76-41.48c0-15.86-5.68-26.85-10.58-35.39-6.5-10.58-12.62-19.52-12.62-30.1S570.65,538,581.26,536A125.25,125.25,0,0,1,613.25,578.57Z" transform="translate(3 3)"/></svg>