<svg id="Calque_1" data-name="Calque 1" xmlns="http://www.w3.org/2000/svg" viewBox="0 0 1007 1007"><defs><style>.cls-1{fill:#f9f1e6;}.cls-2{fill:none;stroke:red;stroke-miterlimit:10;stroke-width:7px;}.cls-3{isolation:isolate;}.cls-4{fill:#ff0513;}</style></defs><rect class="cls-1" x="3" y="3" width="1000" height="1000"/><rect class="cls-2" x="3.5" y="3.5" width="1000" height="1000"/><g class="cls-3"><path class="cls-4" d="M119.52,443.51H95.94l-3.78,11.16H76.05l22.86-63.18h17.82l22.86,63.18H123.3Zm-4-11.88-7.83-23.13L100,431.63Z"/><path class="cls-4" d="M141.88,415.88a21.83,21.83,0,0,1,8-9,20.79,20.79,0,0,1,11.25-3.15,19.81,19.81,0,0,1,9.05,2.07,16.54,16.54,0,0,1,6.43,5.58V388.07H192v66.6H176.58v-7.2a15.73,15.73,0,0,1-6.16,5.76,19.37,19.37,0,0,1-9.32,2.16,20.57,20.57,0,0,1-11.25-3.19,22.06,22.06,0,0,1-8-9.1,33.18,33.18,0,0,1,0-27.22Zm31.5,4.59a10.37,10.37,0,0,0-7.78-3.33,10.49,10.49,0,0,0-7.79,3.28q-3.19,3.3-3.19,9.05t3.19,9.13a10.71,10.71,0,0,0,15.57,0q3.19-3.33,3.2-9.09T173.38,420.47Z"/><path class="cls-4" d="M208.21,452.24a23.07,23.07,0,0,1-9.27-9,29.18,29.18,0,0,1,.05-27.32,23.26,23.26,0,0,1,9.36-9,29.74,29.74,0,0,1,26.64,0,23.26,23.26,0,0,1,9.36,9,26.72,26.72,0,0,1,3.42,13.64,26.43,26.43,0,0,1-3.47,13.64,23.48,23.48,0,0,1-9.45,9,28.23,28.23,0,0,1-13.36,3.15A27.74,27.74,0,0,1,208.21,452.24ZM229,438.83q3.1-3.24,3.11-9.27t-3-9.27a10.22,10.22,0,0,0-14.89,0q-3,3.19-3,9.31t2.92,9.27a9.48,9.48,0,0,0,7.34,3.24A10,10,0,0,0,229,438.83Z"/><path class="cls-4" d="M273.06,405.89a19.06,19.06,0,0,1,9.27-2.16,20.79,20.79,0,0,1,11.25,3.15,21.81,21.81,0,0,1,8,9,33.07,33.07,0,0,1,0,27.22,22,22,0,0,1-8,9.1,20.57,20.57,0,0,1-11.25,3.19,19.15,19.15,0,0,1-9.23-2.16,16.9,16.9,0,0,1-6.25-5.58v31H251.46V404.45h15.39v7.11A16.71,16.71,0,0,1,273.06,405.89Zm12.55,14.53a10.57,10.57,0,0,0-7.87-3.28,10.39,10.39,0,0,0-7.79,3.33q-3.19,3.33-3.19,9.09t3.19,9.09a10.77,10.77,0,0,0,15.62,0q3.24-3.37,3.24-9.13T285.61,420.42Z"/><path class="cls-4" d="M336.06,441.62v13.05h-7.83q-8.37,0-13.05-4.09t-4.68-13.37v-20h-6.12V404.45h6.12V392.21h15.39v12.24H336v12.78H325.89v20.16a4.22,4.22,0,0,0,1.08,3.24,5.27,5.27,0,0,0,3.6,1Z"/><path class="cls-4" d="M387.18,433.25H352.35a10.43,10.43,0,0,0,3,7.16,9.22,9.22,0,0,0,6.53,2.47q5.76,0,8-4.86h16.38a22.49,22.49,0,0,1-4.55,8.91,22.82,22.82,0,0,1-8.23,6.21,26.45,26.45,0,0,1-11.07,2.25,26.91,26.91,0,0,1-13.14-3.15,22.41,22.41,0,0,1-9-9,27.79,27.79,0,0,1-3.24-13.68,28.1,28.1,0,0,1,3.19-13.68,22.13,22.13,0,0,1,9-9,29.17,29.17,0,0,1,26.19-.09,22,22,0,0,1,8.86,8.73,26.5,26.5,0,0,1,3.2,13.23A39.29,39.29,0,0,1,387.18,433.25ZM371.7,424.7a7.91,7.91,0,0,0-2.7-6.3,9.94,9.94,0,0,0-6.75-2.34,9.76,9.76,0,0,0-6.53,2.25,9.94,9.94,0,0,0-3.28,6.39Z"/><path class="cls-4" d="M405.45,442h21.78v12.69h-39V442.43l20.88-25.29h-20.7V404.45h38.34v12.24Z"/><path class="cls-4" d="M495.35,404.45v50.22H480v-6.84a16.86,16.86,0,0,1-6.34,5.35,19.26,19.26,0,0,1-8.87,2,19.86,19.86,0,0,1-10.17-2.57,17.28,17.28,0,0,1-6.84-7.42,25.27,25.27,0,0,1-2.43-11.43V404.45h15.3v27.27q0,5,2.61,7.83a9.15,9.15,0,0,0,7,2.79,9.26,9.26,0,0,0,7.11-2.79q2.61-2.79,2.61-7.83V404.45Z"/><path class="cls-4" d="M546.61,409.62q5.26,5.73,5.26,15.71v29.34h-15.3V427.4q0-5-2.61-7.83a10.23,10.23,0,0,0-14,0q-2.61,2.79-2.61,7.83v27.27H501.92V404.45h15.39v6.66a16.33,16.33,0,0,1,6.3-5.27,20.16,20.16,0,0,1,8.91-1.93Q541.34,403.91,546.61,409.62Z"/><path class="cls-4" d="M581.39,453.14a20,20,0,0,1-8.1-6.17A16.17,16.17,0,0,1,570,438.2h15.21a5.85,5.85,0,0,0,2.43,4.23,8.6,8.6,0,0,0,5.31,1.62,7.52,7.52,0,0,0,4.46-1.13,3.44,3.44,0,0,0-.68-6.12,46.62,46.62,0,0,0-7.29-2.29,66.87,66.87,0,0,1-9-2.66,15.43,15.43,0,0,1-6.21-4.4,12,12,0,0,1-2.61-8.15,13.87,13.87,0,0,1,2.39-7.88,16.12,16.12,0,0,1,7-5.62,26.86,26.86,0,0,1,11-2.07q9.45,0,14.9,4.68a18.2,18.2,0,0,1,6.25,12.42H598.94a6.12,6.12,0,0,0-2.29-4.14,8,8,0,0,0-5.09-1.53,7,7,0,0,0-4.14,1A3.3,3.3,0,0,0,586,419a3.47,3.47,0,0,0,2.3,3.24,36.69,36.69,0,0,0,7.15,2.16,78.39,78.39,0,0,1,9.09,2.83,15.89,15.89,0,0,1,6.17,4.5,12.74,12.74,0,0,1,2.74,8.33A13.17,13.17,0,0,1,611,448a16.3,16.3,0,0,1-7.11,5.45,27.22,27.22,0,0,1-10.76,2A28.86,28.86,0,0,1,581.39,453.14Z"/><path class="cls-4" d="M646.37,441.62v13.05h-7.83q-8.37,0-13-4.09t-4.68-13.37v-20h-6.12V404.45h6.12V392.21H636.2v12.24h10.08v12.78H636.2v20.16a4.22,4.22,0,0,0,1.08,3.24,5.27,5.27,0,0,0,3.6,1Z"/><path class="cls-4" d="M650.29,415.88a21.81,21.81,0,0,1,8-9,20.79,20.79,0,0,1,11.25-3.15,19.35,19.35,0,0,1,9.32,2.16,15.9,15.9,0,0,1,6.16,5.67v-7.11h15.39v50.22H685v-7.11a16.6,16.6,0,0,1-6.25,5.67,19.35,19.35,0,0,1-9.32,2.16,20.42,20.42,0,0,1-11.16-3.19,22,22,0,0,1-8-9.1,33.07,33.07,0,0,1,0-27.22Zm31.5,4.59a10.82,10.82,0,0,0-15.57-.05q-3.19,3.3-3.2,9.05t3.2,9.13a10.71,10.71,0,0,0,15.57,0q3.19-3.33,3.19-9.09T681.79,420.47Z"/><path class="cls-4" d="M735.42,405.89a15.93,15.93,0,0,1,6.17,5.67v-7.11H757v50.13a28.36,28.36,0,0,1-2.74,12.55,21.05,21.05,0,0,1-8.37,9q-5.64,3.33-14,3.33-11.16,0-18.09-5.26a19.9,19.9,0,0,1-7.92-14.27h15.21a7.27,7.27,0,0,0,3.42,4.54,12.47,12.47,0,0,0,6.66,1.67,10.44,10.44,0,0,0,7.6-2.75c1.9-1.83,2.84-4.75,2.84-8.77v-7.11a17,17,0,0,1-6.21,5.71,18.64,18.64,0,0,1-9.27,2.21,20.57,20.57,0,0,1-11.25-3.19,22,22,0,0,1-8-9.1,33.07,33.07,0,0,1,0-27.22,21.74,21.74,0,0,1,8-9,20.79,20.79,0,0,1,11.25-3.15A19.31,19.31,0,0,1,735.42,405.89Zm3,14.58a10.82,10.82,0,0,0-15.57-.05q-3.21,3.3-3.2,9.05t3.2,9.13a10.29,10.29,0,0,0,7.78,3.38,10.41,10.41,0,0,0,7.79-3.33q3.18-3.33,3.19-9.09T738.4,420.47Z"/><path class="cls-4" d="M764.76,396.84A7.7,7.7,0,0,1,762.2,391a7.85,7.85,0,0,1,2.56-6,9.38,9.38,0,0,1,6.62-2.38A9.23,9.23,0,0,1,777.9,385a7.86,7.86,0,0,1,2.57,6,7.71,7.71,0,0,1-2.57,5.89,9.15,9.15,0,0,1-6.52,2.39A9.3,9.3,0,0,1,764.76,396.84ZM779,404.45v50.22H763.64V404.45Z"/><path class="cls-4" d="M785.55,415.88a21.83,21.83,0,0,1,8-9,20.79,20.79,0,0,1,11.25-3.15,19.31,19.31,0,0,1,9.31,2.16,15.93,15.93,0,0,1,6.17,5.67v-7.11h15.39v50.22H820.25v-7.11a16.63,16.63,0,0,1-6.26,5.67,19.31,19.31,0,0,1-9.31,2.16,20.42,20.42,0,0,1-11.16-3.19,22.06,22.06,0,0,1-8-9.1,33.18,33.18,0,0,1,0-27.22Zm31.5,4.59a10.37,10.37,0,0,0-7.78-3.33,10.49,10.49,0,0,0-7.79,3.28q-3.19,3.3-3.19,9.05t3.19,9.13a10.71,10.71,0,0,0,15.57,0q3.19-3.33,3.2-9.09T817.05,420.47Z"/><path class="cls-4" d="M843.42,396.84a7.7,7.7,0,0,1-2.56-5.89,7.85,7.85,0,0,1,2.56-6,9.38,9.38,0,0,1,6.62-2.38,9.23,9.23,0,0,1,6.52,2.38,7.86,7.86,0,0,1,2.57,6,7.71,7.71,0,0,1-2.57,5.89,9.15,9.15,0,0,1-6.52,2.39A9.3,9.3,0,0,1,843.42,396.84Zm14.27,7.61v50.22H842.3V404.45Z"/><path class="cls-4" d="M886.49,406.29a17.5,17.5,0,0,1,9-2.38V420.2h-4.23c-3.84,0-6.72.83-8.64,2.47s-2.88,4.55-2.88,8.69v23.31H864.35V404.45h15.39v8.37A20.42,20.42,0,0,1,886.49,406.29Z"/><path class="cls-4" d="M945.44,433.25H910.61a10.43,10.43,0,0,0,3,7.16,9.22,9.22,0,0,0,6.53,2.47q5.76,0,8-4.86h16.38a22.49,22.49,0,0,1-4.55,8.91,22.74,22.74,0,0,1-8.23,6.21,26.45,26.45,0,0,1-11.07,2.25,26.91,26.91,0,0,1-13.14-3.15,22.41,22.41,0,0,1-9-9,27.79,27.79,0,0,1-3.24-13.68,28.1,28.1,0,0,1,3.19-13.68,22.13,22.13,0,0,1,9-9,29.17,29.17,0,0,1,26.19-.09,22,22,0,0,1,8.86,8.73,26.5,26.5,0,0,1,3.2,13.23A39.29,39.29,0,0,1,945.44,433.25ZM930,424.7a7.91,7.91,0,0,0-2.7-6.3,9.94,9.94,0,0,0-6.75-2.34,9.76,9.76,0,0,0-6.53,2.25,10,10,0,0,0-3.28,6.39Z"/></g><path class="cls-4" d="M503,483.78A149.61,149.61,0,1,0,652.61,633.39h0A149.62,149.62,0,0,0,503,483.78Zm113.25,97.79c0,1.19.23,2.21.23,3.46,0,13-2.45,27.64-9.76,46L569.48,738.68A124.6,124.6,0,0,1,544.12,751L505.27,644.59,468,753a123,123,0,0,1-22.85-9.25L387.64,586.28A124.81,124.81,0,0,1,400.21,563c1.27,0,2.7.06,3.82.06,13.42,0,34.2-1.63,34.2-1.63,6.93-.39,7.73,9.76.82,10.58,0,0-6.95.81-14.68,1.22l46.73,139L499.17,628l-20-54.81c-6.93-.39-13.46-1.2-13.46-1.2-6.94-.41-6.1-11,.81-10.58,0,0,21.19,1.63,33.78,1.63,13.42,0,34.2-1.63,34.2-1.63,6.93-.39,7.73,9.76.82,10.58,0,0-7,.81-14.68,1.22l46.37,138,12.82-42.81q9.76-25,9.76-41.48c0-15.86-5.68-26.85-10.58-35.39-6.5-10.58-12.62-19.52-12.62-30.1S573.65,541,584.26,539A125.24,125.24,0,0,1,616.25,581.57Z"/></svg>