<svg id="Calque_1" data-name="Calque 1" xmlns="http://www.w3.org/2000/svg" viewBox="0 0 1000 1000"><defs><style>.cls-1{fill:#f9f1e6;}.cls-2,.cls-4{fill:#aa7f4b;}.cls-3{fill:#ff0513;}.cls-4{fill-rule:evenodd;}</style></defs><rect class="cls-1" width="1000" height="1000"/><path class="cls-2" d="M433.33,791.79a7.85,7.85,0,0,0-7.83,7.83V948.47a7.86,7.86,0,0,0,7.83,7.84H582.19a7.86,7.86,0,0,0,7.83-7.84V799.62a7.85,7.85,0,0,0-7.83-7.83ZM482.61,831c7.8,0,14.42,1.88,18.85,6.15,4,4,6.1,10.15,6.1,17.55,0,7.76-1.87,13-5.13,17.28-4.5,6.26-12.41,9.39-19.93,9.39-1.61,0-2.86,0-4.27-.11v35.92h-9.64V832.6A54.37,54.37,0,0,1,482.61,831Zm1.57,6.43a19.38,19.38,0,0,0-5.41.62v33.73a36.33,36.33,0,0,0,3.88.23c9.4,0,15.78-6.27,15.78-18.17C498.43,845.14,495,837.39,484.18,837.39Zm49.87,17.07a20.81,20.81,0,0,1,11.2,3.14l-2.63,7.32a14.49,14.49,0,0,0-8.42-2.78c-5.33,0-8.07,3.76-8.07,7.79s1.57,6.42,7.79,10.46c7.29,4.54,13,10.18,13,18.61,0,12.22-8.58,18.14-19,18.14-4.54,0-9.59-1.38-12.34-3.53l2.48-7.29a20.47,20.47,0,0,0,10.14,3.13c5.6,0,9.24-3.4,9.24-8.81,0-4.66-1.68-7.91-8.07-11.94-8.19-5.17-12.61-10.46-12.61-17.35C516.77,861.4,524.29,854.46,534.05,854.46Z"/><path class="cls-2" d="M833.75,843.64c-8,0-10.88,10.4-10.88,22.53,0,12.75,3.13,25,10.14,25,3,0,6.88-1.56,9-10.31a17.19,17.19,0,0,0,.49-3.42V859.57c0-1.25.13-2.78,0-4.15C842,849.17,838.38,843.64,833.75,843.64Zm45.93-70.78H731.18a7.83,7.83,0,0,0-7.82,7.82v148.5a7.83,7.83,0,0,0,7.82,7.82h148.5a7.83,7.83,0,0,0,7.82-7.82V780.68A7.83,7.83,0,0,0,879.68,772.86ZM811.29,897.92h-9.77l-16.58-31.76L768.3,897.92h-9.63l21.43-41-21.43-41h9.63l16.64,31.76,16.58-31.76h9.77l-21.49,41Zm41-13.19c0,4.13-.13,9.69,0,13.19h-9.77v-6.35c-1.88,4.25-5.43,7.57-11.8,7.57-10.26,0-17.51-13-17.51-33,0-21.51,9-30.78,18.38-30.78,4.37,0,8.55,2.2,10.93,7.33V811.94h9.77Z"/><path class="cls-3" d="M584.81,814.94A7.88,7.88,0,0,0,577,822.8V972.17a7.89,7.89,0,0,0,7.86,7.86H734.19a7.89,7.89,0,0,0,7.86-7.86V822.8a7.88,7.88,0,0,0-7.86-7.86Zm54.76,39.3h10.69l18.87,86.48h-9.59l-5.47-25.27H635.21l-5.58,25.27h-9.44Zm50.32,0c3.65,0,6,2.48,6,6.14s-2.32,6.17-6,6.17h-.13c-3.22,0-5.69-2.48-5.69-6.17A5.81,5.81,0,0,1,689.89,854.24Zm-45.21,9.59c-1,6.41-2.28,13.73-3.54,19.5l-4.32,22H652.9l-4.45-22.13c-1.26-6.05-2.39-13.09-3.41-19.38Zm40.37,10.07h9.83v66.82h-9.83Z"/><path class="cls-2" d="M413.07,209.29a3.56,3.56,0,0,0-2.63-1.15H271.07a3.58,3.58,0,0,0-2.63,1.15,3.49,3.49,0,0,0-.92,2.74l12.55,140.63a3.6,3.6,0,0,0,2.58,3.13l57.12,16.3a3.12,3.12,0,0,0,1,.14,3.23,3.23,0,0,0,1-.14l57.16-16.3a3.6,3.6,0,0,0,2.57-3.13L414,212A3.49,3.49,0,0,0,413.07,209.29ZM383,257.79H315.91l1.6,18.15H381.4l-4.79,53.66-35.88,10.84-.35-.11-35.46-10.74L303,307.73h17.38l.75,8.48,19.83,4.16,19.46-4.16,2.08-23h-60.8L297,240.44h87.6Z"/><path class="cls-4" d="M654.5,37.43l-13,146.86-60.47,17.27L520.6,184.29l-13-146.86Zm-108.84,95h17.27l.43,10.79,17.71,6,17.72-6,1.28-19.43h-38l-.87-17.28H601l1.28-17.28H542.64L541.34,72h79l-2.16,34.55-3,49.67-34.12,11.24L547,156.21Z"/><path class="cls-3" d="M540.19,112.93H396.83a10.44,10.44,0,0,0-10.44,10.43V266.71a10.44,10.44,0,0,0,10.44,10.43H540.17a10.44,10.44,0,0,0,10.44-10.42V123.36A10.43,10.43,0,0,0,540.19,112.93ZM476.32,238.76c0,15.62-9.16,22.74-22.54,22.74-12.1,0-20.82-8.11-24.38-15.64l12.3-7.44c2.36,4.2,6,7.44,11.16,7.44,5,0,7.82-1.94,7.82-9.48V187.22h15.64Zm33.92,22.74c-13.85,0-21.72-7-26.1-15.64L495.87,238c3.19,5.23,6.67,10.22,14,10.22,6.19,0,9.43-3.08,9.43-7.36,0-5.1-3.36-6.92-10.16-9.9l-3.73-1.6c-10.76-4.58-17.93-10.33-17.93-22.48,0-11.18,8.54-19.7,21.86-19.7,9.48,0,16.3,3.29,21.21,11.94L519,206.63c-2.57-4.6-5.32-6.4-9.61-6.4s-7.13,2.78-7.13,6.4c0,4.47,2.76,6.27,9.16,9.05l3.73,1.61c12.69,5.42,19.84,11,19.84,23.43C535,254.14,524.41,261.5,510.24,261.5Z"/><path class="cls-2" d="M471.86,297.39a3,3,0,0,0-1.23.41,3.35,3.35,0,0,0-.82,4.62L476.89,313c-10.94,5.79-19.1,15.43-21.75,27h90.7c-2.65-11.55-10.81-21.19-21.75-27l7.08-10.57a3.29,3.29,0,1,0-5.44-3.7l-7.8,11.5a50.92,50.92,0,0,0-34.88,0l-7.8-11.5A3.32,3.32,0,0,0,471.86,297.39Zm10.57,26.17a4.93,4.93,0,1,1-4.93,4.92A4.93,4.93,0,0,1,482.43,323.56Zm36.12,0a4.93,4.93,0,1,1-4.93,4.92A4.91,4.91,0,0,1,518.55,323.56Zm-73.88,23a9.85,9.85,0,0,0-9.85,9.85v46a9.85,9.85,0,0,0,9.85,9.85,9.42,9.42,0,0,0,3.28-.62V347.16A9.42,9.42,0,0,0,444.67,346.54Zm9.85,0v72.24a9.88,9.88,0,0,0,9.85,9.85h72.24a9.88,9.88,0,0,0,9.85-9.85V346.54Zm101.79,0a9.47,9.47,0,0,0-3.29.62v64.43a10,10,0,0,0,3.29.62,9.85,9.85,0,0,0,9.85-9.85v-46A9.85,9.85,0,0,0,556.31,346.54Zm-88.66,88.65v13.14a13.14,13.14,0,0,0,26.27,0V435.19Zm39.41,0v13.14a13.13,13.13,0,1,0,26.26,0V435.19Z"/><path class="cls-2" d="M683.55,217.7c9,20.87-32.36,33.75-36.19,51.15-3.54,16,24.56,34.53,24.57,34.53A123.84,123.84,0,0,1,660.3,281C653.06,263.63,704.36,247.89,683.55,217.7ZM711,246.61s-36.23,2.3-38.08,25.48c-.82,10.33,9.52,15.84,9.83,23.36.23,6.13-6.19,11.24-6.19,11.24s11.65-2.19,15.3-11.56c4-10.39-7.83-17.49-6.64-25.8C686.35,261.37,711,246.61,711,246.61Zm8.79,53.57A19.14,19.14,0,0,0,707.94,304c7.49-1.6,13.81,3,13.81,8.25,0,11.89-17.18,23.13-17.18,23.13s26.6-3,26.6-22.57C731.17,304.75,726.07,300.47,719.77,300.18Zm-65.75,0s-33.2-.44-33.2,8.95c0,9.81,43.47,10.5,74.52,4.46,0,0,8.29-5.68,10.49-7.79-20.35,4.15-66.78,4.7-66.78,1.11C639.05,303.61,654,300.2,654,300.2Zm-8,18.27c-5.09,0-12.69,3.94-12.69,7.73,0,7.62,38.35,13.5,66.74,2.36l-9.83-6C671,328.7,635.5,326.72,646,318.47Zm4.72,17.06c-7,0-11.5,4.3-11.5,7.48,0,9.79,41.68,10.77,58.19.82l-10.49-6.68C674.58,342.37,643.6,343.07,650.72,335.53Zm-23.25,8.86c-11.38-.23-18.77,4.88-18.77,9.12,0,22.55,116.51,21.46,116.51-1.58,0-3.82-4.51-5.64-6.13-6.51,9.52,22-95.29,20.33-95.29,7.33,0-3,7.69-5.87,14.84-4.48l-6.06-3.44A38.77,38.77,0,0,0,627.47,344.39Zm110,15.17c-17.72,16.79-62.61,22.91-107.76,12.54C674.88,390.57,737.27,380.18,737.5,359.56Z"/><path class="cls-3" d="M686.09,375.7,626,341.91a15.23,15.23,0,0,0-14.78,0L551.07,375.7a14.52,14.52,0,0,0-7.46,12.61v67.58a14.52,14.52,0,0,0,7.46,12.61l60.12,33.79a15.18,15.18,0,0,0,14.78,0l60.12-33.79a14.52,14.52,0,0,0,7.46-12.61V388.31A14.52,14.52,0,0,0,686.09,375.7Zm-67.51,89.24a42.84,42.84,0,1,1,34.07-68.75L637,405.24A25,25,0,1,0,637,439L652.65,448A42.6,42.6,0,0,1,618.58,464.94Zm42.84-39.27h-7.14v7.14h-7.14v-7.14H640v-7.14h7.14v-7.14h7.14v7.14h7.14Zm25,0h-7.14v7.14h-7.14v-7.14H665v-7.14h7.14v-7.14h7.14v7.14h7.14Z"/><path class="cls-3" d="M340.66,73.18a3.6,3.6,0,0,0-1.17.2l-74.6,26a3.55,3.55,0,0,0-2.36,3.79l11.79,96.67a3.55,3.55,0,0,0,1.83,2.7l62.9,34.19a3.64,3.64,0,0,0,1.7.43,3.6,3.6,0,0,0,1.71-.44L405.68,202a3.58,3.58,0,0,0,1.82-2.7l11.79-96.66a3.57,3.57,0,0,0-2.4-3.8L341.81,73.36A3.74,3.74,0,0,0,340.66,73.18ZM340.91,91l46.33,99.8H371.42l-9.91-21.36H320.3l-9.91,21.36H294.58Zm0,33.86-14,30.3h27.94Z"/><path class="cls-2" d="M483.35,594.37a6.39,6.39,0,0,0-6.62,4.17c-2.18,5.29,3.25,10.46,5.2,13.16a41.31,41.31,0,0,1,4.08,6.1c.64,1.4.73,2.8,1.28,4.27a110.89,110.89,0,0,0,5.24,11.12,36.55,36.55,0,0,0,3,5c.69.93,1.85,1.36,2,2.78-1.14,1.61-1.21,4.1-1.85,6.14-2.89,9.13-1.8,20.49,2.4,27.23,1.3,2.08,4.36,6.52,8.53,4.83,3.66-1.49,2.85-6.11,3.89-10.22.24-.9.1-1.59.57-2.2v.19c1.09,2.23,2.21,4.46,3.32,6.66,2.49,4,6.88,8.14,10.58,11,1.92,1.44,3.44,4,5.93,4.81v-.19h-.19c-.48-.76-1.23-1.07-1.85-1.66a40.68,40.68,0,0,1-4.25-4.84,108.68,108.68,0,0,1-9.08-14.82c-1.3-2.49-2.44-5.24-3.53-7.78-.43-1-.43-2.46-1.31-3-1.21,1.88-3,3.37-3.89,5.58-1.47,3.51-1.68,7.8-2.23,12.24-.33.11-.19,0-.35.18-2.59-.64-3.51-3.29-4.46-5.57-2.42-5.76-2.89-15.06-.74-21.67.55-1.74,3-7.14,2-8.73-.47-1.59-2.08-2.49-3-3.7a28,28,0,0,1-3-5.19c-2-4.51-3.87-9.73-6-14.28a40.93,40.93,0,0,0-4.08-6.31c-1.54-2.13-3.25-3.7-4.46-6.31-.4-.9-1-2.37-.35-3.32a1.44,1.44,0,0,1,1.11-1.11c1.07-.83,4.06.26,5.19.73a45.89,45.89,0,0,1,8,4.08c1.21.81,2.42,2.35,3.89,2.8h1.66c2.63.59,5.55.17,8,.92A48.17,48.17,0,0,1,519.73,613a72.05,72.05,0,0,1,25.4,27.8c1,1.85,1.4,3.63,2.25,5.57,1.68,3.94,3.84,8,5.55,11.86s3.34,7.73,5.74,10.93c1.26,1.69,6.14,2.61,8.35,3.54a50.21,50.21,0,0,1,5.55,2.23c2.82,1.68,5.52,3.69,8.15,5.57,1.33.92,5.36,2.94,5.58,4.62-6.52-.16-11.5.43-15.75,2.23-1.21.52-3.15.52-3.34,2,.64.69.76,1.73,1.28,2.59a20.48,20.48,0,0,0,4.27,5c1.68,1.26,3.39,2.61,5.19,3.72,3.18,1.92,6.73,3,9.82,5,1.8,1.17,3.63,2.61,5.38,3.89.88.67,1.45,1.66,2.59,2.07v-.19c-.6-.76-.74-1.81-1.28-2.59L592,706.4a39.61,39.61,0,0,0-8.51-8.14c-2.54-1.82-8.21-4.29-9.25-7.23l-.19-.19a38.66,38.66,0,0,0,5.55-1.3c2.8-.74,5.26-.55,8.13-1.28,1.31-.38,2.61-.76,3.92-1.12v-.76c-1.45-1.47-2.49-3.46-4.08-4.81a118.52,118.52,0,0,0-13.35-10c-2.59-1.64-5.79-2.7-8.52-4.08-.92-.47-2.54-.71-3.15-1.49-1.45-1.83-2.23-4.15-3.35-6.29-2.32-4.48-4.6-9.36-6.66-14.08-1.4-3.21-2.32-6.38-4.08-9.28-8.42-13.82-17.48-22.19-31.52-30.4-3-1.75-6.57-2.42-10.36-3.32-2.06-.14-4.08-.26-6.14-.38-1.24-.52-2.54-2-3.7-2.8C493.83,597.62,488.09,594.44,483.35,594.37Zm20.09,20.11a13.21,13.21,0,0,0-3.35.38v.19h.19c.64,1.33,1.8,2.18,2.61,3.32.62,1.3,1.21,2.61,1.83,3.91l.19-.19c1.13-.81,1.68-2.11,1.68-4.08-.47-.47-.55-1.09-.92-1.66C505.12,615.57,504.1,615.14,503.44,614.48Zm-198,77a22.53,22.53,0,0,0-6,1.12c-3.6,1.09-5.38,3.25-5.38,7.63v45.92h12.17v-44.8l16.86,38.3c2.09,4.76,4.93,6.47,10.5,6.47s8.33-1.71,10.42-6.47l16.86-37.33v43.83h12.14V700.23c0-4.38-1.76-6.54-5.38-7.63-8.64-2.73-14.45-.38-17.06,5.52L333.3,737.06l-16.74-38.94C314.66,693.69,310.87,691.27,305.46,691.48Zm148,0c-4.79,0-19.71.56-19.71,12.14v7.49c0,5.31,4.67,9.65,14.8,10.72,1.14.07,2.28.17,3.41.17,0,0,11.81-.24,12.15-.17,6.83,0,6.07,5.31,6.07,6.07V734c0,.83-.19,6.07-6.15,6.07H433.76v6.08h30.4a26.23,26.23,0,0,0,10.94-2.28c5.12-2.35,7.23-5.53,7.23-9.7v-8.68c0-9.32-11.57-9.7-18.21-9.7H452c-4.76,0-5.5-2.89-6.07-6.07v-6.07c.57-2.42,1.64-5.69,5.86-6.07h30.57v-6.07Zm46.95,0c-9,1.23-12.11,5.69-12.11,12.14V734c0,5.91,3.29,9.47,10.07,11.32a23,23,0,0,0,6.29.9l13.52-.07h7.94l6.76,6.07h13.66l-9.39-8.47c4.41-1.83,5.79-4.62,5.79-9.86V703.65c0-6.45-4.2-10.91-13.17-12.14Zm48.69,0v42.23c0,7.33,4.15,11.46,15.13,12.29,1,0,2.07.12,3.09.12h30.35v-6.08h-28c-6.27,0-8.38-2.63-8.38-6.37V691.51Zm-41.45,6.07h15.63a7.93,7.93,0,0,1,7.51,6.07s.1,28.27.1,30.35a4,4,0,0,1-1.16,3l-3.3-3H512.68l6.76,6.07H507.66a7.31,7.31,0,0,1-7.21-6.07V704.26C500.45,701,502.91,697.58,507.66,697.58ZM379.12,709.72c.24.24,0,25.87,0,26.37.09,5.31,6.83,10,17.38,10.06h19.05v.4c0,1.14.83,4.93-6.07,5.67H379.12v6.07h31.66c5.36-.17,17-1.38,16.91-10.67,0-.17.05-37.9,0-37.9H415.55v30.35c-.19,0-15,0-18,0-5.85-.09-6.35-3.43-6.26-4.71V709.72Z"/><path class="cls-3" d="M623.72,541.35a82.19,82.19,0,1,0,82.18,82.19A82.18,82.18,0,0,0,623.72,541.35Zm62.21,53.72c0,.65.12,1.22.12,1.9,0,7.14-1.34,15.18-5.36,25.25l-20.46,59.15a68.15,68.15,0,0,1-13.93,6.74L625,629.69l-20.48,59.52a68.41,68.41,0,0,1-12.55-5.08l-31.58-86.47a69.15,69.15,0,0,1,6.9-12.8c.7,0,1.49,0,2.11,0,7.36,0,18.78-.9,18.78-.9a2.91,2.91,0,0,1,.45,5.81s-3.82.45-8.06.68l25.66,76.36,15.43-46.27-11-30.11c-3.8-.21-7.39-.66-7.39-.66-3.81-.22-3.35-6,.44-5.81,0,0,11.65.9,18.56.9,7.37,0,18.79-.9,18.79-.9,3.81-.21,4.24,5.36.45,5.81,0,0-3.83.45-8.07.68l25.48,75.78,7-23.52Q671.3,629,671.3,620c0-8.71-3.12-14.75-5.81-19.44-3.57-5.81-6.93-10.72-6.93-16.54s4-11.23,9.8-12.28A69,69,0,0,1,685.93,595.07Z"/><path class="cls-3" d="M37.07,49.4A7.34,7.34,0,0,1,34,52.33a10.82,10.82,0,0,1-5.18,1.12H25v9.07H18.82V37.25h10a11.4,11.4,0,0,1,5.11,1A7.19,7.19,0,0,1,37,41.17a8.36,8.36,0,0,1,1,4.22A8.15,8.15,0,0,1,37.07,49.4ZM31,47.73a3.61,3.61,0,0,0,0-4.68,3.64,3.64,0,0,0-2.63-.83H25v6.33h3.35A3.69,3.69,0,0,0,31,47.73Z"/><path class="cls-3" d="M50.14,43.17a7,7,0,0,1,3.6-1v6.51H52.05a5.19,5.19,0,0,0-3.46,1,4.4,4.4,0,0,0-1.15,3.48v9.32H41.28V42.43h6.16v3.35A8.2,8.2,0,0,1,50.14,43.17Z"/><path class="cls-3" d="M60.52,61.55a9.22,9.22,0,0,1-3.7-3.6,11.7,11.7,0,0,1,0-10.93,9.3,9.3,0,0,1,3.75-3.61,11.88,11.88,0,0,1,10.65,0A9.24,9.24,0,0,1,75,47a10.72,10.72,0,0,1,1.37,5.46A10.59,10.59,0,0,1,75,57.93a9.34,9.34,0,0,1-3.78,3.62,11.32,11.32,0,0,1-5.35,1.26A11.13,11.13,0,0,1,60.52,61.55Zm8.32-5.36a5.15,5.15,0,0,0,1.24-3.71,5.26,5.26,0,0,0-1.2-3.71,4.09,4.09,0,0,0-6,0,5.3,5.3,0,0,0-1.19,3.73,5.36,5.36,0,0,0,1.17,3.71,3.8,3.8,0,0,0,2.93,1.29A4,4,0,0,0,68.84,56.19Z"/><path class="cls-3" d="M91,43a6.4,6.4,0,0,1,2.47,2.27V42.43H99.6V62.49a11.21,11.21,0,0,1-1.1,5,8.34,8.34,0,0,1-3.34,3.58,10.82,10.82,0,0,1-5.6,1.33,11.67,11.67,0,0,1-7.24-2.1,8,8,0,0,1-3.17-5.71h6.09a2.92,2.92,0,0,0,1.37,1.82,5,5,0,0,0,2.66.66,4.18,4.18,0,0,0,3-1.09,4.72,4.72,0,0,0,1.14-3.51V59.64A6.81,6.81,0,0,1,91,61.93a7.46,7.46,0,0,1-3.71.88,8.28,8.28,0,0,1-4.5-1.28,8.83,8.83,0,0,1-3.18-3.63,12.15,12.15,0,0,1-1.17-5.46A12,12,0,0,1,79.57,47a8.74,8.74,0,0,1,3.18-3.6,8.35,8.35,0,0,1,4.5-1.26A7.69,7.69,0,0,1,91,43Zm1.19,5.83a4.34,4.34,0,0,0-6.23,0,5,5,0,0,0-1.28,3.62,5.12,5.12,0,0,0,1.28,3.66,4.28,4.28,0,0,0,6.23,0,5,5,0,0,0,1.28-3.63A5,5,0,0,0,92.17,48.84Z"/><path class="cls-3" d="M112.92,43.17a7,7,0,0,1,3.6-1v6.51h-1.69a5.19,5.19,0,0,0-3.46,1,4.4,4.4,0,0,0-1.15,3.48v9.32h-6.16V42.43h6.16v3.35A8.2,8.2,0,0,1,112.92,43.17Z"/><path class="cls-3" d="M119.42,47a8.74,8.74,0,0,1,3.18-3.6,8.35,8.35,0,0,1,4.5-1.26,7.69,7.69,0,0,1,3.73.86,6.4,6.4,0,0,1,2.47,2.27V42.43h6.15V62.52H133.3V59.68A6.79,6.79,0,0,1,130.8,62a7.84,7.84,0,0,1-3.73.86,8.23,8.23,0,0,1-4.47-1.28,8.83,8.83,0,0,1-3.18-3.63,12.15,12.15,0,0,1-1.17-5.46A12,12,0,0,1,119.42,47ZM132,48.84a4.34,4.34,0,0,0-6.23,0,5,5,0,0,0-1.28,3.62,5.12,5.12,0,0,0,1.28,3.66,4.28,4.28,0,0,0,6.23,0,5,5,0,0,0,1.28-3.63A5,5,0,0,0,132,48.84Z"/><path class="cls-3" d="M175.51,44.49a8.65,8.65,0,0,1,2.21,6.3V62.52H171.6V51.61a4.12,4.12,0,0,0-1-3,3.72,3.72,0,0,0-2.82-1.06,3.76,3.76,0,0,0-2.83,1.06,4.16,4.16,0,0,0-1,3V62.52h-6.12V51.61a4.17,4.17,0,0,0-1-3,4.29,4.29,0,0,0-5.65,0,4.12,4.12,0,0,0-1,3V62.52h-6.15V42.43h6.15V45a6.59,6.59,0,0,1,2.45-2,7.6,7.6,0,0,1,3.42-.74,8.31,8.31,0,0,1,4.05,1A7,7,0,0,1,162.78,46a8.19,8.19,0,0,1,2.84-2.7,7.75,7.75,0,0,1,3.93-1A7.94,7.94,0,0,1,175.51,44.49Z"/><path class="cls-3" d="M182,47a8.74,8.74,0,0,1,3.18-3.6,8.35,8.35,0,0,1,4.5-1.26,7.69,7.69,0,0,1,3.73.86,6.3,6.3,0,0,1,2.46,2.27V42.43H202V62.52h-6.16V59.68a6.71,6.71,0,0,1-2.5,2.27,7.8,7.8,0,0,1-3.72.86,8.2,8.2,0,0,1-4.47-1.28A8.83,8.83,0,0,1,182,57.9a12.15,12.15,0,0,1-1.17-5.46A12,12,0,0,1,182,47Zm12.6,1.83a4.34,4.34,0,0,0-6.23,0,5,5,0,0,0-1.28,3.62,5.12,5.12,0,0,0,1.28,3.66,4.12,4.12,0,0,0,3.11,1.35,4.17,4.17,0,0,0,3.12-1.34,5,5,0,0,0,1.27-3.63A5,5,0,0,0,194.59,48.84Z"/><path class="cls-3" d="M217.68,57.3v5.22h-3.13a7.63,7.63,0,0,1-5.22-1.64q-1.87-1.64-1.87-5.34v-8H205V42.43h2.45V37.54h6.15v4.89h4v5.12h-4v8.06a1.74,1.74,0,0,0,.43,1.3,2.14,2.14,0,0,0,1.44.39Z"/><path class="cls-3" d="M221.55,39.39a3.1,3.1,0,0,1-1-2.36,3.15,3.15,0,0,1,1-2.39,4.12,4.12,0,0,1,5.26,0,3.14,3.14,0,0,1,1,2.39,3.09,3.09,0,0,1-1,2.36,4.08,4.08,0,0,1-5.26,0Zm5.71,3V62.52H221.1V42.43Z"/><path class="cls-3" d="M235.55,61.55a9.22,9.22,0,0,1-3.7-3.6,11.7,11.7,0,0,1,0-10.93,9.24,9.24,0,0,1,3.75-3.61,11.88,11.88,0,0,1,10.65,0A9.3,9.3,0,0,1,250,47a10.72,10.72,0,0,1,1.37,5.46A10.59,10.59,0,0,1,250,57.93a9.4,9.4,0,0,1-3.78,3.62,11.32,11.32,0,0,1-5.35,1.26A11.1,11.1,0,0,1,235.55,61.55Zm8.32-5.36a5.15,5.15,0,0,0,1.24-3.71,5.26,5.26,0,0,0-1.2-3.71,4.09,4.09,0,0,0-6,0,5.3,5.3,0,0,0-1.19,3.73,5.36,5.36,0,0,0,1.17,3.71,3.8,3.8,0,0,0,2.93,1.29A4,4,0,0,0,243.87,56.19Z"/><path class="cls-3" d="M272.52,44.5a8.91,8.91,0,0,1,2.11,6.29V62.52h-6.12V51.61a4.45,4.45,0,0,0-1-3.13,4.11,4.11,0,0,0-5.62,0,4.4,4.4,0,0,0-1,3.13V62.52h-6.16V42.43h6.16V45.1A6.46,6.46,0,0,1,263.33,43a8.06,8.06,0,0,1,3.56-.77A7.29,7.29,0,0,1,272.52,44.5Z"/><path class="cls-3" d="M321.32,37.25l-6.59,25.27h-7.45l-4-16.63-4.18,16.63h-7.45l-6.41-25.27h6.59l3.64,18.4,4.5-18.4h6.77L311,55.65l3.67-18.4Z"/><path class="cls-3" d="M343.25,54H329.31a4.21,4.21,0,0,0,1.21,2.87,3.69,3.69,0,0,0,2.61,1,3.23,3.23,0,0,0,3.2-2h6.56a9,9,0,0,1-5.12,6,10.55,10.55,0,0,1-4.42.9,10.8,10.8,0,0,1-5.26-1.26,8.91,8.91,0,0,1-3.6-3.6,12.24,12.24,0,0,1,0-10.94,8.87,8.87,0,0,1,3.58-3.6,10.87,10.87,0,0,1,5.3-1.26,10.68,10.68,0,0,1,5.18,1.22,8.89,8.89,0,0,1,3.55,3.49,10.62,10.62,0,0,1,1.27,5.29A16,16,0,0,1,343.25,54Zm-6.2-3.42A3.18,3.18,0,0,0,336,48a4,4,0,0,0-2.7-.93,3.91,3.91,0,0,0-2.61.9,4,4,0,0,0-1.31,2.55Z"/><path class="cls-3" d="M355.23,43a7.72,7.72,0,0,1,3.71-.86,8.3,8.3,0,0,1,4.5,1.26,8.69,8.69,0,0,1,3.19,3.6,12,12,0,0,1,1.17,5.43,12.15,12.15,0,0,1-1.17,5.46,8.78,8.78,0,0,1-3.19,3.63,8.23,8.23,0,0,1-4.5,1.28,7.73,7.73,0,0,1-3.71-.85,6.51,6.51,0,0,1-2.48-2.25v2.81h-6.16V35.88h6.16v9.4A6.36,6.36,0,0,1,355.23,43Zm5,5.81a4.27,4.27,0,0,0-3.15-1.31A4.18,4.18,0,0,0,354,48.84a5,5,0,0,0-1.28,3.64A5,5,0,0,0,354,56.11a4.3,4.3,0,0,0,6.25,0,5.08,5.08,0,0,0,1.29-3.66A5,5,0,0,0,360.26,48.82Z"/><path class="cls-3" d="M371.27,47.2a3.08,3.08,0,0,1-1-2.35,3.22,3.22,0,0,1,1-2.42,3.74,3.74,0,0,1,2.65-1,3.7,3.7,0,0,1,2.61,1,3.22,3.22,0,0,1,1,2.42,3.08,3.08,0,0,1-1,2.35,3.69,3.69,0,0,1-2.61,1A3.74,3.74,0,0,1,371.27,47.2Zm0,14.66a3.12,3.12,0,0,1-1-2.36,3.18,3.18,0,0,1,1-2.41,3.71,3.71,0,0,1,2.65-1,3.66,3.66,0,0,1,2.61,1,3.18,3.18,0,0,1,1,2.41,3.12,3.12,0,0,1-1,2.36,3.73,3.73,0,0,1-2.61,1A3.78,3.78,0,0,1,371.27,61.86Z"/><path class="cls-3" d="M55.55,81.69V96.37H54.08V89.5h-8v6.87H44.65V81.69h1.47v6.59h8V81.69Z"/><path class="cls-3" d="M60.82,86.14v7.12a2,2,0,0,0,.4,1.45,2,2,0,0,0,1.41.4H64v1.26H62.4a3.19,3.19,0,0,1-2.31-.73,3.15,3.15,0,0,1-.76-2.38V86.14h-1.6V84.9h1.6V82h1.49V84.9H64v1.24Z"/><path class="cls-3" d="M83.32,86a5,5,0,0,1,1.27,3.69v6.72H83.14V89.82a4.1,4.1,0,0,0-.9-2.86,3.16,3.16,0,0,0-2.46-1A3.32,3.32,0,0,0,77.2,87a4.53,4.53,0,0,0-1,3.11v6.22H74.79V89.82A4.11,4.11,0,0,0,73.88,87a3.19,3.19,0,0,0-2.48-1A3.32,3.32,0,0,0,68.82,87a4.53,4.53,0,0,0-1,3.11v6.22H66.39V84.9h1.46v2a3.78,3.78,0,0,1,1.56-1.63,4.58,4.58,0,0,1,2.25-.56,4.74,4.74,0,0,1,2.61.72,4,4,0,0,1,1.63,2.1,3.86,3.86,0,0,1,1.58-2.09A4.56,4.56,0,0,1,80,84.69,4.47,4.47,0,0,1,83.32,86Z"/><path class="cls-3" d="M89.32,80.83V96.37H87.85V80.83Z"/><path class="cls-3" d="M101.83,82.57H94.15V88a3.87,3.87,0,0,1,1.53-1.21,5.69,5.69,0,0,1,5,.23,4,4,0,0,1,1.57,1.83,6.06,6.06,0,0,1,.49,2.4,6.21,6.21,0,0,1-.56,2.66,4.29,4.29,0,0,1-1.7,1.88,5.44,5.44,0,0,1-2.85.69,5.25,5.25,0,0,1-3.5-1.12,4.7,4.7,0,0,1-1.64-3h1.45a3.42,3.42,0,0,0,1.26,2.15,3.89,3.89,0,0,0,2.43.75,3.44,3.44,0,0,0,2.76-1.08,4.21,4.21,0,0,0,.94-2.87,3.77,3.77,0,0,0-1-2.72,3.59,3.59,0,0,0-2.71-1,4.09,4.09,0,0,0-2.14.56,3.44,3.44,0,0,0-1.36,1.54H92.78V81.29h9Z"/><path class="cls-3" d="M107,93.93l-2.19,5.5h-1l1.56-5.5Z"/><path class="cls-3" d="M115,87.52a5.08,5.08,0,0,1,2-2.06,5.71,5.71,0,0,1,2.88-.73,5.6,5.6,0,0,1,3.5,1,4.73,4.73,0,0,1,1.77,2.86h-1.57a3.23,3.23,0,0,0-1.27-1.94,4,4,0,0,0-2.43-.71,4.15,4.15,0,0,0-2.08.53,3.74,3.74,0,0,0-1.46,1.56,6.45,6.45,0,0,0,0,5.12,3.71,3.71,0,0,0,1.46,1.57,4.15,4.15,0,0,0,2.08.53,4,4,0,0,0,2.43-.71,3.22,3.22,0,0,0,1.27-2h1.57a4.81,4.81,0,0,1-1.78,2.84,5.58,5.58,0,0,1-3.49,1.07,5.71,5.71,0,0,1-2.88-.73,5.08,5.08,0,0,1-2-2.06,6.4,6.4,0,0,1-.71-3.11A6.47,6.47,0,0,1,115,87.52Z"/><path class="cls-3" d="M128.6,95.62a3.32,3.32,0,0,1-1.4-2.49h1.51a2.17,2.17,0,0,0,.92,1.57,3.54,3.54,0,0,0,2.17.6,2.85,2.85,0,0,0,1.88-.57,1.78,1.78,0,0,0,.68-1.41,1.3,1.3,0,0,0-.38-1,2.76,2.76,0,0,0-.95-.6,13,13,0,0,0-1.57-.47,16.42,16.42,0,0,1-2.08-.68,3.49,3.49,0,0,1-1.35-1,2.69,2.69,0,0,1-.56-1.78,2.59,2.59,0,0,1,.51-1.55,3.47,3.47,0,0,1,1.42-1.14,5.21,5.21,0,0,1,2.1-.42,4.57,4.57,0,0,1,3,.94,3.42,3.42,0,0,1,1.22,2.57h-1.48a2.25,2.25,0,0,0-.78-1.63,3,3,0,0,0-2-.62,2.89,2.89,0,0,0-1.8.53,1.56,1.56,0,0,0-.7,1.3,1.53,1.53,0,0,0,.41,1.1,2.9,2.9,0,0,0,1,.68,17,17,0,0,0,1.64.53,16.17,16.17,0,0,1,2,.65,3.4,3.4,0,0,1,1.26.93,2.43,2.43,0,0,1,.55,1.61,2.85,2.85,0,0,1-.5,1.65,3.43,3.43,0,0,1-1.41,1.15,4.89,4.89,0,0,1-2.08.42A5.3,5.3,0,0,1,128.6,95.62Z"/><path class="cls-3" d="M139.31,95.62a3.32,3.32,0,0,1-1.4-2.49h1.51a2.2,2.2,0,0,0,.91,1.57,3.59,3.59,0,0,0,2.18.6,2.85,2.85,0,0,0,1.88-.57,1.78,1.78,0,0,0,.68-1.41,1.3,1.3,0,0,0-.38-1,2.76,2.76,0,0,0-.95-.6,13,13,0,0,0-1.57-.47,16.42,16.42,0,0,1-2.08-.68,3.49,3.49,0,0,1-1.35-1,2.69,2.69,0,0,1-.56-1.78,2.59,2.59,0,0,1,.51-1.55,3.47,3.47,0,0,1,1.42-1.14,5.21,5.21,0,0,1,2.1-.42,4.57,4.57,0,0,1,3,.94,3.38,3.38,0,0,1,1.21,2.57h-1.47a2.25,2.25,0,0,0-.78-1.63,3,3,0,0,0-2-.62,2.89,2.89,0,0,0-1.8.53,1.56,1.56,0,0,0-.7,1.3,1.53,1.53,0,0,0,.41,1.1,2.9,2.9,0,0,0,1,.68,17,17,0,0,0,1.64.53,16.17,16.17,0,0,1,2,.65,3.4,3.4,0,0,1,1.26.93,2.43,2.43,0,0,1,.55,1.61A2.85,2.85,0,0,1,146,95a3.43,3.43,0,0,1-1.41,1.15,4.89,4.89,0,0,1-2.08.42A5.3,5.3,0,0,1,139.31,95.62Z"/><path class="cls-3" d="M150.39,82.14a5.28,5.28,0,0,1,3.46-1.1,5.39,5.39,0,0,1,2.41.5,3.62,3.62,0,0,1,1.53,1.38,3.79,3.79,0,0,1,.51,2,3.53,3.53,0,0,1-.78,2.29,3.42,3.42,0,0,1-2.2,1.2v.1a4.18,4.18,0,0,1,2.37,1.29,3.81,3.81,0,0,1,.88,2.62,3.9,3.9,0,0,1-1.2,3,4.92,4.92,0,0,1-3.5,1.14,5.51,5.51,0,0,1-3.59-1.14,4.57,4.57,0,0,1-1.62-3.25h1.43a3.57,3.57,0,0,0,1.18,2.28,3.77,3.77,0,0,0,2.6.87,3.36,3.36,0,0,0,2.45-.84,2.9,2.9,0,0,0,.85-2.14c0-2.13-1.54-3.19-4.6-3.19h-.46V87.82h.48q4.28,0,4.28-2.79a2.56,2.56,0,0,0-.8-2,3.2,3.2,0,0,0-2.26-.74,3.73,3.73,0,0,0-2.37.74,3.05,3.05,0,0,0-1.1,2.09h-1.43A4.15,4.15,0,0,1,150.39,82.14Z"/><path class="cls-3" d="M162.92,93.93l-2.18,5.5h-1l1.55-5.5Z"/><path class="cls-3" d="M51.43,106.89V118a3.62,3.62,0,0,1-1,2.7,3.72,3.72,0,0,1-2.75,1,3.77,3.77,0,0,1-2.84-1.09,4,4,0,0,1-1.06-2.92h1.49a3.19,3.19,0,0,0,.6,2,2.56,2.56,0,0,0,3.56.06A2.65,2.65,0,0,0,50,118V106.89Z"/><path class="cls-3" d="M55.16,112.72a5,5,0,0,1,2-2.06,5.59,5.59,0,0,1,2.83-.72,5.16,5.16,0,0,1,2.82.75,4.4,4.4,0,0,1,1.71,1.93V110.1h1.47v11.47H64.47V119A4.59,4.59,0,0,1,62.74,121a5.09,5.09,0,0,1-2.82.77,5.46,5.46,0,0,1-2.81-.74,5.09,5.09,0,0,1-2-2.08,7.21,7.21,0,0,1,0-6.2Zm8.75.68a4,4,0,0,0-1.55-1.62,4.16,4.16,0,0,0-2.15-.56,4.38,4.38,0,0,0-2.18.54,3.83,3.83,0,0,0-1.52,1.59,5,5,0,0,0-.56,2.46,5.12,5.12,0,0,0,.56,2.47A3.85,3.85,0,0,0,58,119.9a4.29,4.29,0,0,0,2.18.56,4.17,4.17,0,0,0,2.15-.57,4,4,0,0,0,1.55-1.62,5.57,5.57,0,0,0,0-4.87Z"/><path class="cls-3" d="M73.38,120.14l3.86-10H78.8l-4.6,11.47H72.54l-4.6-11.47h1.57Z"/><path class="cls-3" d="M80.82,112.72a5,5,0,0,1,2-2.06,5.53,5.53,0,0,1,2.82-.72,5.16,5.16,0,0,1,2.82.75,4.36,4.36,0,0,1,1.72,1.93V110.1h1.47v11.47H90.14V119A4.68,4.68,0,0,1,88.4,121a5.09,5.09,0,0,1-2.82.77,5.4,5.4,0,0,1-2.8-.74,5,5,0,0,1-2-2.08,7.21,7.21,0,0,1,0-6.2Zm8.75.68A4.08,4.08,0,0,0,88,111.78a4.19,4.19,0,0,0-2.16-.56,4.38,4.38,0,0,0-2.18.54,3.89,3.89,0,0,0-1.52,1.59,5.14,5.14,0,0,0-.56,2.46,5.23,5.23,0,0,0,.56,2.47,3.91,3.91,0,0,0,1.52,1.62,4.29,4.29,0,0,0,2.18.56,4.2,4.2,0,0,0,2.16-.57,4.08,4.08,0,0,0,1.54-1.62,5.49,5.49,0,0,0,0-4.87Z"/><path class="cls-3" d="M96.87,121.21a4.07,4.07,0,0,1-1.74-1.41,3.69,3.69,0,0,1-.67-2H96a3,3,0,0,0,.94,1.88,3.41,3.41,0,0,0,2.46.81,3.46,3.46,0,0,0,2.36-.77,2.48,2.48,0,0,0,.87-1.94,2.29,2.29,0,0,0-.48-1.52,2.91,2.91,0,0,0-1.2-.87c-.47-.18-1.13-.39-2-.62a16.63,16.63,0,0,1-2.33-.77,3.64,3.64,0,0,1-1.47-1.18,3.44,3.44,0,0,1-.61-2.16,3.55,3.55,0,0,1,.59-2,3.9,3.9,0,0,1,1.65-1.39,5.69,5.69,0,0,1,2.46-.51,5.08,5.08,0,0,1,3.29,1,3.76,3.76,0,0,1,1.44,2.57h-1.6a2.62,2.62,0,0,0-1-1.6,3.87,3.87,0,0,0-4.47,0,2.29,2.29,0,0,0-.88,1.92,2.24,2.24,0,0,0,.48,1.49,3.11,3.11,0,0,0,1.21.86,16.4,16.4,0,0,0,2,.63,16,16,0,0,1,2.31.79,3.71,3.71,0,0,1,1.49,1.18,3.45,3.45,0,0,1,.61,2.15,3.83,3.83,0,0,1-.54,2,4.11,4.11,0,0,1-1.62,1.49,5.38,5.38,0,0,1-2.56.57A6,6,0,0,1,96.87,121.21Z"/><path class="cls-3" d="M107,112.72a5.08,5.08,0,0,1,2-2.06,6.28,6.28,0,0,1,6.38.32,4.8,4.8,0,0,1,1.77,2.86h-1.57a3.26,3.26,0,0,0-1.27-1.94,4,4,0,0,0-2.43-.71,4.15,4.15,0,0,0-2.08.53,3.74,3.74,0,0,0-1.46,1.56,6.45,6.45,0,0,0,0,5.12,3.71,3.71,0,0,0,1.46,1.57,4.15,4.15,0,0,0,2.08.53,4,4,0,0,0,2.43-.71,3.22,3.22,0,0,0,1.27-2h1.57a4.81,4.81,0,0,1-1.78,2.84A6.14,6.14,0,0,1,109,121a5.08,5.08,0,0,1-2-2.06,6.4,6.4,0,0,1-.71-3.11A6.47,6.47,0,0,1,107,112.72Z"/><path class="cls-3" d="M122.8,110.48a4.78,4.78,0,0,1,2.45-.59v1.54h-.4a3.23,3.23,0,0,0-3.53,3.73v6.41h-1.47V110.1h1.47v2A3.62,3.62,0,0,1,122.8,110.48Z"/><path class="cls-3" d="M127.43,107.62a1.11,1.11,0,0,1,0-1.54,1.1,1.1,0,0,1,1.51,0,1.08,1.08,0,1,1-1.51,1.54Zm1.49,2.48v11.47h-1.47V110.1Z"/><path class="cls-3" d="M135.44,110.7a5.12,5.12,0,0,1,2.83-.76,5.51,5.51,0,0,1,2.8.72,5,5,0,0,1,2,2.06,7.12,7.12,0,0,1,0,6.2,5.09,5.09,0,0,1-2,2.08,5.42,5.42,0,0,1-2.8.74,5.14,5.14,0,0,1-2.82-.77,4.63,4.63,0,0,1-1.74-1.92V127h-1.45V110.1h1.45v2.52A4.6,4.6,0,0,1,135.44,110.7Zm6.24,2.65a3.89,3.89,0,0,0-1.52-1.59,4.42,4.42,0,0,0-2.19-.54,4.18,4.18,0,0,0-2.15.56,4.08,4.08,0,0,0-1.54,1.62,5.49,5.49,0,0,0,0,4.87,4.08,4.08,0,0,0,1.54,1.62,4.19,4.19,0,0,0,2.15.57,4.32,4.32,0,0,0,2.19-.56,3.91,3.91,0,0,0,1.52-1.62,5.23,5.23,0,0,0,.56-2.47A5.14,5.14,0,0,0,141.68,113.35Z"/><path class="cls-3" d="M148.35,111.34v7.12a2,2,0,0,0,.4,1.45,1.92,1.92,0,0,0,1.4.4h1.35v1.26h-1.58a2.66,2.66,0,0,1-3.06-3.11v-7.12h-1.6V110.1h1.6v-2.87h1.49v2.87h3.15v1.24Z"/><path class="cls-3" d="M155.26,119.13l-2.19,5.5h-1l1.56-5.5Z"/><path class="cls-3" d="M171.8,118.08h-6.68l-1.28,3.49h-1.55l5.36-14.49h1.65l5.34,14.49h-1.56Zm-.44-1.22-2.9-7.93-2.89,7.93Z"/><path class="cls-3" d="M185.73,111.16a5,5,0,0,1,1.3,3.69v6.72h-1.45V115a4,4,0,0,0-.94-2.86,3.33,3.33,0,0,0-2.55-1,3.44,3.44,0,0,0-2.64,1,4.35,4.35,0,0,0-1,3.09v6.26H177V110.1h1.47v2a3.72,3.72,0,0,1,1.58-1.61,4.81,4.81,0,0,1,2.33-.56A4.64,4.64,0,0,1,185.73,111.16Z"/><path class="cls-3" d="M197.91,110.69a4.43,4.43,0,0,1,1.72,1.91v-2.5h1.47v11.76a5.72,5.72,0,0,1-.68,2.8,4.84,4.84,0,0,1-1.9,1.88,5.77,5.77,0,0,1-2.78.66,6.09,6.09,0,0,1-3.66-1,4.5,4.5,0,0,1-1.82-2.86h1.45a3.48,3.48,0,0,0,1.44,1.91,4.51,4.51,0,0,0,2.59.72,4.14,4.14,0,0,0,2-.48,3.3,3.3,0,0,0,1.38-1.39,4.49,4.49,0,0,0,.51-2.19V119A4.66,4.66,0,0,1,197.9,121a5.1,5.1,0,0,1-2.81.77,5.44,5.44,0,0,1-2.82-.74,5,5,0,0,1-2-2.08,7.21,7.21,0,0,1,0-6.2,5,5,0,0,1,2-2.06,5.53,5.53,0,0,1,2.82-.72A5.21,5.21,0,0,1,197.91,110.69Zm1.15,2.71a4.08,4.08,0,0,0-1.54-1.62,4.18,4.18,0,0,0-2.15-.56,4.39,4.39,0,0,0-2.19.54,3.89,3.89,0,0,0-1.52,1.59,5.14,5.14,0,0,0-.56,2.46,5.23,5.23,0,0,0,.56,2.47,3.91,3.91,0,0,0,1.52,1.62,4.3,4.3,0,0,0,2.19.56,4.19,4.19,0,0,0,2.15-.57,4.08,4.08,0,0,0,1.54-1.62,5.49,5.49,0,0,0,0-4.87Z"/><path class="cls-3" d="M214.39,110.1v11.47h-1.47v-2a3.52,3.52,0,0,1-1.55,1.64,4.87,4.87,0,0,1-2.36.57,4.64,4.64,0,0,1-3.36-1.27,5,5,0,0,1-1.3-3.69v-6.7h1.45v6.53a4,4,0,0,0,.94,2.86,3.33,3.33,0,0,0,2.55,1,3.44,3.44,0,0,0,2.64-1,4.35,4.35,0,0,0,1-3.09V110.1Z"/><path class="cls-3" d="M219.22,106v15.54h-1.47V106Z"/><path class="cls-3" d="M222.59,112.72a5,5,0,0,1,1.95-2.06,5.59,5.59,0,0,1,2.83-.72,5.16,5.16,0,0,1,2.82.75,4.4,4.4,0,0,1,1.71,1.93V110.1h1.47v11.47H231.9V119a4.59,4.59,0,0,1-1.73,1.94,5.09,5.09,0,0,1-2.82.77,5.46,5.46,0,0,1-2.81-.74,5.09,5.09,0,0,1-1.95-2.08,7.21,7.21,0,0,1,0-6.2Zm8.75.68a4.1,4.1,0,0,0-1.55-1.62,4.16,4.16,0,0,0-2.15-.56,4.38,4.38,0,0,0-2.18.54,3.83,3.83,0,0,0-1.52,1.59,5,5,0,0,0-.56,2.46,5.12,5.12,0,0,0,.56,2.47,3.85,3.85,0,0,0,1.52,1.62,4.29,4.29,0,0,0,2.18.56,4.17,4.17,0,0,0,2.15-.57,4.1,4.1,0,0,0,1.55-1.62,5.57,5.57,0,0,0,0-4.87Z"/><path class="cls-3" d="M239.68,110.48a4.8,4.8,0,0,1,2.45-.59v1.54h-.4a3.23,3.23,0,0,0-3.53,3.73v6.41h-1.47V110.1h1.47v2A3.68,3.68,0,0,1,239.68,110.48Z"/><path class="cls-3" d="M712.58,195.39a7.42,7.42,0,0,1-3.1,2.94,10.94,10.94,0,0,1-5.18,1.11h-3.82v9.07h-6.15V183.24h10a11.27,11.27,0,0,1,5.11,1,7.08,7.08,0,0,1,3.13,2.88,8.3,8.3,0,0,1,1.05,4.21A8.15,8.15,0,0,1,712.58,195.39Zm-6.12-1.67a3.61,3.61,0,0,0,0-4.68,3.69,3.69,0,0,0-2.63-.83h-3.35v6.34h3.35A3.69,3.69,0,0,0,706.46,193.72Z"/><path class="cls-3" d="M725.65,189.16a7,7,0,0,1,3.6-.95v6.52h-1.69a5.19,5.19,0,0,0-3.46,1,4.38,4.38,0,0,0-1.15,3.47v9.32h-6.16V188.43H723v3.34A8.2,8.2,0,0,1,725.65,189.16Z"/><path class="cls-3" d="M736,207.54a9.22,9.22,0,0,1-3.7-3.6,11.68,11.68,0,0,1,0-10.92,9.26,9.26,0,0,1,3.75-3.62,11.88,11.88,0,0,1,10.65,0,9.2,9.2,0,0,1,3.75,3.62,11.45,11.45,0,0,1,0,10.9,9.28,9.28,0,0,1-3.78,3.62,11.32,11.32,0,0,1-5.35,1.26A11.13,11.13,0,0,1,736,207.54Zm8.32-5.36a5.15,5.15,0,0,0,1.24-3.71,5.27,5.27,0,0,0-1.2-3.71,4.11,4.11,0,0,0-6,0,6.45,6.45,0,0,0,0,7.44,3.8,3.8,0,0,0,2.93,1.29A4,4,0,0,0,744.35,202.18Z"/><path class="cls-3" d="M766.49,189a6.4,6.4,0,0,1,2.47,2.27v-2.84h6.15v20a11.18,11.18,0,0,1-1.1,5,8.34,8.34,0,0,1-3.34,3.58,10.82,10.82,0,0,1-5.6,1.33,11.67,11.67,0,0,1-7.24-2.1,8,8,0,0,1-3.17-5.71h6.09a2.9,2.9,0,0,0,1.37,1.82,5,5,0,0,0,2.66.67,4.19,4.19,0,0,0,3-1.1,4.69,4.69,0,0,0,1.14-3.51v-2.85a6.81,6.81,0,0,1-2.49,2.29,7.46,7.46,0,0,1-3.71.88,8.19,8.19,0,0,1-4.5-1.28,8.83,8.83,0,0,1-3.18-3.63,12.12,12.12,0,0,1-1.17-5.46,12,12,0,0,1,1.17-5.43,8.74,8.74,0,0,1,3.18-3.6,8.35,8.35,0,0,1,4.5-1.26A7.81,7.81,0,0,1,766.49,189Zm1.19,5.83a4.32,4.32,0,0,0-6.23,0,5,5,0,0,0-1.28,3.61,5.12,5.12,0,0,0,1.28,3.66,4.12,4.12,0,0,0,3.11,1.35,4.18,4.18,0,0,0,3.12-1.33,5.82,5.82,0,0,0,0-7.28Z"/><path class="cls-3" d="M788.43,189.16a7,7,0,0,1,3.6-.95v6.52h-1.69a5.19,5.19,0,0,0-3.46,1,4.38,4.38,0,0,0-1.15,3.47v9.32h-6.15V188.43h6.15v3.34A8.2,8.2,0,0,1,788.43,189.16Z"/><path class="cls-3" d="M794.93,193a8.69,8.69,0,0,1,3.19-3.6,8.3,8.3,0,0,1,4.5-1.26,7.8,7.8,0,0,1,3.72.86,6.4,6.4,0,0,1,2.47,2.27v-2.84H815v20.08h-6.15v-2.84a6.71,6.71,0,0,1-2.5,2.27,7.81,7.81,0,0,1-3.73.86,8.09,8.09,0,0,1-4.46-1.28,8.78,8.78,0,0,1-3.19-3.63,12.12,12.12,0,0,1-1.17-5.46A12,12,0,0,1,794.93,193Zm12.6,1.83a4.32,4.32,0,0,0-6.23,0,5,5,0,0,0-1.28,3.61,5.12,5.12,0,0,0,1.28,3.66,4.13,4.13,0,0,0,3.12,1.35,4.17,4.17,0,0,0,3.11-1.33,5.82,5.82,0,0,0,0-7.28Z"/><path class="cls-3" d="M851,190.48a8.65,8.65,0,0,1,2.21,6.3v11.73h-6.12v-10.9a4.13,4.13,0,0,0-1-3,3.72,3.72,0,0,0-2.82-1.06,3.76,3.76,0,0,0-2.83,1.06,4.17,4.17,0,0,0-1,3v10.9h-6.12v-10.9a4.18,4.18,0,0,0-1-3,4.29,4.29,0,0,0-5.65,0,4.13,4.13,0,0,0-1,3v10.9h-6.15V188.43h6.15V191a6.61,6.61,0,0,1,2.45-2,7.74,7.74,0,0,1,3.42-.74,8.31,8.31,0,0,1,4,1,7,7,0,0,1,2.79,2.77,8.19,8.19,0,0,1,2.84-2.7,7.75,7.75,0,0,1,3.93-1A8,8,0,0,1,851,190.48Z"/><path class="cls-3" d="M857.5,193a8.74,8.74,0,0,1,3.18-3.6,8.35,8.35,0,0,1,4.5-1.26,7.81,7.81,0,0,1,3.73.86,6.3,6.3,0,0,1,2.46,2.27v-2.84h6.16v20.08h-6.16v-2.84a6.63,6.63,0,0,1-2.5,2.27,7.8,7.8,0,0,1-3.72.86,8.12,8.12,0,0,1-4.47-1.28,8.83,8.83,0,0,1-3.18-3.63,12.12,12.12,0,0,1-1.17-5.46A12,12,0,0,1,857.5,193Zm12.6,1.83a4.32,4.32,0,0,0-6.23,0,5,5,0,0,0-1.28,3.61,5.12,5.12,0,0,0,1.28,3.66,4.12,4.12,0,0,0,3.11,1.35,4.2,4.2,0,0,0,3.12-1.33,5.85,5.85,0,0,0,0-7.28Z"/><path class="cls-3" d="M893.19,203.29v5.22h-3.13a7.66,7.66,0,0,1-5.22-1.63q-1.87-1.65-1.87-5.35v-8h-2.45v-5.11H883v-4.9h6.15v4.9h4v5.11h-4v8.06a1.74,1.74,0,0,0,.43,1.3,2.14,2.14,0,0,0,1.44.39Z"/><path class="cls-3" d="M897.06,185.38a3.09,3.09,0,0,1-1-2.35,3.17,3.17,0,0,1,1-2.4,4.12,4.12,0,0,1,5.26,0,3.16,3.16,0,0,1,1,2.4,3.08,3.08,0,0,1-1,2.35,4.08,4.08,0,0,1-5.26,0Zm5.71,3.05v20.08h-6.16V188.43Z"/><path class="cls-3" d="M911.06,207.54a9.16,9.16,0,0,1-3.7-3.6,11.6,11.6,0,0,1,0-10.92,9.26,9.26,0,0,1,3.75-3.62,11.88,11.88,0,0,1,10.65,0,9.26,9.26,0,0,1,3.75,3.62,11.45,11.45,0,0,1,0,10.9,9.28,9.28,0,0,1-3.78,3.62,11.32,11.32,0,0,1-5.35,1.26A11.1,11.1,0,0,1,911.06,207.54Zm8.32-5.36a5.15,5.15,0,0,0,1.24-3.71,5.27,5.27,0,0,0-1.2-3.71,4.11,4.11,0,0,0-6,0,6.45,6.45,0,0,0,0,7.44,3.8,3.8,0,0,0,2.93,1.29A4,4,0,0,0,919.38,202.18Z"/><path class="cls-3" d="M948,190.5a8.91,8.91,0,0,1,2.1,6.28v11.73H944v-10.9a4.46,4.46,0,0,0-1-3.14,4.11,4.11,0,0,0-5.62,0,4.46,4.46,0,0,0-1,3.14v10.9h-6.16V188.43h6.16v2.66a6.46,6.46,0,0,1,2.52-2.11,8.06,8.06,0,0,1,3.56-.77A7.3,7.3,0,0,1,948,190.5Z"/><path class="cls-3" d="M954.66,193.2a3.09,3.09,0,0,1-1-2.36,3.15,3.15,0,0,1,1-2.41,4,4,0,0,1,5.26,0,3.18,3.18,0,0,1,1,2.41,3.12,3.12,0,0,1-1,2.36,4.12,4.12,0,0,1-5.26,0Zm0,14.65a3.08,3.08,0,0,1-1-2.36,3.17,3.17,0,0,1,1-2.41,4.05,4.05,0,0,1,5.26,0,3.2,3.2,0,0,1,1,2.41,3.1,3.1,0,0,1-1,2.36,4.12,4.12,0,0,1-5.26,0Z"/><path class="cls-3" d="M702.9,566.16a11.62,11.62,0,0,1,4.52-4.57A13.13,13.13,0,0,1,714,560a12.63,12.63,0,0,1,7.71,2.38,11.41,11.41,0,0,1,4.28,6.48h-6.77a5.42,5.42,0,0,0-2.14-2.41,6,6,0,0,0-3.15-.83,5.88,5.88,0,0,0-4.61,2,8.83,8.83,0,0,0,0,10.58,5.88,5.88,0,0,0,4.61,2,6,6,0,0,0,3.15-.82,5.5,5.5,0,0,0,2.14-2.42H726a11.33,11.33,0,0,1-4.28,6.46,12.61,12.61,0,0,1-7.71,2.36,13.12,13.12,0,0,1-6.57-1.63,11.66,11.66,0,0,1-4.52-4.56,13.46,13.46,0,0,1-1.62-6.66A13.62,13.62,0,0,1,702.9,566.16Z"/><path class="cls-3" d="M758.38,560.24v25.27h-6.16V570.36l-5.65,15.15h-5l-5.68-15.19v15.19h-6.16V560.24H737l7.09,17.5,7-17.5Z"/><path class="cls-3" d="M767,584.87a8.13,8.13,0,0,1-3.51-2.67,7.31,7.31,0,0,1-1.38-4.25h6.55a3.23,3.23,0,0,0,1,2.15,3.12,3.12,0,0,0,2.16.73,3.39,3.39,0,0,0,2.16-.63,2.09,2.09,0,0,0,.79-1.74,2.07,2.07,0,0,0-.63-1.55,5.15,5.15,0,0,0-1.54-1q-.93-.39-2.61-.9a28,28,0,0,1-4-1.51,7.35,7.35,0,0,1-2.66-2.23,6.2,6.2,0,0,1-1.12-3.85,6.61,6.61,0,0,1,2.56-5.53,10.5,10.5,0,0,1,6.66-2,10.65,10.65,0,0,1,6.73,2,7.16,7.16,0,0,1,2.73,5.56h-6.66a2.53,2.53,0,0,0-.9-1.92,3.16,3.16,0,0,0-2.12-.71,2.64,2.64,0,0,0-1.8.6,2.29,2.29,0,0,0,.47,3.62,19.62,19.62,0,0,0,3.6,1.47,33.9,33.9,0,0,1,4,1.58,7.6,7.6,0,0,1,2.64,2.2,5.85,5.85,0,0,1,1.12,3.71,7.27,7.27,0,0,1-1.1,3.92,7.58,7.58,0,0,1-3.19,2.81,10.83,10.83,0,0,1-4.93,1A13,13,0,0,1,767,584.87Z"/><path class="cls-3" d="M785.18,570.2a3.12,3.12,0,0,1-1-2.36,3.18,3.18,0,0,1,1-2.41,3.71,3.71,0,0,1,2.65-1,3.66,3.66,0,0,1,2.61,1,3.18,3.18,0,0,1,1,2.41,3.12,3.12,0,0,1-1,2.36,3.73,3.73,0,0,1-2.61.95A3.78,3.78,0,0,1,785.18,570.2Zm0,14.65a3.1,3.1,0,0,1-1-2.36,3.2,3.2,0,0,1,1-2.41,3.7,3.7,0,0,1,2.65-1,3.65,3.65,0,0,1,2.61,1,3.2,3.2,0,0,1,1,2.41,3.1,3.1,0,0,1-1,2.36,3.73,3.73,0,0,1-2.61.95A3.78,3.78,0,0,1,785.18,584.85Z"/><path class="cls-3" d="M133.16,574.73a6.62,6.62,0,0,1-.89,8.93,9.29,9.29,0,0,1-6.17,1.85H114.33V560.24H125.7a9.3,9.3,0,0,1,6,1.77,6.39,6.39,0,0,1,1,8.49,6,6,0,0,1-3.11,2A5.94,5.94,0,0,1,133.16,574.73Zm-12.68-4.26h4a3.6,3.6,0,0,0,2.32-.67,2.39,2.39,0,0,0,.81-2,2.43,2.43,0,0,0-.81-2,3.49,3.49,0,0,0-2.32-.69h-4Zm6.93,9.37a2.46,2.46,0,0,0,.85-2,2.61,2.61,0,0,0-.88-2.09A3.64,3.64,0,0,0,125,575h-4.47v5.58H125A3.63,3.63,0,0,0,127.41,579.84Z"/><path class="cls-3" d="M138,570a8.74,8.74,0,0,1,3.18-3.6,8.35,8.35,0,0,1,4.5-1.26,7.81,7.81,0,0,1,3.73.86,6.4,6.4,0,0,1,2.47,2.27v-2.84H158v20.08h-6.15v-2.84a6.71,6.71,0,0,1-2.5,2.27,7.84,7.84,0,0,1-3.73.86,8.14,8.14,0,0,1-4.47-1.28,8.83,8.83,0,0,1-3.18-3.63,12.12,12.12,0,0,1-1.17-5.46A12,12,0,0,1,138,570Zm12.6,1.83a4.32,4.32,0,0,0-6.23,0,5,5,0,0,0-1.28,3.61,5.12,5.12,0,0,0,1.28,3.66,4.12,4.12,0,0,0,3.11,1.35,4.18,4.18,0,0,0,3.12-1.33,5.82,5.82,0,0,0,0-7.28Z"/><path class="cls-3" d="M166,584.9a8,8,0,0,1-3.24-2.46,6.49,6.49,0,0,1-1.33-3.51h6.08a2.35,2.35,0,0,0,1,1.69,3.48,3.48,0,0,0,2.13.65,3,3,0,0,0,1.78-.45,1.38,1.38,0,0,0,.63-1.17,1.34,1.34,0,0,0-.9-1.28,18,18,0,0,0-2.92-.92,28.36,28.36,0,0,1-3.6-1.06,6.1,6.1,0,0,1-2.48-1.77,4.77,4.77,0,0,1-1.05-3.25,5.47,5.47,0,0,1,1-3.15,6.35,6.35,0,0,1,2.81-2.25,10.58,10.58,0,0,1,4.41-.83,8.8,8.8,0,0,1,5.95,1.87,7.27,7.27,0,0,1,2.51,5H173a2.46,2.46,0,0,0-.92-1.66,3.17,3.17,0,0,0-2-.61,2.86,2.86,0,0,0-1.66.41,1.35,1.35,0,0,0-.58,1.14,1.38,1.38,0,0,0,.92,1.29,14.69,14.69,0,0,0,2.86.87,31.23,31.23,0,0,1,3.64,1.13,6.23,6.23,0,0,1,2.47,1.8,5.12,5.12,0,0,1,1.09,3.33,5.27,5.27,0,0,1-1,3.15A6.49,6.49,0,0,1,175,585a10.85,10.85,0,0,1-4.3.79A11.56,11.56,0,0,1,166,584.9Z"/><path class="cls-3" d="M201.41,577H187.48a4.21,4.21,0,0,0,1.21,2.86,3.66,3.66,0,0,0,2.61,1,3.23,3.23,0,0,0,3.2-1.95h6.55a8.92,8.92,0,0,1-1.82,3.57,9.09,9.09,0,0,1-3.29,2.48,10.6,10.6,0,0,1-4.43.9,10.73,10.73,0,0,1-5.25-1.26,8.91,8.91,0,0,1-3.6-3.6,11,11,0,0,1-1.3-5.47,11.25,11.25,0,0,1,1.28-5.47,8.81,8.81,0,0,1,3.58-3.6,11.69,11.69,0,0,1,10.48,0,8.81,8.81,0,0,1,3.54,3.49,10.66,10.66,0,0,1,1.28,5.3A16.37,16.37,0,0,1,201.41,577Zm-6.19-3.42a3.15,3.15,0,0,0-1.08-2.52,4,4,0,0,0-2.7-.94,3.77,3.77,0,0,0-3.92,3.46Z"/><path class="cls-3" d="M212.34,570a8.74,8.74,0,0,1,3.18-3.6,8.35,8.35,0,0,1,4.5-1.26,7.81,7.81,0,0,1,3.62.83,6.61,6.61,0,0,1,2.58,2.23v-9.33h6.15v26.64h-6.15v-2.88a6.34,6.34,0,0,1-2.47,2.31,7.81,7.81,0,0,1-3.73.86,8.19,8.19,0,0,1-4.5-1.28,8.83,8.83,0,0,1-3.18-3.63,12.12,12.12,0,0,1-1.17-5.46A12,12,0,0,1,212.34,570Zm12.6,1.83a4.32,4.32,0,0,0-6.23,0,5,5,0,0,0-1.28,3.61,5.12,5.12,0,0,0,1.28,3.66,4.12,4.12,0,0,0,3.11,1.35,4.2,4.2,0,0,0,3.12-1.33,5.82,5.82,0,0,0,0-7.28Z"/><path class="cls-3" d="M255.66,577H241.73a4.21,4.21,0,0,0,1.21,2.86,3.66,3.66,0,0,0,2.61,1,3.23,3.23,0,0,0,3.2-1.95h6.55a8.92,8.92,0,0,1-1.82,3.57,9.09,9.09,0,0,1-3.29,2.48,10.6,10.6,0,0,1-4.43.9,10.73,10.73,0,0,1-5.25-1.26,8.91,8.91,0,0,1-3.6-3.6,11,11,0,0,1-1.3-5.47,11.25,11.25,0,0,1,1.28-5.47,8.81,8.81,0,0,1,3.58-3.6,11.69,11.69,0,0,1,10.48,0,8.81,8.81,0,0,1,3.54,3.49,10.66,10.66,0,0,1,1.28,5.3A16.37,16.37,0,0,1,255.66,577Zm-6.19-3.42a3.15,3.15,0,0,0-1.08-2.52,4,4,0,0,0-2.7-.94,3.77,3.77,0,0,0-3.92,3.46Z"/><path class="cls-3" d="M266.59,570a8.74,8.74,0,0,1,3.18-3.6,8.35,8.35,0,0,1,4.5-1.26,7.81,7.81,0,0,1,3.62.83,6.61,6.61,0,0,1,2.58,2.23v-9.33h6.15v26.64h-6.15v-2.88a6.34,6.34,0,0,1-2.47,2.31,7.81,7.81,0,0,1-3.73.86,8.19,8.19,0,0,1-4.5-1.28,8.83,8.83,0,0,1-3.18-3.63,12.12,12.12,0,0,1-1.17-5.46A12,12,0,0,1,266.59,570Zm12.6,1.83a4.32,4.32,0,0,0-6.23,0,5,5,0,0,0-1.28,3.61,5.12,5.12,0,0,0,1.28,3.66,4.12,4.12,0,0,0,3.11,1.35,4.18,4.18,0,0,0,3.12-1.33,5.82,5.82,0,0,0,0-7.28Z"/><path class="cls-3" d="M294.92,584.54a9.24,9.24,0,0,1-3.71-3.6,11.64,11.64,0,0,1,0-10.92A9.24,9.24,0,0,1,295,566.4a11.9,11.9,0,0,1,10.66,0,9.24,9.24,0,0,1,3.74,3.62,11.49,11.49,0,0,1,0,10.9,9.4,9.4,0,0,1-3.78,3.62,11.32,11.32,0,0,1-5.35,1.26A11.08,11.08,0,0,1,294.92,584.54Zm8.32-5.36a6.23,6.23,0,0,0,0-7.42,4.11,4.11,0,0,0-6,0,6.48,6.48,0,0,0,0,7.44,3.78,3.78,0,0,0,2.93,1.29A4,4,0,0,0,303.24,579.18Z"/><path class="cls-3" d="M331.89,567.5a8.91,8.91,0,0,1,2.11,6.28v11.73h-6.12v-10.9a4.41,4.41,0,0,0-1.05-3.14,4.1,4.1,0,0,0-5.61,0,4.41,4.41,0,0,0-1.05,3.14v10.9H314V565.43h6.15v2.66a6.61,6.61,0,0,1,2.52-2.11,8.13,8.13,0,0,1,3.57-.77A7.26,7.26,0,0,1,331.89,567.5Z"/><path class="cls-3" d="M357.11,577H343.18a4.2,4.2,0,0,0,1.2,2.86,3.69,3.69,0,0,0,2.61,1,3.24,3.24,0,0,0,3.21-1.95h6.55a9,9,0,0,1-5.11,6,10.6,10.6,0,0,1-4.43.9,10.8,10.8,0,0,1-5.26-1.26,9,9,0,0,1-3.6-3.6,12.28,12.28,0,0,1,0-10.94,8.81,8.81,0,0,1,3.58-3.6,11.67,11.67,0,0,1,10.47,0,8.77,8.77,0,0,1,3.55,3.49,10.66,10.66,0,0,1,1.28,5.3A16.37,16.37,0,0,1,357.11,577Zm-5.76-16.67-8.68,3.63v-4.24l8.68-4.18Zm-.43,13.25a3.15,3.15,0,0,0-1.08-2.52,4,4,0,0,0-2.7-.94,3.91,3.91,0,0,0-2.61.9,4,4,0,0,0-1.32,2.56Z"/><path class="cls-3" d="M379.29,577H365.35a4.21,4.21,0,0,0,1.21,2.86,3.69,3.69,0,0,0,2.61,1,3.23,3.23,0,0,0,3.2-1.95h6.56a9,9,0,0,1-5.12,6,10.55,10.55,0,0,1-4.42.9,10.8,10.8,0,0,1-5.26-1.26,8.91,8.91,0,0,1-3.6-3.6,12.24,12.24,0,0,1,0-10.94,8.87,8.87,0,0,1,3.58-3.6,11.69,11.69,0,0,1,10.48,0,8.89,8.89,0,0,1,3.55,3.49,10.66,10.66,0,0,1,1.27,5.3A16.28,16.28,0,0,1,379.29,577Zm-6.2-3.42A3.15,3.15,0,0,0,372,571a4,4,0,0,0-2.7-.94,3.91,3.91,0,0,0-2.61.9,4,4,0,0,0-1.31,2.56Z"/><path class="cls-3" d="M386.12,584.9a8.13,8.13,0,0,1-3.24-2.46,6.57,6.57,0,0,1-1.33-3.51h6.09a2.32,2.32,0,0,0,1,1.69,3.45,3.45,0,0,0,2.12.65,3,3,0,0,0,1.78-.45,1.39,1.39,0,0,0,.64-1.17,1.36,1.36,0,0,0-.9-1.28,18.71,18.71,0,0,0-2.92-.92,28.36,28.36,0,0,1-3.6-1.06,6.1,6.1,0,0,1-2.48-1.77,4.77,4.77,0,0,1-1.05-3.25,5.47,5.47,0,0,1,1-3.15A6.37,6.37,0,0,1,386,566a10.65,10.65,0,0,1,4.41-.83,8.83,8.83,0,0,1,6,1.87,7.26,7.26,0,0,1,2.5,5h-5.68a2.5,2.5,0,0,0-.92-1.66,3.2,3.2,0,0,0-2-.61,2.83,2.83,0,0,0-1.65.41,1.33,1.33,0,0,0-.58,1.14,1.38,1.38,0,0,0,.92,1.29,14.69,14.69,0,0,0,2.86.87,31.23,31.23,0,0,1,3.64,1.13,6.27,6.27,0,0,1,2.46,1.8,5.07,5.07,0,0,1,1.1,3.33,5.27,5.27,0,0,1-1,3.15,6.54,6.54,0,0,1-2.84,2.18,10.87,10.87,0,0,1-4.31.79A11.56,11.56,0,0,1,386.12,584.9Z"/><path class="cls-3" d="M403,570.2a3.09,3.09,0,0,1-1-2.36,3.15,3.15,0,0,1,1-2.41,3.67,3.67,0,0,1,2.64-1,3.63,3.63,0,0,1,2.61,1,3.19,3.19,0,0,1,1,2.41,3.13,3.13,0,0,1-1,2.36,3.69,3.69,0,0,1-2.61.95A3.73,3.73,0,0,1,403,570.2Zm0,14.65a3.08,3.08,0,0,1-1-2.36,3.17,3.17,0,0,1,1-2.41,3.66,3.66,0,0,1,2.64-1,3.62,3.62,0,0,1,2.61,1,3.2,3.2,0,0,1,1,2.41,3.11,3.11,0,0,1-1,2.36,3.69,3.69,0,0,1-2.61.95A3.73,3.73,0,0,1,403,584.85Z"/><path class="cls-3" d="M85.38,829.24v15.12a5,5,0,0,0,1.11,3.49,4.22,4.22,0,0,0,3.28,1.23,4.32,4.32,0,0,0,3.31-1.23,4.88,4.88,0,0,0,1.15-3.49V829.24h6.16v15.09A10.72,10.72,0,0,1,99,850.05a9.21,9.21,0,0,1-3.87,3.53,12.21,12.21,0,0,1-5.42,1.19,11.91,11.91,0,0,1-5.35-1.17,8.72,8.72,0,0,1-3.72-3.53,11.29,11.29,0,0,1-1.37-5.74V829.24Z"/><path class="cls-3" d="M120.19,854.51,115,846.77l-4.54,7.74h-7l8.1-12.85-8.28-12.42h7.16l5.08,7.63,4.46-7.63h7L119,842l8.35,12.52Z"/><path class="cls-3" d="M137.07,848.83l-4,10.33h-3.93l2.09-10.33Z"/><path class="cls-3" d="M154.46,829.24v15.12a5,5,0,0,0,1.12,3.49,4.18,4.18,0,0,0,3.27,1.23,4.32,4.32,0,0,0,3.31-1.23,4.88,4.88,0,0,0,1.16-3.49V829.24h6.15v15.09a10.72,10.72,0,0,1-1.44,5.72,9.21,9.21,0,0,1-3.87,3.53,12.21,12.21,0,0,1-5.42,1.19,11.84,11.84,0,0,1-5.34-1.17,8.75,8.75,0,0,1-3.73-3.53,11.29,11.29,0,0,1-1.37-5.74V829.24Z"/><path class="cls-3" d="M180,829.24v25.27h-6.16V829.24Z"/><path class="cls-3" d="M208.49,830.83a11.2,11.2,0,0,1,4.63,4.44,14.1,14.1,0,0,1,0,13.2,11.27,11.27,0,0,1-4.64,4.46,14.71,14.71,0,0,1-7,1.58H192V829.24h9.47A14.64,14.64,0,0,1,208.49,830.83Zm-1.94,16.45a7.2,7.2,0,0,0,1.94-5.4,6.74,6.74,0,0,0-7.38-7.38H198.2v14.69h2.91A7.45,7.45,0,0,0,206.55,847.28Z"/><path class="cls-3" d="M237,846H223.11a4.21,4.21,0,0,0,1.21,2.86,3.66,3.66,0,0,0,2.61,1,3.23,3.23,0,0,0,3.2-1.95h6.55a8.92,8.92,0,0,1-1.82,3.57,9.09,9.09,0,0,1-3.29,2.48,10.6,10.6,0,0,1-4.43.9,10.73,10.73,0,0,1-5.25-1.26,8.91,8.91,0,0,1-3.6-3.6,11,11,0,0,1-1.3-5.47,11.25,11.25,0,0,1,1.28-5.47,8.81,8.81,0,0,1,3.58-3.6,11.69,11.69,0,0,1,10.48,0,8.81,8.81,0,0,1,3.54,3.49,10.66,10.66,0,0,1,1.28,5.3A16.37,16.37,0,0,1,237,846Zm-6.19-3.42a3.15,3.15,0,0,0-1.08-2.52,4,4,0,0,0-2.7-.94,3.77,3.77,0,0,0-3.92,3.46Z"/><path class="cls-3" d="M243.88,853.9a8,8,0,0,1-3.24-2.46,6.57,6.57,0,0,1-1.33-3.51h6.08a2.37,2.37,0,0,0,1,1.69,3.43,3.43,0,0,0,2.12.65,3,3,0,0,0,1.78-.45,1.38,1.38,0,0,0,.63-1.17,1.34,1.34,0,0,0-.9-1.28,18.16,18.16,0,0,0-2.91-.92,28.36,28.36,0,0,1-3.6-1.06,6.2,6.2,0,0,1-2.49-1.77,4.77,4.77,0,0,1-1-3.25,5.54,5.54,0,0,1,.95-3.15,6.4,6.4,0,0,1,2.81-2.25,10.62,10.62,0,0,1,4.41-.83,8.85,8.85,0,0,1,6,1.87,7.3,7.3,0,0,1,2.5,5H250.9a2.42,2.42,0,0,0-.92-1.66,3.15,3.15,0,0,0-2-.61,2.89,2.89,0,0,0-1.66.41,1.34,1.34,0,0,0-.57,1.14,1.37,1.37,0,0,0,.92,1.29,14.47,14.47,0,0,0,2.86.87,30.39,30.39,0,0,1,3.63,1.13,6.23,6.23,0,0,1,2.47,1.8,5.12,5.12,0,0,1,1.1,3.33,5.27,5.27,0,0,1-1,3.15,6.52,6.52,0,0,1-2.85,2.18,10.82,10.82,0,0,1-4.3.79A11.56,11.56,0,0,1,243.88,853.9Z"/><path class="cls-3" d="M260.93,831.38a3.06,3.06,0,0,1-1-2.35,3.13,3.13,0,0,1,1-2.4,3.73,3.73,0,0,1,2.64-1,3.69,3.69,0,0,1,2.61,1,3.13,3.13,0,0,1,1,2.4,3.06,3.06,0,0,1-1,2.35,3.66,3.66,0,0,1-2.61,1A3.7,3.7,0,0,1,260.93,831.38Zm5.7,3v20.08h-6.15V834.43Z"/><path class="cls-3" d="M282.46,835a6.37,6.37,0,0,1,2.46,2.27v-2.84h6.16v20.05a11.31,11.31,0,0,1-1.1,5,8.37,8.37,0,0,1-3.35,3.58,10.8,10.8,0,0,1-5.6,1.33,11.66,11.66,0,0,1-7.23-2.1,8,8,0,0,1-3.17-5.71h6.08a3,3,0,0,0,1.37,1.82,5,5,0,0,0,2.67.66,4.2,4.2,0,0,0,3-1.09,4.76,4.76,0,0,0,1.13-3.51v-2.85a6.86,6.86,0,0,1-2.48,2.29,7.49,7.49,0,0,1-3.71.88,8.15,8.15,0,0,1-4.5-1.28,8.78,8.78,0,0,1-3.19-3.63,12.12,12.12,0,0,1-1.17-5.46A12,12,0,0,1,271,839a8.69,8.69,0,0,1,3.19-3.6,8.3,8.3,0,0,1,4.5-1.26A7.81,7.81,0,0,1,282.46,835Zm1.18,5.83a4.31,4.31,0,0,0-6.22,0,4.92,4.92,0,0,0-1.28,3.61,5.07,5.07,0,0,0,1.28,3.66,4.12,4.12,0,0,0,3.11,1.35,4.17,4.17,0,0,0,3.11-1.33,5.82,5.82,0,0,0,0-7.28Z"/><path class="cls-3" d="M313.42,836.5a8.91,8.91,0,0,1,2.1,6.28v11.73H309.4v-10.9a4.46,4.46,0,0,0-1-3.14,4.11,4.11,0,0,0-5.62,0,4.41,4.41,0,0,0-1,3.14v10.9h-6.16V834.43h6.16v2.66a6.46,6.46,0,0,1,2.52-2.11,8.06,8.06,0,0,1,3.56-.77A7.3,7.3,0,0,1,313.42,836.5Z"/><path class="cls-3" d="M320,839.2a3.13,3.13,0,0,1-1-2.36,3.19,3.19,0,0,1,1-2.41,3.68,3.68,0,0,1,2.64-1,3.63,3.63,0,0,1,2.61,1,3.15,3.15,0,0,1,1,2.41,3.09,3.09,0,0,1-1,2.36,3.69,3.69,0,0,1-2.61.95A3.75,3.75,0,0,1,320,839.2Zm0,14.65a3.11,3.11,0,0,1-1-2.36,3.2,3.2,0,0,1,1-2.41,3.68,3.68,0,0,1,2.64-1,3.62,3.62,0,0,1,2.61,1,3.17,3.17,0,0,1,1,2.41,3.08,3.08,0,0,1-1,2.36,3.69,3.69,0,0,1-2.61.95A3.75,3.75,0,0,1,320,853.85Z"/><path class="cls-3" d="M726.76,236H732v1.19h-6.74V222.55h1.47Z"/><path class="cls-3" d="M734.16,228.37a5.1,5.1,0,0,1,2-2.06,5.59,5.59,0,0,1,2.83-.72,5.08,5.08,0,0,1,2.82.76,4.34,4.34,0,0,1,1.71,1.93v-2.52H745v11.46h-1.48v-2.54a4.56,4.56,0,0,1-1.73,1.95,5.08,5.08,0,0,1-2.82.76,5.45,5.45,0,0,1-2.81-.73,5.15,5.15,0,0,1-2-2.08,6.6,6.6,0,0,1-.7-3.11A6.53,6.53,0,0,1,734.16,228.37Zm8.75.69a4,4,0,0,0-1.55-1.62,4.17,4.17,0,0,0-2.15-.57,4.28,4.28,0,0,0-2.18.55,3.8,3.8,0,0,0-1.52,1.58,5.09,5.09,0,0,0-.56,2.47,5.14,5.14,0,0,0,.56,2.47,3.91,3.91,0,0,0,1.52,1.62,4.28,4.28,0,0,0,2.18.55,4.17,4.17,0,0,0,2.15-.57,4,4,0,0,0,1.55-1.61,5.57,5.57,0,0,0,0-4.87Z"/><path class="cls-3" d="M757,226.82a4.92,4.92,0,0,1,1.3,3.68v6.72h-1.45v-6.55a4,4,0,0,0-.93-2.85,3.33,3.33,0,0,0-2.55-1,3.46,3.46,0,0,0-2.65,1,4.35,4.35,0,0,0-1,3.09v6.25H748.3V225.76h1.47v2a3.83,3.83,0,0,1,1.58-1.61,4.83,4.83,0,0,1,2.33-.55A4.6,4.6,0,0,1,757,226.82Z"/><path class="cls-3" d="M769.22,226.35a4.37,4.37,0,0,1,1.72,1.91v-2.5h1.47v11.76a5.65,5.65,0,0,1-.68,2.79,4.71,4.71,0,0,1-1.9,1.88,5.73,5.73,0,0,1-2.77.66,6.15,6.15,0,0,1-3.67-1,4.42,4.42,0,0,1-1.81-2.85H763a3.58,3.58,0,0,0,1.43,1.91,4.62,4.62,0,0,0,2.6.71,4.21,4.21,0,0,0,2-.47,3.41,3.41,0,0,0,1.39-1.4,4.53,4.53,0,0,0,.5-2.18v-2.84a4.56,4.56,0,0,1-1.73,1.95,5.06,5.06,0,0,1-2.8.76,5.5,5.5,0,0,1-2.83-.73,5.15,5.15,0,0,1-2-2.08,6.6,6.6,0,0,1-.7-3.11,6.53,6.53,0,0,1,.7-3.1,5.1,5.1,0,0,1,2-2.06,5.59,5.59,0,0,1,2.83-.72A5.12,5.12,0,0,1,769.22,226.35Zm1.16,2.71a4.1,4.1,0,0,0-1.55-1.62,4.19,4.19,0,0,0-2.15-.57,4.28,4.28,0,0,0-2.18.55A3.82,3.82,0,0,0,763,229a5.2,5.2,0,0,0-.55,2.47,5.26,5.26,0,0,0,.55,2.47,3.93,3.93,0,0,0,1.53,1.62,4.28,4.28,0,0,0,2.18.55,4.19,4.19,0,0,0,2.15-.57,4,4,0,0,0,1.55-1.61,5.57,5.57,0,0,0,0-4.87Z"/><path class="cls-3" d="M775.8,228.37a5.06,5.06,0,0,1,2-2.06,5.53,5.53,0,0,1,2.82-.72,5.12,5.12,0,0,1,2.83.76,4.34,4.34,0,0,1,1.71,1.93v-2.52h1.47v11.46h-1.47v-2.54a4.58,4.58,0,0,1-1.74,1.95,5.08,5.08,0,0,1-2.82.76,5.39,5.39,0,0,1-2.8-.73,5.11,5.11,0,0,1-2-2.08,6.6,6.6,0,0,1-.7-3.11A6.53,6.53,0,0,1,775.8,228.37Zm8.75.69a4.08,4.08,0,0,0-1.54-1.62,4.2,4.2,0,0,0-2.16-.57,4.28,4.28,0,0,0-2.18.55,3.86,3.86,0,0,0-1.52,1.58,5.2,5.2,0,0,0-.56,2.47,5.26,5.26,0,0,0,.56,2.47,4,4,0,0,0,1.52,1.62,4.28,4.28,0,0,0,2.18.55,4.2,4.2,0,0,0,2.16-.57,4,4,0,0,0,1.54-1.61,5.49,5.49,0,0,0,0-4.87Z"/><path class="cls-3" d="M797.57,226.35a4.37,4.37,0,0,1,1.72,1.91v-2.5h1.47v11.76a5.65,5.65,0,0,1-.68,2.79,4.77,4.77,0,0,1-1.9,1.88,5.73,5.73,0,0,1-2.77.66,6.13,6.13,0,0,1-3.67-1,4.42,4.42,0,0,1-1.81-2.85h1.45a3.58,3.58,0,0,0,1.43,1.91,4.59,4.59,0,0,0,2.6.71,4.21,4.21,0,0,0,2-.47,3.41,3.41,0,0,0,1.39-1.4,4.53,4.53,0,0,0,.5-2.18v-2.84a4.56,4.56,0,0,1-1.73,1.95,5.06,5.06,0,0,1-2.8.76,5.47,5.47,0,0,1-2.83-.73,5.15,5.15,0,0,1-1.95-2.08,6.6,6.6,0,0,1-.71-3.11,6.53,6.53,0,0,1,.71-3.1,5.1,5.1,0,0,1,1.95-2.06,5.57,5.57,0,0,1,2.83-.72A5.12,5.12,0,0,1,797.57,226.35Zm1.15,2.71a4,4,0,0,0-1.54-1.62,4.19,4.19,0,0,0-2.15-.57,4.34,4.34,0,0,0-2.19.55,3.86,3.86,0,0,0-1.52,1.58,5.2,5.2,0,0,0-.55,2.47,5.26,5.26,0,0,0,.55,2.47,4,4,0,0,0,1.52,1.62,4.34,4.34,0,0,0,2.19.55,4.19,4.19,0,0,0,2.15-.57,3.92,3.92,0,0,0,1.54-1.61,5.49,5.49,0,0,0,0-4.87Z"/><path class="cls-3" d="M814.45,232.06h-9.51a4.52,4.52,0,0,0,.63,2.22,3.71,3.71,0,0,0,1.49,1.4,4.32,4.32,0,0,0,2,.47,4,4,0,0,0,2.4-.69,3.23,3.23,0,0,0,1.29-1.87h1.56a4.82,4.82,0,0,1-1.8,2.74,5.46,5.46,0,0,1-3.45,1.06,5.8,5.8,0,0,1-2.9-.72,5.18,5.18,0,0,1-2-2.06,6.47,6.47,0,0,1-.72-3.12,6.66,6.66,0,0,1,.71-3.13,5,5,0,0,1,2-2.06,6,6,0,0,1,2.92-.71,5.64,5.64,0,0,1,2.86.71,4.94,4.94,0,0,1,1.89,1.93,5.35,5.35,0,0,1,.67,2.67A10.89,10.89,0,0,1,814.45,232.06Zm-2-3.38a3.5,3.5,0,0,0-1.46-1.37,4.44,4.44,0,0,0-2-.46,4,4,0,0,0-2.79,1.05,4.18,4.18,0,0,0-1.28,3H813A4,4,0,0,0,812.49,228.68Z"/><path class="cls-3" d="M823.21,226a6.9,6.9,0,0,1,2.58-2.67,7.21,7.21,0,0,1,3.66-1,7.48,7.48,0,0,1,4.21,1.16,6.64,6.64,0,0,1,2.55,3.29h-1.72a5.07,5.07,0,0,0-1.92-2.33,5.59,5.59,0,0,0-3.12-.84,5.68,5.68,0,0,0-2.91.75,5.29,5.29,0,0,0-2,2.18,7.73,7.73,0,0,0,0,6.56,5.24,5.24,0,0,0,2,2.16,5.59,5.59,0,0,0,2.91.76,5.67,5.67,0,0,0,3.12-.83,5,5,0,0,0,1.92-2.3h1.72a6.58,6.58,0,0,1-2.56,3.26,7.51,7.51,0,0,1-4.2,1.15,7.21,7.21,0,0,1-3.66-.95,6.94,6.94,0,0,1-2.58-2.66,8.44,8.44,0,0,1,0-7.74Z"/><path class="cls-3" d="M840.47,234.79l-2.18,5.5h-1l1.55-5.5Z"/><path class="cls-3" d="M848.79,226a6.9,6.9,0,0,1,2.58-2.67,7.17,7.17,0,0,1,3.65-1,7.51,7.51,0,0,1,4.22,1.16,6.75,6.75,0,0,1,2.55,3.29h-1.73a5.07,5.07,0,0,0-1.92-2.33,5.59,5.59,0,0,0-3.12-.84,5.67,5.67,0,0,0-2.9.75,5.22,5.22,0,0,0-2,2.18,7.64,7.64,0,0,0,0,6.56,5.17,5.17,0,0,0,2,2.16,5.58,5.58,0,0,0,2.9.76,5.67,5.67,0,0,0,3.12-.83,5,5,0,0,0,1.92-2.3h1.73a6.6,6.6,0,0,1-2.57,3.26,7.46,7.46,0,0,1-4.2,1.15,7.17,7.17,0,0,1-3.65-.95,6.94,6.94,0,0,1-2.58-2.66,8.36,8.36,0,0,1,0-7.74Z"/><path class="cls-3" d="M875.27,230.08h-4.68v4.73h-1.37v-4.73h-4.66v-1.26h4.66V224.1h1.37v4.72h4.68Z"/><path class="cls-3" d="M889,230.08h-4.68v4.73H883v-4.73h-4.67v-1.26H883V224.1h1.36v4.72H889Z"/><path class="cls-3" d="M893.56,234.79l-2.18,5.5h-1l1.55-5.5Z"/><path class="cls-3" d="M732.07,247.75v11.1a3.6,3.6,0,0,1-1,2.7,3.72,3.72,0,0,1-2.75,1,3.78,3.78,0,0,1-2.84-1.08,4,4,0,0,1-1.06-2.93h1.49a3.15,3.15,0,0,0,.6,1.95,2.55,2.55,0,0,0,3.56.07,2.7,2.7,0,0,0,.56-1.73v-11.1Z"/><path class="cls-3" d="M744.27,258.94h-6.68l-1.28,3.48h-1.55l5.36-14.49h1.65l5.34,14.49h-1.56Zm-.44-1.22-2.9-7.94L738,257.72Z"/><path class="cls-3" d="M761.09,247.75l-5.56,14.67h-1.68l-5.57-14.67h1.6l4.81,13.08,4.85-13.08Z"/><path class="cls-3" d="M771.8,258.94h-6.67l-1.29,3.48h-1.55l5.36-14.49h1.65l5.34,14.49h-1.56Zm-.44-1.22-2.9-7.94-2.89,7.94Z"/><path class="cls-3" d="M778.33,260l-2.18,5.5h-1l1.56-5.5Z"/><path class="cls-3" d="M794.88,258.94H788.2l-1.28,3.48h-1.55l5.35-14.49h1.66l5.34,14.49h-1.56Zm-.44-1.22-2.9-7.94-2.89,7.94Z"/><path class="cls-3" d="M808.8,252a4.92,4.92,0,0,1,1.31,3.68v6.72h-1.45v-6.55a4,4,0,0,0-.94-2.85,3.33,3.33,0,0,0-2.55-1,3.44,3.44,0,0,0-2.64,1.05,4.35,4.35,0,0,0-1,3.09v6.25h-1.47V251h1.47v1.95a3.73,3.73,0,0,1,1.57-1.6,4.76,4.76,0,0,1,2.34-.56A4.56,4.56,0,0,1,808.8,252Z"/><path class="cls-3" d="M813.4,253.57a5.06,5.06,0,0,1,2-2,5.44,5.44,0,0,1,2.82-.73,5.17,5.17,0,0,1,2.73.74,4.5,4.5,0,0,1,1.79,1.91v-6.56h1.47v15.54h-1.47v-2.56a4.46,4.46,0,0,1-1.72,2,5.13,5.13,0,0,1-2.82.76,5.44,5.44,0,0,1-2.82-.73,5.11,5.11,0,0,1-2-2.08,6.6,6.6,0,0,1-.7-3.11A6.53,6.53,0,0,1,813.4,253.57Zm8.74.69a4.08,4.08,0,0,0-1.54-1.62,4.2,4.2,0,0,0-2.16-.57,4.28,4.28,0,0,0-2.18.55,3.86,3.86,0,0,0-1.52,1.58,5.2,5.2,0,0,0-.56,2.47,5.26,5.26,0,0,0,.56,2.47,4,4,0,0,0,1.52,1.62,4.28,4.28,0,0,0,2.18.55,4.2,4.2,0,0,0,2.16-.57,4,4,0,0,0,1.54-1.61,5.49,5.49,0,0,0,0-4.87Z"/><path class="cls-3" d="M830.49,251.34a4.64,4.64,0,0,1,2.44-.59v1.53h-.39A3.22,3.22,0,0,0,829,256v6.4h-1.47V251H829v2A3.52,3.52,0,0,1,830.49,251.34Z"/><path class="cls-3" d="M837.25,261.87a5.25,5.25,0,0,1-2-2.06,6.91,6.91,0,0,1,0-6.24,5.27,5.27,0,0,1,2.06-2,5.83,5.83,0,0,1,2.92-.73,5.9,5.9,0,0,1,2.93.73,5.21,5.21,0,0,1,2.06,2,6.37,6.37,0,0,1,.74,3.12,6.28,6.28,0,0,1-.75,3.11,5.24,5.24,0,0,1-2.08,2.07,6,6,0,0,1-2.94.72A5.87,5.87,0,0,1,837.25,261.87Zm5-1.07a4,4,0,0,0,1.56-1.56,5,5,0,0,0,.6-2.55,5.12,5.12,0,0,0-.59-2.55,3.85,3.85,0,0,0-1.55-1.55,4.36,4.36,0,0,0-2.1-.52,4.3,4.3,0,0,0-2.1.52,3.71,3.71,0,0,0-1.54,1.55,5.9,5.9,0,0,0,0,5.1,3.77,3.77,0,0,0,1.53,1.56,4.37,4.37,0,0,0,2.09.51A4.46,4.46,0,0,0,842.26,260.8Z"/><path class="cls-3" d="M848.6,248.48a1.06,1.06,0,0,1-.31-.78,1,1,0,0,1,.31-.76,1.08,1.08,0,0,1,1.83.76,1.06,1.06,0,0,1-.32.78,1.05,1.05,0,0,1-1.51,0Zm1.49,2.48v11.46h-1.47V251Z"/><path class="cls-3" d="M853.47,253.57a5.1,5.1,0,0,1,2-2,5.5,5.5,0,0,1,2.83-.73,5.17,5.17,0,0,1,2.73.74,4.41,4.41,0,0,1,1.78,1.91v-6.56h1.47v15.54h-1.47v-2.56a4.4,4.4,0,0,1-1.72,2,5.1,5.1,0,0,1-2.81.76,5.5,5.5,0,0,1-2.83-.73,5.15,5.15,0,0,1-1.95-2.08,6.6,6.6,0,0,1-.7-3.11A6.53,6.53,0,0,1,853.47,253.57Zm8.74.69a4.1,4.1,0,0,0-1.55-1.62,4.19,4.19,0,0,0-2.15-.57,4.28,4.28,0,0,0-2.18.55,3.89,3.89,0,0,0-1.53,1.58,5.2,5.2,0,0,0-.55,2.47,5.26,5.26,0,0,0,.55,2.47,4,4,0,0,0,1.53,1.62,4.28,4.28,0,0,0,2.18.55,4.19,4.19,0,0,0,2.15-.57,4,4,0,0,0,1.55-1.61,5.57,5.57,0,0,0,0-4.87Z"/><path class="cls-3" d="M751.1,592.54l-4.16,14.68H745.3l-3.69-12.51-3.78,12.51-1.6,0-4.07-14.71h1.57l3.36,12.88,3.76-12.88h1.64l3.65,12.88,3.38-12.88Z"/><path class="cls-3" d="M755.45,606.67a5.22,5.22,0,0,1-2-2.06,6.26,6.26,0,0,1-.75-3.12,6.16,6.16,0,0,1,.76-3.12,5.3,5.3,0,0,1,2.06-2.06,6.28,6.28,0,0,1,5.84,0,5.17,5.17,0,0,1,2.06,2.06,6.26,6.26,0,0,1,.75,3.12,6.18,6.18,0,0,1-.76,3.11,5.24,5.24,0,0,1-2.08,2.07,6,6,0,0,1-2.94.72A5.89,5.89,0,0,1,755.45,606.67Zm5-1.07A3.92,3.92,0,0,0,762,604a5,5,0,0,0,.6-2.55,5.12,5.12,0,0,0-.59-2.55,3.81,3.81,0,0,0-1.56-1.55,4.3,4.3,0,0,0-2.1-.52,4.36,4.36,0,0,0-2.1.52,3.77,3.77,0,0,0-1.54,1.55,5.9,5.9,0,0,0,0,5.1,3.83,3.83,0,0,0,1.53,1.56,4.56,4.56,0,0,0,4.19,0Z"/><path class="cls-3" d="M769.78,596.14a4.64,4.64,0,0,1,2.44-.59v1.53h-.4a3.22,3.22,0,0,0-3.52,3.74v6.4h-1.47V595.76h1.47v2A3.54,3.54,0,0,1,769.78,596.14Z"/><path class="cls-3" d="M774.47,598.37a5.19,5.19,0,0,1,2-2.06,5.59,5.59,0,0,1,2.83-.72,5.17,5.17,0,0,1,2.73.74,4.47,4.47,0,0,1,1.78,1.91v-6.56h1.47v15.54h-1.47v-2.56a4.4,4.4,0,0,1-1.72,2,5.12,5.12,0,0,1-2.81.76,5.5,5.5,0,0,1-2.83-.73,5.15,5.15,0,0,1-1.95-2.08,6.6,6.6,0,0,1-.7-3.11A6.42,6.42,0,0,1,774.47,598.37Zm8.74.69a4.1,4.1,0,0,0-1.55-1.62,4.19,4.19,0,0,0-2.15-.57,4.28,4.28,0,0,0-2.18.55A3.82,3.82,0,0,0,775.8,599a5.2,5.2,0,0,0-.55,2.47,5.26,5.26,0,0,0,.55,2.47,3.9,3.9,0,0,0,1.53,1.61,4.43,4.43,0,0,0,4.33,0,4,4,0,0,0,1.55-1.61,5.57,5.57,0,0,0,0-4.87Z"/><path class="cls-3" d="M791.78,596.36a5.15,5.15,0,0,1,2.83-.77,5.51,5.51,0,0,1,2.8.72,5.06,5.06,0,0,1,2,2.06,6.65,6.65,0,0,1,.7,3.1,6.72,6.72,0,0,1-.7,3.11,5.11,5.11,0,0,1-2,2.08,5.42,5.42,0,0,1-2.8.73,5.13,5.13,0,0,1-2.82-.76,4.72,4.72,0,0,1-1.74-1.93v7.94H788.6V595.76h1.45v2.52A4.67,4.67,0,0,1,791.78,596.36ZM798,599a3.86,3.86,0,0,0-1.52-1.58,4.32,4.32,0,0,0-2.19-.55,4.19,4.19,0,0,0-2.15.57,4.08,4.08,0,0,0-1.54,1.62,5.49,5.49,0,0,0,0,4.87,4,4,0,0,0,1.54,1.61,4.45,4.45,0,0,0,4.34,0,3.94,3.94,0,0,0,1.52-1.61,5.26,5.26,0,0,0,.56-2.47A5.2,5.2,0,0,0,798,599Z"/><path class="cls-3" d="M805.73,596.14a4.64,4.64,0,0,1,2.44-.59v1.53h-.39a3.22,3.22,0,0,0-3.53,3.74v6.4h-1.47V595.76h1.47v2A3.54,3.54,0,0,1,805.73,596.14Z"/><path class="cls-3" d="M820.71,602.06H811.2a4.52,4.52,0,0,0,.63,2.22,3.64,3.64,0,0,0,1.49,1.4,4.32,4.32,0,0,0,2,.47,4,4,0,0,0,2.4-.69,3.23,3.23,0,0,0,1.29-1.87h1.56a4.86,4.86,0,0,1-1.8,2.74,5.48,5.48,0,0,1-3.45,1.06,5.8,5.8,0,0,1-2.9-.72,5.18,5.18,0,0,1-2-2.06,6.47,6.47,0,0,1-.72-3.12,6.66,6.66,0,0,1,.71-3.13,5,5,0,0,1,2-2.06,5.93,5.93,0,0,1,2.92-.71,5.64,5.64,0,0,1,2.86.71,4.94,4.94,0,0,1,1.89,1.93,5.45,5.45,0,0,1,.66,2.67A11.47,11.47,0,0,1,820.71,602.06Zm-2-3.38a3.56,3.56,0,0,0-1.46-1.37,4.44,4.44,0,0,0-2-.46,4,4,0,0,0-2.79,1,4.18,4.18,0,0,0-1.28,3h8.06A4.07,4.07,0,0,0,818.75,598.68Z"/><path class="cls-3" d="M824.17,606.48a3.32,3.32,0,0,1-1.4-2.49h1.51a2.18,2.18,0,0,0,.91,1.56,3.59,3.59,0,0,0,2.18.6,2.91,2.91,0,0,0,1.88-.56,1.78,1.78,0,0,0,.68-1.41,1.34,1.34,0,0,0-.38-1,2.6,2.6,0,0,0-.95-.59,14.81,14.81,0,0,0-1.57-.48,16.59,16.59,0,0,1-2.08-.67,3.51,3.51,0,0,1-1.35-1,2.86,2.86,0,0,1-.05-3.33A3.45,3.45,0,0,1,825,596a5,5,0,0,1,2.1-.42,4.57,4.57,0,0,1,3,.93,3.4,3.4,0,0,1,1.21,2.58H829.8a2.23,2.23,0,0,0-.78-1.63,3,3,0,0,0-2-.62,2.89,2.89,0,0,0-1.8.53,1.56,1.56,0,0,0-.7,1.3,1.54,1.54,0,0,0,.41,1.1,2.79,2.79,0,0,0,1,.67c.41.16.95.34,1.64.54a15.09,15.09,0,0,1,2,.65,3.48,3.48,0,0,1,1.26.92,2.47,2.47,0,0,1,.55,1.62,2.87,2.87,0,0,1-.5,1.65,3.49,3.49,0,0,1-1.41,1.14,4.89,4.89,0,0,1-2.08.42A5.29,5.29,0,0,1,824.17,606.48Z"/><path class="cls-3" d="M834.88,606.48a3.32,3.32,0,0,1-1.4-2.49H835a2.18,2.18,0,0,0,.91,1.56,3.59,3.59,0,0,0,2.18.6,2.91,2.91,0,0,0,1.88-.56,1.78,1.78,0,0,0,.68-1.41,1.34,1.34,0,0,0-.38-1,2.6,2.6,0,0,0-1-.59,14.81,14.81,0,0,0-1.57-.48,16.59,16.59,0,0,1-2.08-.67,3.51,3.51,0,0,1-1.35-1,2.86,2.86,0,0,1,0-3.33,3.45,3.45,0,0,1,1.42-1.13,5,5,0,0,1,2.1-.42,4.57,4.57,0,0,1,3,.93A3.4,3.4,0,0,1,842,599.1h-1.47a2.23,2.23,0,0,0-.78-1.63,3,3,0,0,0-2-.62,2.89,2.89,0,0,0-1.8.53,1.56,1.56,0,0,0-.7,1.3,1.54,1.54,0,0,0,.41,1.1,2.79,2.79,0,0,0,1,.67c.41.16,1,.34,1.64.54a15.09,15.09,0,0,1,2,.65,3.48,3.48,0,0,1,1.26.92,2.47,2.47,0,0,1,.55,1.62,2.8,2.8,0,0,1-.51,1.65,3.39,3.39,0,0,1-1.4,1.14,4.89,4.89,0,0,1-2.08.42A5.29,5.29,0,0,1,834.88,606.48Z"/><path class="cls-3" d="M846.21,604.79l-2.19,5.5h-1l1.56-5.5Z"/><path class="cls-3" d="M856.15,606.87a4.19,4.19,0,0,1-1.73-1.41,3.71,3.71,0,0,1-.68-2h1.56a2.91,2.91,0,0,0,.94,1.88,3.41,3.41,0,0,0,2.46.81,3.45,3.45,0,0,0,2.36-.76,2.5,2.5,0,0,0,.87-2,2.31,2.31,0,0,0-.48-1.52,3,3,0,0,0-1.2-.86,17,17,0,0,0-2-.62,16.46,16.46,0,0,1-2.33-.78,3.61,3.61,0,0,1-1.47-1.17,3.47,3.47,0,0,1-.61-2.17,3.6,3.6,0,0,1,.59-2,3.89,3.89,0,0,1,1.66-1.4,5.62,5.62,0,0,1,2.45-.5,5.08,5.08,0,0,1,3.29,1A3.76,3.76,0,0,1,863.3,596h-1.6a2.65,2.65,0,0,0-1-1.61,3.93,3.93,0,0,0-4.48,0,2.32,2.32,0,0,0-.88,1.92,2.21,2.21,0,0,0,.48,1.49,3.08,3.08,0,0,0,1.21.86,16.4,16.4,0,0,0,2,.63,17.31,17.31,0,0,1,2.31.79,3.84,3.84,0,0,1,1.5,1.19,3.46,3.46,0,0,1,.6,2.14,3.77,3.77,0,0,1-.54,1.95,3.91,3.91,0,0,1-1.62,1.49,5.38,5.38,0,0,1-2.56.57A6.14,6.14,0,0,1,856.15,606.87Z"/><path class="cls-3" d="M874.06,596.09a4,4,0,0,1,1.64,1.67,5.78,5.78,0,0,1,.6,2.74v6.72h-1.45v-6.55a4,4,0,0,0-.94-2.85,3.33,3.33,0,0,0-2.55-1,3.44,3.44,0,0,0-2.64,1,4.35,4.35,0,0,0-1,3.09v6.25h-1.47V591.68h1.47v6a3.75,3.75,0,0,1,1.61-1.59,4.93,4.93,0,0,1,2.38-.57A5,5,0,0,1,874.06,596.09Z"/><path class="cls-3" d="M881.66,606.67a5.22,5.22,0,0,1-2-2.06,6.26,6.26,0,0,1-.75-3.12,6.16,6.16,0,0,1,.76-3.12,5.34,5.34,0,0,1,2.05-2.06,6.3,6.3,0,0,1,5.85,0,5.23,5.23,0,0,1,2.06,2.06,6.8,6.8,0,0,1,0,6.23,5.24,5.24,0,0,1-2.08,2.07,6,6,0,0,1-2.94.72A5.87,5.87,0,0,1,881.66,606.67Zm5-1.07a3.92,3.92,0,0,0,1.57-1.56,5.85,5.85,0,0,0,0-5.1,3.88,3.88,0,0,0-1.56-1.55,4.3,4.3,0,0,0-2.1-.52,4.36,4.36,0,0,0-2.1.52,3.77,3.77,0,0,0-1.54,1.55,5.9,5.9,0,0,0,0,5.1,3.77,3.77,0,0,0,1.53,1.56,4.56,4.56,0,0,0,4.19,0Z"/><path class="cls-3" d="M896.22,596.36a5.09,5.09,0,0,1,2.82-.77,5.48,5.48,0,0,1,2.8.72,5.06,5.06,0,0,1,2,2.06,6.53,6.53,0,0,1,.7,3.1,6.6,6.6,0,0,1-.7,3.11,5.11,5.11,0,0,1-2,2.08,5.39,5.39,0,0,1-2.8.73,5.07,5.07,0,0,1-2.81-.76,4.68,4.68,0,0,1-1.75-1.93v7.94H893V595.76h1.45v2.52A4.63,4.63,0,0,1,896.22,596.36Zm6.23,2.64a3.86,3.86,0,0,0-1.52-1.58,4.28,4.28,0,0,0-2.18-.55,4.23,4.23,0,0,0-2.16.57,4.08,4.08,0,0,0-1.54,1.62,5.49,5.49,0,0,0,0,4.87,4,4,0,0,0,1.54,1.61,4.45,4.45,0,0,0,4.34,0,3.94,3.94,0,0,0,1.52-1.61,5.26,5.26,0,0,0,.56-2.47A5.2,5.2,0,0,0,902.45,599Z"/><path class="cls-3" d="M907.19,593.28a1.06,1.06,0,0,1-.32-.78,1.07,1.07,0,1,1,2.14,0,1.06,1.06,0,0,1-.31.78,1.05,1.05,0,0,1-1.51,0Zm1.49,2.48v11.46h-1.47V595.76Z"/><path class="cls-3" d="M916.53,597h-2.66v10.22H912.4V597h-1.6v-1.24h1.6V595a3.56,3.56,0,0,1,1-2.75,4.49,4.49,0,0,1,3.1-.88v1.26a3,3,0,0,0-2,.54,2.48,2.48,0,0,0-.57,1.83v.8h2.66Z"/><path class="cls-3" d="M928.29,595.76l-6.8,16.86H920l2.22-5.46-4.7-11.4h1.61l3.91,9.78,3.78-9.78Z"/><path class="cls-3" d="M112.79,882.74h-6.67l-1.29,3.48h-1.55l5.36-14.49h1.65l5.34,14.49h-1.55Zm-.44-1.22-2.89-7.94-2.9,7.94Z"/><path class="cls-3" d="M118,877.37a5.15,5.15,0,0,1,2-2.06,5.53,5.53,0,0,1,2.82-.72,5.17,5.17,0,0,1,2.73.74,4.5,4.5,0,0,1,1.79,1.91v-6.56h1.47v15.54h-1.47v-2.56a4.42,4.42,0,0,1-1.73,2,5.07,5.07,0,0,1-2.81.76,5.44,5.44,0,0,1-2.82-.73,5.11,5.11,0,0,1-2-2.08,6.6,6.6,0,0,1-.7-3.11A6.53,6.53,0,0,1,118,877.37Zm8.74.69a4.08,4.08,0,0,0-1.54-1.62,4.23,4.23,0,0,0-2.16-.57,4.28,4.28,0,0,0-2.18.55,3.86,3.86,0,0,0-1.52,1.58,5.2,5.2,0,0,0-.56,2.47,5.26,5.26,0,0,0,.56,2.47,3.94,3.94,0,0,0,1.52,1.61,4.45,4.45,0,0,0,4.34,0,4,4,0,0,0,1.54-1.61,5.49,5.49,0,0,0,0-4.87Z"/><path class="cls-3" d="M134.27,885.67a5.32,5.32,0,0,1-2-2.06,6.82,6.82,0,0,1,0-6.24,5.3,5.3,0,0,1,2.06-2.06,5.93,5.93,0,0,1,2.92-.72,6,6,0,0,1,2.93.72,5.21,5.21,0,0,1,2,2.06,6.26,6.26,0,0,1,.75,3.12,6.18,6.18,0,0,1-.76,3.11,5.22,5.22,0,0,1-2.07,2.07,6.1,6.1,0,0,1-3,.72A5.86,5.86,0,0,1,134.27,885.67Zm5-1.07a3.92,3.92,0,0,0,1.57-1.56,5,5,0,0,0,.6-2.55,5.12,5.12,0,0,0-.59-2.55,3.85,3.85,0,0,0-1.55-1.55,4.36,4.36,0,0,0-2.1-.52,4.3,4.3,0,0,0-2.1.52,3.79,3.79,0,0,0-1.55,1.55,5.9,5.9,0,0,0,0,5.1,3.9,3.9,0,0,0,1.53,1.56,4.56,4.56,0,0,0,4.19,0Z"/><path class="cls-3" d="M148.84,875.35a5.06,5.06,0,0,1,2.8-.76,5.53,5.53,0,0,1,2.82.72,5.14,5.14,0,0,1,1.94,2.06,6.53,6.53,0,0,1,.7,3.1,6.6,6.6,0,0,1-.7,3.11,5.15,5.15,0,0,1-2,2.08,5.45,5.45,0,0,1-2.81.73,5.24,5.24,0,0,1-2.82-.74,4.45,4.45,0,0,1-1.73-1.95v2.52h-1.45V870.68h1.45v6.62A4.56,4.56,0,0,1,148.84,875.35Zm6.22,2.65a3.82,3.82,0,0,0-1.53-1.58,4.28,4.28,0,0,0-2.18-.55,4.19,4.19,0,0,0-2.15.57,4.1,4.1,0,0,0-1.55,1.62,5.57,5.57,0,0,0,0,4.87,4,4,0,0,0,1.55,1.61,4.43,4.43,0,0,0,4.33,0,3.9,3.9,0,0,0,1.53-1.61,5.26,5.26,0,0,0,.55-2.47A5.2,5.2,0,0,0,155.06,878Z"/><path class="cls-3" d="M170.14,881.06h-9.51a4.52,4.52,0,0,0,.63,2.22,3.71,3.71,0,0,0,1.49,1.4,4.32,4.32,0,0,0,2,.47,4,4,0,0,0,2.4-.69,3.23,3.23,0,0,0,1.29-1.87H170a4.86,4.86,0,0,1-1.8,2.74,5.46,5.46,0,0,1-3.45,1.06,5.8,5.8,0,0,1-2.9-.72,5.15,5.15,0,0,1-2-2.06,6.37,6.37,0,0,1-.73-3.12,6.66,6.66,0,0,1,.71-3.13,5.09,5.09,0,0,1,2-2.06,6,6,0,0,1,2.92-.71,5.62,5.62,0,0,1,2.86.71,5,5,0,0,1,1.9,1.93,5.45,5.45,0,0,1,.66,2.67A10.89,10.89,0,0,1,170.14,881.06Zm-2-3.38a3.5,3.5,0,0,0-1.46-1.37,4.4,4.4,0,0,0-2-.46,4,4,0,0,0-2.8,1,4.22,4.22,0,0,0-1.28,3h8.07A4.07,4.07,0,0,0,168.18,877.68Z"/><path class="cls-3" d="M183.92,878.9l4.45,7.32h-1.64L183,880.09l-3.55,6.13h-1.64l4.43-7.39-4.43-7.29h1.64l3.71,6.12,3.59-6.12h1.64Z"/><path class="cls-3" d="M191,877.37a5.06,5.06,0,0,1,2-2.06,5.53,5.53,0,0,1,2.82-.72,5.17,5.17,0,0,1,2.73.74,4.5,4.5,0,0,1,1.79,1.91v-6.56h1.47v15.54h-1.47v-2.56a4.46,4.46,0,0,1-1.72,2,5.13,5.13,0,0,1-2.82.76,5.44,5.44,0,0,1-2.82-.73,5.11,5.11,0,0,1-2-2.08,6.6,6.6,0,0,1-.7-3.11A6.42,6.42,0,0,1,191,877.37Zm8.73.69a4.08,4.08,0,0,0-1.54-1.62,4.19,4.19,0,0,0-2.15-.57,4.29,4.29,0,0,0-2.19.55,3.86,3.86,0,0,0-1.52,1.58,5.2,5.2,0,0,0-.56,2.47,5.26,5.26,0,0,0,.56,2.47,3.94,3.94,0,0,0,1.52,1.61,4.45,4.45,0,0,0,4.34,0,4,4,0,0,0,1.54-1.61,5.49,5.49,0,0,0,0-4.87Z"/><path class="cls-3" d="M206.43,883.79l-2.18,5.5h-1l1.55-5.5Z"/><path class="cls-3" d="M112.79,907.94h-6.67l-1.29,3.48h-1.55l5.36-14.49h1.65l5.34,14.49h-1.55Zm-.44-1.22-2.89-7.94-2.9,7.94Z"/><path class="cls-3" d="M118,902.57a5.15,5.15,0,0,1,2-2.06,5.53,5.53,0,0,1,2.82-.72,5.17,5.17,0,0,1,2.73.74,4.5,4.5,0,0,1,1.79,1.91v-6.56h1.47v15.54h-1.47v-2.56a4.42,4.42,0,0,1-1.73,2,5.07,5.07,0,0,1-2.81.76,5.44,5.44,0,0,1-2.82-.73,5.11,5.11,0,0,1-2-2.08,6.6,6.6,0,0,1-.7-3.11A6.53,6.53,0,0,1,118,902.57Zm8.74.69a4.08,4.08,0,0,0-1.54-1.62,4.23,4.23,0,0,0-2.16-.57,4.28,4.28,0,0,0-2.18.55,3.86,3.86,0,0,0-1.52,1.58,5.2,5.2,0,0,0-.56,2.47,5.26,5.26,0,0,0,.56,2.47,3.94,3.94,0,0,0,1.52,1.61,4.45,4.45,0,0,0,4.34,0,4,4,0,0,0,1.54-1.61,5.49,5.49,0,0,0,0-4.87Z"/><path class="cls-3" d="M134.27,910.87a5.32,5.32,0,0,1-2-2.06,6.82,6.82,0,0,1,0-6.24,5.3,5.3,0,0,1,2.06-2.06,5.93,5.93,0,0,1,2.92-.72,6,6,0,0,1,2.93.72,5.21,5.21,0,0,1,2,2.06,6.26,6.26,0,0,1,.75,3.12,6.18,6.18,0,0,1-.76,3.11,5.22,5.22,0,0,1-2.07,2.07,6.1,6.1,0,0,1-3,.72A5.86,5.86,0,0,1,134.27,910.87Zm5-1.07a3.92,3.92,0,0,0,1.57-1.56,5,5,0,0,0,.6-2.55,5.12,5.12,0,0,0-.59-2.55,3.85,3.85,0,0,0-1.55-1.55,4.36,4.36,0,0,0-2.1-.52,4.3,4.3,0,0,0-2.1.52,3.79,3.79,0,0,0-1.55,1.55,5.9,5.9,0,0,0,0,5.1,3.9,3.9,0,0,0,1.53,1.56,4.56,4.56,0,0,0,4.19,0Z"/><path class="cls-3" d="M148.84,900.55a5.06,5.06,0,0,1,2.8-.76,5.53,5.53,0,0,1,2.82.72,5.14,5.14,0,0,1,1.94,2.06,6.53,6.53,0,0,1,.7,3.1,6.6,6.6,0,0,1-.7,3.11,5.15,5.15,0,0,1-2,2.08,5.45,5.45,0,0,1-2.81.73,5.24,5.24,0,0,1-2.82-.74,4.45,4.45,0,0,1-1.73-2v2.52h-1.45V895.88h1.45v6.62A4.56,4.56,0,0,1,148.84,900.55Zm6.22,2.65a3.82,3.82,0,0,0-1.53-1.58,4.28,4.28,0,0,0-2.18-.55,4.19,4.19,0,0,0-2.15.57,4.1,4.1,0,0,0-1.55,1.62,5.57,5.57,0,0,0,0,4.87,4,4,0,0,0,1.55,1.61,4.43,4.43,0,0,0,4.33,0,3.9,3.9,0,0,0,1.53-1.61,5.26,5.26,0,0,0,.55-2.47A5.2,5.2,0,0,0,155.06,903.2Z"/><path class="cls-3" d="M170.14,906.26h-9.51a4.52,4.52,0,0,0,.63,2.22,3.71,3.71,0,0,0,1.49,1.4,4.32,4.32,0,0,0,2,.47,4,4,0,0,0,2.4-.69,3.23,3.23,0,0,0,1.29-1.87H170a4.82,4.82,0,0,1-1.8,2.74,5.46,5.46,0,0,1-3.45,1.06,5.8,5.8,0,0,1-2.9-.72,5.15,5.15,0,0,1-2-2.06,6.37,6.37,0,0,1-.73-3.12,6.66,6.66,0,0,1,.71-3.13,5.09,5.09,0,0,1,2-2.06,6,6,0,0,1,2.92-.71,5.62,5.62,0,0,1,2.86.71,5,5,0,0,1,1.9,1.93,5.45,5.45,0,0,1,.66,2.67A10.89,10.89,0,0,1,170.14,906.26Zm-2-3.38a3.5,3.5,0,0,0-1.46-1.37,4.53,4.53,0,0,0-2-.46,4,4,0,0,0-2.8,1.05,4.22,4.22,0,0,0-1.28,3h8.07A4.07,4.07,0,0,0,168.18,902.88Z"/><path class="cls-3" d="M180.1,896.75v14.67h-1.47V896.75Z"/><path class="cls-3" d="M184.91,895.88v15.54h-1.47V895.88Z"/><path class="cls-3" d="M198.18,900v11.46h-1.47v-2a3.59,3.59,0,0,1-1.56,1.64,4.94,4.94,0,0,1-2.35.56,4.6,4.6,0,0,1-3.36-1.27,4.89,4.89,0,0,1-1.3-3.68V900h1.45v6.53a4,4,0,0,0,.93,2.86,3.4,3.4,0,0,0,2.56,1,3.46,3.46,0,0,0,2.64-1.05,4.34,4.34,0,0,0,1-3.08V900Z"/><path class="cls-3" d="M202.26,910.68a3.31,3.31,0,0,1-1.39-2.49h1.51a2.14,2.14,0,0,0,.91,1.56,3.59,3.59,0,0,0,2.18.6,2.82,2.82,0,0,0,1.87-.56,1.76,1.76,0,0,0,.69-1.41,1.34,1.34,0,0,0-.38-1,2.56,2.56,0,0,0-1-.59,13.83,13.83,0,0,0-1.56-.48,16.07,16.07,0,0,1-2.08-.67,3.51,3.51,0,0,1-1.35-1,2.66,2.66,0,0,1-.56-1.77,2.7,2.7,0,0,1,.5-1.56,3.55,3.55,0,0,1,1.43-1.13,5,5,0,0,1,2.1-.42,4.54,4.54,0,0,1,3,.93,3.39,3.39,0,0,1,1.22,2.58H207.9a2.21,2.21,0,0,0-.79-1.63,3.42,3.42,0,0,0-3.79-.09,1.58,1.58,0,0,0-.69,1.3A1.54,1.54,0,0,0,203,904a2.71,2.71,0,0,0,1,.67c.4.16.95.34,1.64.54a15.09,15.09,0,0,1,2,.65,3.48,3.48,0,0,1,1.26.92,2.53,2.53,0,0,1,.55,1.62A2.8,2.8,0,0,1,209,910a3.39,3.39,0,0,1-1.4,1.14,4.92,4.92,0,0,1-2.08.42A5.35,5.35,0,0,1,202.26,910.68Z"/><path class="cls-3" d="M214.16,901.2v7.12a2,2,0,0,0,.4,1.45,2,2,0,0,0,1.4.4h1.35v1.25h-1.58a3.26,3.26,0,0,1-2.31-.72,3.2,3.2,0,0,1-.75-2.38V901.2h-1.6V900h1.6v-2.88h1.49V900h3.15v1.24Z"/><path class="cls-3" d="M222.67,900.34a4.71,4.71,0,0,1,2.45-.59v1.53h-.4a3.23,3.23,0,0,0-3.53,3.74v6.4h-1.47V900h1.47v2A3.63,3.63,0,0,1,222.67,900.34Z"/><path class="cls-3" d="M227.36,902.57a5.1,5.1,0,0,1,1.95-2.06,5.53,5.53,0,0,1,2.82-.72,5.09,5.09,0,0,1,2.83.76,4.34,4.34,0,0,1,1.71,1.93V900h1.47v11.46h-1.47v-2.54a4.56,4.56,0,0,1-1.73,2,5.09,5.09,0,0,1-2.83.76,5.42,5.42,0,0,1-2.8-.73,5.15,5.15,0,0,1-1.95-2.08,6.6,6.6,0,0,1-.71-3.11A6.53,6.53,0,0,1,227.36,902.57Zm8.74.69a4,4,0,0,0-1.54-1.62,4.19,4.19,0,0,0-2.15-.57,4.34,4.34,0,0,0-2.19.55,3.86,3.86,0,0,0-1.52,1.58,5.2,5.2,0,0,0-.55,2.47,5.26,5.26,0,0,0,.55,2.47,3.94,3.94,0,0,0,1.52,1.61,4.25,4.25,0,0,0,2.19.56,4.19,4.19,0,0,0,2.15-.57,3.92,3.92,0,0,0,1.54-1.61,5.49,5.49,0,0,0,0-4.87Z"/><path class="cls-3" d="M243.41,901.2v7.12a1.51,1.51,0,0,0,1.81,1.85h1.34v1.25H245a3.23,3.23,0,0,1-2.31-.72,3.16,3.16,0,0,1-.76-2.38V901.2h-1.59V900h1.59v-2.88h1.49V900h3.15v1.24Z"/><path class="cls-3" d="M251.09,910.87a5.32,5.32,0,0,1-2-2.06,6.82,6.82,0,0,1,0-6.24,5.3,5.3,0,0,1,2.06-2.06,5.93,5.93,0,0,1,2.92-.72,6,6,0,0,1,2.93.72,5.3,5.3,0,0,1,2.06,2.06,6.37,6.37,0,0,1,.74,3.12,6.18,6.18,0,0,1-.76,3.11,5.22,5.22,0,0,1-2.07,2.07,6.09,6.09,0,0,1-2.94.72A5.87,5.87,0,0,1,251.09,910.87Zm5-1.07a4,4,0,0,0,1.56-1.56,5,5,0,0,0,.6-2.55,5.12,5.12,0,0,0-.59-2.55,3.85,3.85,0,0,0-1.55-1.55,4.36,4.36,0,0,0-2.1-.52,4.3,4.3,0,0,0-2.1.52,3.79,3.79,0,0,0-1.55,1.55,6,6,0,0,0,0,5.1,3.86,3.86,0,0,0,1.54,1.56,4.34,4.34,0,0,0,2.09.51A4.46,4.46,0,0,0,256.1,909.8Z"/><path class="cls-3" d="M265.41,900.34a4.66,4.66,0,0,1,2.45-.59v1.53h-.4a3.22,3.22,0,0,0-3.53,3.74v6.4h-1.47V900h1.47v2A3.52,3.52,0,0,1,265.41,900.34Z"/><path class="cls-3" d="M271.4,909l-2.18,5.5h-1l1.56-5.5Z"/><path class="cls-3" d="M112.79,933.14h-6.67l-1.29,3.48h-1.55l5.36-14.49h1.65l5.34,14.49h-1.55Zm-.44-1.22L109.46,924l-2.9,7.94Z"/><path class="cls-3" d="M118,927.77a5.15,5.15,0,0,1,2-2.06,5.53,5.53,0,0,1,2.82-.72,5.17,5.17,0,0,1,2.73.74,4.5,4.5,0,0,1,1.79,1.91v-6.56h1.47v15.54h-1.47v-2.56a4.48,4.48,0,0,1-1.73,2,5.07,5.07,0,0,1-2.81.76,5.44,5.44,0,0,1-2.82-.73,5.11,5.11,0,0,1-2-2.08,6.6,6.6,0,0,1-.7-3.11A6.53,6.53,0,0,1,118,927.77Zm8.74.69a4.08,4.08,0,0,0-1.54-1.62,4.23,4.23,0,0,0-2.16-.57,4.28,4.28,0,0,0-2.18.55,3.86,3.86,0,0,0-1.52,1.58,5.2,5.2,0,0,0-.56,2.47,5.26,5.26,0,0,0,.56,2.47,4,4,0,0,0,1.52,1.62,4.28,4.28,0,0,0,2.18.55,4.23,4.23,0,0,0,2.16-.57,4,4,0,0,0,1.54-1.61,5.49,5.49,0,0,0,0-4.87Z"/><path class="cls-3" d="M134.27,936.07a5.32,5.32,0,0,1-2-2.06,6.82,6.82,0,0,1,0-6.24,5.3,5.3,0,0,1,2.06-2.06,5.93,5.93,0,0,1,2.92-.72,6,6,0,0,1,2.93.72,5.21,5.21,0,0,1,2,2.06,6.26,6.26,0,0,1,.75,3.12,6.18,6.18,0,0,1-.76,3.11,5.22,5.22,0,0,1-2.07,2.07,6.1,6.1,0,0,1-3,.72A5.86,5.86,0,0,1,134.27,936.07Zm5-1.07a3.92,3.92,0,0,0,1.57-1.56,5,5,0,0,0,.6-2.55,5.12,5.12,0,0,0-.59-2.55,3.85,3.85,0,0,0-1.55-1.55,4.36,4.36,0,0,0-2.1-.52,4.3,4.3,0,0,0-2.1.52,3.79,3.79,0,0,0-1.55,1.55,5.9,5.9,0,0,0,0,5.1,3.9,3.9,0,0,0,1.53,1.56,4.56,4.56,0,0,0,4.19,0Z"/><path class="cls-3" d="M148.84,925.75a5.06,5.06,0,0,1,2.8-.76,5.53,5.53,0,0,1,2.82.72,5.14,5.14,0,0,1,1.94,2.06,6.53,6.53,0,0,1,.7,3.1,6.6,6.6,0,0,1-.7,3.11,5.15,5.15,0,0,1-2,2.08,5.45,5.45,0,0,1-2.81.73,5.24,5.24,0,0,1-2.82-.74,4.45,4.45,0,0,1-1.73-1.95v2.52h-1.45V921.08h1.45v6.62A4.56,4.56,0,0,1,148.84,925.75Zm6.22,2.65a3.82,3.82,0,0,0-1.53-1.58,4.28,4.28,0,0,0-2.18-.55,4.19,4.19,0,0,0-2.15.57,4.1,4.1,0,0,0-1.55,1.62,5.57,5.57,0,0,0,0,4.87,4,4,0,0,0,1.55,1.61,4.19,4.19,0,0,0,2.15.57,4.28,4.28,0,0,0,2.18-.55,4,4,0,0,0,1.53-1.62,5.26,5.26,0,0,0,.55-2.47A5.2,5.2,0,0,0,155.06,928.4Z"/><path class="cls-3" d="M170.14,931.46h-9.51a4.52,4.52,0,0,0,.63,2.22,3.71,3.71,0,0,0,1.49,1.4,4.32,4.32,0,0,0,2,.47,4,4,0,0,0,2.4-.69,3.23,3.23,0,0,0,1.29-1.87H170a4.82,4.82,0,0,1-1.8,2.74,5.46,5.46,0,0,1-3.45,1.06,5.8,5.8,0,0,1-2.9-.72,5.15,5.15,0,0,1-2-2.06,6.37,6.37,0,0,1-.73-3.12,6.66,6.66,0,0,1,.71-3.13,5.09,5.09,0,0,1,2-2.06,6,6,0,0,1,2.92-.71,5.62,5.62,0,0,1,2.86.71,5,5,0,0,1,1.9,1.93,5.45,5.45,0,0,1,.66,2.67A10.89,10.89,0,0,1,170.14,931.46Zm-2-3.38a3.5,3.5,0,0,0-1.46-1.37,4.4,4.4,0,0,0-2-.46,4,4,0,0,0-2.8,1,4.22,4.22,0,0,0-1.28,3h8.07A4.07,4.07,0,0,0,168.18,928.08Z"/><path class="cls-3" d="M186.78,929.21a5.3,5.3,0,0,1-3.72,1.16h-3v6.25h-1.47V922h4.43a5.3,5.3,0,0,1,3.71,1.15,4.4,4.4,0,0,1,0,6.11Zm-.28-3a2.87,2.87,0,0,0-.82-2.23,3.8,3.8,0,0,0-2.62-.76h-3v5.93h3Q186.5,929.11,186.5,926.17Z"/><path class="cls-3" d="M198.27,925.49a4,4,0,0,1,1.64,1.67,5.78,5.78,0,0,1,.6,2.74v6.72h-1.45v-6.55a4,4,0,0,0-.93-2.85,3.36,3.36,0,0,0-2.55-1,3.46,3.46,0,0,0-2.65,1,4.35,4.35,0,0,0-1,3.09v6.25h-1.47V921.08h1.47v6a3.8,3.8,0,0,1,1.61-1.59,4.93,4.93,0,0,1,2.38-.57A5,5,0,0,1,198.27,925.49Z"/><path class="cls-3" d="M205.88,936.07a5.18,5.18,0,0,1-2-2.06,6.26,6.26,0,0,1-.75-3.12,6.16,6.16,0,0,1,.76-3.12,5.3,5.3,0,0,1,2.06-2.06,6.28,6.28,0,0,1,5.84,0,5.17,5.17,0,0,1,2.06,2.06,6.26,6.26,0,0,1,.75,3.12,6.18,6.18,0,0,1-.76,3.11,5.18,5.18,0,0,1-2.08,2.07,6,6,0,0,1-2.94.72A5.86,5.86,0,0,1,205.88,936.07Zm5-1.07a3.92,3.92,0,0,0,1.57-1.56,5,5,0,0,0,.6-2.55,5.12,5.12,0,0,0-.59-2.55,3.81,3.81,0,0,0-1.56-1.55,4.48,4.48,0,0,0-4.19,0,3.79,3.79,0,0,0-1.55,1.55,5.9,5.9,0,0,0,0,5.1,3.9,3.9,0,0,0,1.53,1.56,4.56,4.56,0,0,0,4.19,0Z"/><path class="cls-3" d="M219.16,926.4v7.12a2,2,0,0,0,.4,1.44,1.92,1.92,0,0,0,1.4.4h1.35v1.26h-1.58a3.26,3.26,0,0,1-2.31-.72,3.2,3.2,0,0,1-.75-2.38V926.4h-1.6v-1.24h1.6v-2.88h1.49v2.88h3.15v1.24Z"/><path class="cls-3" d="M226.83,936.07a5.22,5.22,0,0,1-2-2.06,6.26,6.26,0,0,1-.75-3.12,6.16,6.16,0,0,1,.76-3.12,5.34,5.34,0,0,1,2.05-2.06,6.3,6.3,0,0,1,5.85,0,5.23,5.23,0,0,1,2.06,2.06,6.8,6.8,0,0,1,0,6.23,5.24,5.24,0,0,1-2.08,2.07,6,6,0,0,1-2.94.72A5.87,5.87,0,0,1,226.83,936.07Zm5-1.07a3.92,3.92,0,0,0,1.57-1.56,5,5,0,0,0,.59-2.55,5.12,5.12,0,0,0-.58-2.55,3.88,3.88,0,0,0-1.56-1.55,4.3,4.3,0,0,0-2.1-.52,4.36,4.36,0,0,0-2.1.52,3.77,3.77,0,0,0-1.54,1.55,5.9,5.9,0,0,0,0,5.1,3.77,3.77,0,0,0,1.53,1.56,4.56,4.56,0,0,0,4.19,0Z"/><path class="cls-3" d="M238.93,935.88a3.35,3.35,0,0,1-1.4-2.49H239A2.19,2.19,0,0,0,240,935a3.62,3.62,0,0,0,2.17.59A2.89,2.89,0,0,0,244,935a1.75,1.75,0,0,0,.68-1.41,1.34,1.34,0,0,0-.37-1,2.8,2.8,0,0,0-1-.6c-.39-.14-.91-.3-1.56-.47a15.57,15.57,0,0,1-2.08-.67,3.47,3.47,0,0,1-1.36-1,2.9,2.9,0,0,1-.05-3.33,3.49,3.49,0,0,1,1.43-1.13,5,5,0,0,1,2.1-.42,4.56,4.56,0,0,1,3,.93A3.43,3.43,0,0,1,246,928.5h-1.47a2.24,2.24,0,0,0-.79-1.63,3,3,0,0,0-2-.62,2.91,2.91,0,0,0-1.81.53,1.56,1.56,0,0,0-.69,1.3,1.5,1.5,0,0,0,.41,1.1,2.75,2.75,0,0,0,1,.67c.41.16,1,.34,1.64.54a14.81,14.81,0,0,1,2,.65,3.48,3.48,0,0,1,1.26.92,2.47,2.47,0,0,1,.54,1.62,2.85,2.85,0,0,1-.5,1.65,3.49,3.49,0,0,1-1.41,1.14,4.86,4.86,0,0,1-2.08.42A5.31,5.31,0,0,1,238.93,935.88Z"/><path class="cls-3" d="M256.72,925.49a3.92,3.92,0,0,1,1.63,1.67,5.78,5.78,0,0,1,.6,2.74v6.72H257.5v-6.55a4,4,0,0,0-.93-2.85,3.33,3.33,0,0,0-2.55-1,3.46,3.46,0,0,0-2.65,1,4.35,4.35,0,0,0-1,3.09v6.25h-1.46V921.08h1.46v6a3.8,3.8,0,0,1,1.61-1.59,5,5,0,0,1,2.39-.57A5,5,0,0,1,256.72,925.49Z"/><path class="cls-3" d="M264.32,936.07a5.32,5.32,0,0,1-2-2.06,6.91,6.91,0,0,1,0-6.24,5.3,5.3,0,0,1,2.06-2.06,5.93,5.93,0,0,1,2.92-.72,6,6,0,0,1,2.93.72,5.3,5.3,0,0,1,2.06,2.06,6.37,6.37,0,0,1,.74,3.12,6.28,6.28,0,0,1-.75,3.11,5.31,5.31,0,0,1-2.08,2.07,6.09,6.09,0,0,1-2.94.72A5.87,5.87,0,0,1,264.32,936.07Zm5-1.07a4,4,0,0,0,1.56-1.56,5,5,0,0,0,.6-2.55,5.12,5.12,0,0,0-.59-2.55,3.85,3.85,0,0,0-1.55-1.55,4.36,4.36,0,0,0-2.1-.52,4.3,4.3,0,0,0-2.1.52,3.79,3.79,0,0,0-1.55,1.55,6,6,0,0,0,0,5.1,3.86,3.86,0,0,0,1.54,1.56,4.34,4.34,0,0,0,2.09.51A4.46,4.46,0,0,0,269.33,935Z"/><path class="cls-3" d="M278.87,925.76a5.1,5.1,0,0,1,2.83-.77,5.51,5.51,0,0,1,2.8.72,5.1,5.1,0,0,1,1.95,2.06,6.53,6.53,0,0,1,.71,3.1,6.6,6.6,0,0,1-.71,3.11,5.15,5.15,0,0,1-1.95,2.08,5.42,5.42,0,0,1-2.8.73,5.13,5.13,0,0,1-2.82-.76,4.64,4.64,0,0,1-1.74-1.93V942h-1.45V925.16h1.45v2.52A4.6,4.6,0,0,1,278.87,925.76Zm6.24,2.64a3.82,3.82,0,0,0-1.53-1.58,4.28,4.28,0,0,0-2.18-.55,4.19,4.19,0,0,0-2.15.57,4,4,0,0,0-1.54,1.62,5.49,5.49,0,0,0,0,4.87,3.92,3.92,0,0,0,1.54,1.61,4.19,4.19,0,0,0,2.15.57,4.28,4.28,0,0,0,2.18-.55,4,4,0,0,0,1.53-1.62,5.26,5.26,0,0,0,.55-2.47A5.2,5.2,0,0,0,285.11,928.4Z"/><path class="cls-3" d="M153.63,603.73v14.49h-1.47V606.65L147,618.22h-1.08l-5.16-11.52v11.52h-1.47V603.73h1.55l5.61,12.56,5.61-12.56Z"/><path class="cls-3" d="M166.42,606.76l-6.8,16.86h-1.54l2.23-5.46-4.7-11.4h1.61l3.91,9.78,3.78-9.78Z"/><path class="cls-3" d="M170.32,617.87a4.22,4.22,0,0,1-1.74-1.41,3.7,3.7,0,0,1-.67-2h1.56a2.91,2.91,0,0,0,.94,1.88,3.41,3.41,0,0,0,2.46.81,3.45,3.45,0,0,0,2.36-.76,2.5,2.5,0,0,0,.87-2,2.31,2.31,0,0,0-.48-1.52,3,3,0,0,0-1.2-.86,17,17,0,0,0-2-.62,16.46,16.46,0,0,1-2.33-.78,3.61,3.61,0,0,1-1.47-1.17,3.47,3.47,0,0,1-.61-2.17,3.52,3.52,0,0,1,.59-2,3.89,3.89,0,0,1,1.66-1.4,5.62,5.62,0,0,1,2.45-.5,5.08,5.08,0,0,1,3.29,1,3.76,3.76,0,0,1,1.44,2.57h-1.6a2.67,2.67,0,0,0-1-1.61,3.92,3.92,0,0,0-4.47,0,2.32,2.32,0,0,0-.88,1.92,2.21,2.21,0,0,0,.48,1.49,3,3,0,0,0,1.21.86,16.4,16.4,0,0,0,2,.63,17.83,17.83,0,0,1,2.31.79,3.74,3.74,0,0,1,1.49,1.19,3.4,3.4,0,0,1,.61,2.14,3.77,3.77,0,0,1-.54,1.95,4,4,0,0,1-1.62,1.49,5.38,5.38,0,0,1-2.56.57A6.14,6.14,0,0,1,170.32,617.87Z"/><path class="cls-3" d="M192.54,621.1l-3.27-3a7.94,7.94,0,0,1-2.25.31,7.29,7.29,0,0,1-3.69-1,6.93,6.93,0,0,1-2.62-2.67,8.38,8.38,0,0,1,0-7.75,6.93,6.93,0,0,1,2.62-2.67,7.29,7.29,0,0,1,3.69-1,7.41,7.41,0,0,1,3.72,1,6.88,6.88,0,0,1,2.6,2.67,8.39,8.39,0,0,1,0,7.83,6.73,6.73,0,0,1-2.71,2.66l3.93,3.61ZM182,614.16a5.33,5.33,0,0,0,2.06,2.17,6.07,6.07,0,0,0,5.88,0,5.27,5.27,0,0,0,2.06-2.17,7.46,7.46,0,0,0,0-6.56,5.3,5.3,0,0,0-2.06-2.16,6.07,6.07,0,0,0-5.88,0A5.37,5.37,0,0,0,182,607.6a7.55,7.55,0,0,0,0,6.56Z"/><path class="cls-3" d="M198.47,617h5.27v1.19H197V603.54h1.47Z"/><path class="cls-3" d="M207.18,615.79l-2.18,5.5h-1l1.55-5.5Z"/><path class="cls-3" d="M229.57,603.73v14.49H228.1V606.65l-5.17,11.57h-1.07l-5.17-11.52v11.52h-1.47V603.73h1.56l5.6,12.56L228,603.73Z"/><path class="cls-3" d="M243.24,613.06h-9.52a4.74,4.74,0,0,0,.63,2.22,3.67,3.67,0,0,0,1.5,1.4,4.25,4.25,0,0,0,2,.47,4.08,4.08,0,0,0,2.41-.69,3.23,3.23,0,0,0,1.29-1.87h1.55a4.89,4.89,0,0,1-1.79,2.74,5.49,5.49,0,0,1-3.46,1.06,5.83,5.83,0,0,1-2.9-.72,5.15,5.15,0,0,1-2-2.06,6.48,6.48,0,0,1-.73-3.12,6.54,6.54,0,0,1,.72-3.13,5,5,0,0,1,2-2.06,6,6,0,0,1,2.92-.71,5.68,5.68,0,0,1,2.87.71,4.94,4.94,0,0,1,1.89,1.93,5.45,5.45,0,0,1,.66,2.67A11.47,11.47,0,0,1,243.24,613.06Zm-2-3.38a3.45,3.45,0,0,0-1.46-1.37,4.37,4.37,0,0,0-2-.46,4,4,0,0,0-2.79,1,4.23,4.23,0,0,0-1.29,3h8.07A4.07,4.07,0,0,0,241.27,609.68Z"/><path class="cls-3" d="M248.92,607.14a4.64,4.64,0,0,1,2.44-.59v1.53H251a3.22,3.22,0,0,0-3.53,3.74v6.4H246V606.76h1.47v2A3.54,3.54,0,0,1,248.92,607.14Z"/><path class="cls-3" d="M253.55,604.28a1.06,1.06,0,0,1-.32-.78,1.08,1.08,0,0,1,2.15,0,1.06,1.06,0,0,1-.32.78,1.05,1.05,0,0,1-1.51,0Zm1.49,2.48v11.46h-1.47V606.76Z"/><path class="cls-3" d="M259.1,617.48a3.31,3.31,0,0,1-1.39-2.49h1.51a2.14,2.14,0,0,0,.91,1.56,3.59,3.59,0,0,0,2.18.6,2.88,2.88,0,0,0,1.87-.56,1.76,1.76,0,0,0,.69-1.41,1.34,1.34,0,0,0-.38-1,2.56,2.56,0,0,0-1-.59,13.83,13.83,0,0,0-1.56-.48,16.07,16.07,0,0,1-2.08-.67,3.51,3.51,0,0,1-1.35-1,2.66,2.66,0,0,1-.56-1.77,2.7,2.7,0,0,1,.5-1.56,3.49,3.49,0,0,1,1.43-1.13,5,5,0,0,1,2.1-.42,4.54,4.54,0,0,1,3,.93,3.38,3.38,0,0,1,1.22,2.58h-1.47a2.21,2.21,0,0,0-.79-1.63,3.42,3.42,0,0,0-3.79-.09,1.58,1.58,0,0,0-.69,1.3,1.54,1.54,0,0,0,.41,1.1,2.71,2.71,0,0,0,1,.67c.4.16,1,.34,1.64.54a15.09,15.09,0,0,1,2,.65,3.48,3.48,0,0,1,1.26.92,2.53,2.53,0,0,1,.55,1.62,2.8,2.8,0,0,1-.51,1.65,3.39,3.39,0,0,1-1.4,1.14,4.92,4.92,0,0,1-2.08.42A5.35,5.35,0,0,1,259.1,617.48Z"/><path class="cls-3" d="M279.42,613.06h-9.51a4.52,4.52,0,0,0,.63,2.22,3.64,3.64,0,0,0,1.49,1.4,4.28,4.28,0,0,0,2,.47,4.06,4.06,0,0,0,2.41-.69,3.23,3.23,0,0,0,1.29-1.87h1.55a4.84,4.84,0,0,1-1.79,2.74,5.49,5.49,0,0,1-3.46,1.06,5.79,5.79,0,0,1-2.89-.72,5.11,5.11,0,0,1-2-2.06,6.47,6.47,0,0,1-.72-3.12,6.54,6.54,0,0,1,.71-3.13,5.07,5.07,0,0,1,2-2.06,6,6,0,0,1,2.92-.71,5.66,5.66,0,0,1,2.87.71,4.94,4.94,0,0,1,1.89,1.93,5.45,5.45,0,0,1,.66,2.67A11.47,11.47,0,0,1,279.42,613.06Zm-2-3.38a3.56,3.56,0,0,0-1.46-1.37,4.44,4.44,0,0,0-2-.46,4,4,0,0,0-2.79,1,4.18,4.18,0,0,0-1.28,3H278A4.17,4.17,0,0,0,277.46,609.68Z"/></svg>