<svg id="Calque_1" data-name="Calque 1" xmlns="http://www.w3.org/2000/svg" viewBox="0 0 1412.83 949.64"><defs><style>.cls-1,.cls-3{fill:#aa7f4b;}.cls-2,.cls-4,.cls-5{fill:#ff0513;}.cls-3{fill-rule:evenodd;}.cls-4{font-size:36px;font-family:Poppins-Bold, Poppins;font-weight:700;}.cls-5{font-size:21px;font-family:Poppins-Light, Poppins;font-weight:300;}</style></defs><path class="cls-1" d="M898,797.62a7.86,7.86,0,0,0-7.83,7.84V954.31a7.85,7.85,0,0,0,7.83,7.83h148.85a7.86,7.86,0,0,0,7.84-7.83V805.46a7.87,7.87,0,0,0-7.84-7.84Zm49.28,39.17c7.8,0,14.42,1.89,18.84,6.16,4,4,6.11,10.14,6.11,17.55,0,7.75-1.88,13-5.13,17.27-4.5,6.27-12.41,9.4-19.93,9.4-1.61,0-2.86,0-4.27-.12V923h-9.64V838.44A54.27,54.27,0,0,1,947.31,836.79Zm1.57,6.43a19.32,19.32,0,0,0-5.41.63v33.72a33.62,33.62,0,0,0,3.88.24c9.4,0,15.78-6.27,15.78-18.18C963.13,851,959.65,843.22,948.88,843.22Zm49.87,17.08a20.9,20.9,0,0,1,11.2,3.13l-2.63,7.33A14.51,14.51,0,0,0,998.9,868c-5.33,0-8.07,3.75-8.07,7.79s1.57,6.42,7.79,10.45c7.29,4.55,13,10.19,13,18.61,0,12.22-8.58,18.14-19,18.14-4.54,0-9.6-1.37-12.34-3.53l2.47-7.28a20.62,20.62,0,0,0,10.15,3.13c5.6,0,9.24-3.41,9.24-8.81,0-4.67-1.69-7.91-8.07-12-8.19-5.17-12.61-10.45-12.61-17.35C981.47,867.23,989,860.3,998.75,860.3Z" transform="translate(-179.29 -72.67)"/><path class="cls-1" d="M1409.45,911.48c-8,0-10.88,10.39-10.88,22.52,0,12.76,3.13,25,10.13,25,3,0,6.89-1.56,9-10.31a17.28,17.28,0,0,0,.49-3.42V927.4c0-1.24.13-2.77,0-4.15C1417.7,917,1414.07,911.48,1409.45,911.48Zm45.93-70.78H1306.87a7.81,7.81,0,0,0-7.81,7.81V997a7.82,7.82,0,0,0,7.81,7.82h148.51a7.83,7.83,0,0,0,7.82-7.82V848.51A7.82,7.82,0,0,0,1455.38,840.7Zm-68.39,125h-9.77L1360.64,934,1344,965.75h-9.63l21.43-41-21.43-41H1344l16.64,31.77,16.58-31.77H1387l-21.49,41Zm41-13.19c0,4.13-.13,9.69,0,13.19h-9.77V959.4c-1.88,4.26-5.43,7.57-11.8,7.57-10.26,0-17.52-13-17.52-33,0-21.5,9-30.77,18.38-30.77,4.38,0,8.56,2.2,10.94,7.32V879.78H1428Z" transform="translate(-179.29 -72.67)"/><path class="cls-2" d="M1098.51,757.77a7.89,7.89,0,0,0-7.86,7.86V915a7.89,7.89,0,0,0,7.86,7.87h149.37a7.89,7.89,0,0,0,7.87-7.87V765.63a7.89,7.89,0,0,0-7.87-7.86Zm54.76,39.31H1164l18.87,86.48h-9.59l-5.47-25.28h-18.86l-5.58,25.28h-9.44Zm50.32,0c3.65,0,6,2.48,6,6.13s-2.32,6.18-6,6.18h-.13c-3.22,0-5.69-2.48-5.69-6.18A5.81,5.81,0,0,1,1203.59,797.08Zm-45.21,9.59c-1,6.41-2.28,13.72-3.54,19.5l-4.32,22h16.08l-4.45-22.13c-1.26-6.06-2.39-13.09-3.42-19.38Zm40.37,10.06h9.83v66.83h-9.83Z" transform="translate(-179.29 -72.67)"/><path class="cls-1" d="M682.77,281.13a3.55,3.55,0,0,0-2.63-1.16H540.77a3.57,3.57,0,0,0-2.64,1.16,3.51,3.51,0,0,0-.91,2.73L549.77,424.5a3.59,3.59,0,0,0,2.58,3.12l57.11,16.3a3.23,3.23,0,0,0,1,.14,3.32,3.32,0,0,0,1-.14l57.15-16.3a3.59,3.59,0,0,0,2.58-3.12l12.54-140.64A3.48,3.48,0,0,0,682.77,281.13Zm-30,48.49H585.61l1.6,18.16H651.1l-4.79,53.66-35.88,10.84-.35-.11-35.47-10.74-1.93-21.87h17.37l.76,8.49,19.82,4.15,19.47-4.15,2.08-23h-60.8l-4.72-52.81h87.6Z" transform="translate(-179.29 -72.67)"/><path class="cls-3" d="M924.2,109.27l-13,146.85L850.77,273.4,790.3,256.12l-13-146.85Zm-108.84,95h17.27l.43,10.8,17.71,6,17.72-6,1.28-19.44h-38l-.87-17.27h39.75l1.28-17.28H812.34L811,143.82h79l-2.16,34.56-3,49.67-34.12,11.23-34.11-11.23Z" transform="translate(-179.29 -72.67)"/><path class="cls-2" d="M809.89,184.77H666.52a10.44,10.44,0,0,0-10.43,10.43V338.55A10.44,10.44,0,0,0,666.52,349H809.87a10.43,10.43,0,0,0,10.43-10.42V195.2A10.43,10.43,0,0,0,809.89,184.77ZM746,310.6c0,15.62-9.17,22.74-22.54,22.74-12.1,0-20.82-8.11-24.38-15.64l12.3-7.44c2.36,4.2,6,7.44,11.16,7.44,5,0,7.82-1.94,7.82-9.49V259.05H746Zm33.92,22.74c-13.85,0-21.72-7-26.1-15.64l11.73-7.82c3.19,5.22,6.67,10.22,14,10.22,6.19,0,9.43-3.09,9.43-7.37,0-5.1-3.36-6.91-10.16-9.89l-3.73-1.61c-10.76-4.58-17.93-10.32-17.93-22.48,0-11.18,8.54-19.7,21.86-19.7,9.48,0,16.29,3.3,21.21,11.94l-11.61,7.47c-2.56-4.59-5.31-6.4-9.6-6.4s-7.13,2.78-7.13,6.4c0,4.48,2.76,6.28,9.16,9.06l3.73,1.6c12.69,5.42,19.83,11,19.83,23.43C804.66,326,794.11,333.34,779.94,333.34Z" transform="translate(-179.29 -72.67)"/><path class="cls-1" d="M1098.56,203.23a2.89,2.89,0,0,0-1.23.41,3.33,3.33,0,0,0-.82,4.61l7.08,10.57c-10.94,5.8-19.1,15.43-21.76,27h90.71c-2.65-11.56-10.81-21.19-21.75-27l7.08-10.57a3.29,3.29,0,1,0-5.44-3.69l-7.8,11.49a50.94,50.94,0,0,0-34.89,0L1102,204.56A3.29,3.29,0,0,0,1098.56,203.23Zm10.57,26.16a4.93,4.93,0,1,1-4.93,4.93A4.93,4.93,0,0,1,1109.13,229.39Zm36.12,0a4.93,4.93,0,1,1-4.93,4.93A4.92,4.92,0,0,1,1145.25,229.39Zm-73.88,23a9.85,9.85,0,0,0-9.85,9.85v46a9.85,9.85,0,0,0,9.85,9.85,9.64,9.64,0,0,0,3.28-.61V253A9.64,9.64,0,0,0,1071.37,252.38Zm9.85,0v72.23a9.86,9.86,0,0,0,9.85,9.85h72.24a9.87,9.87,0,0,0,9.85-9.85V252.38Zm101.79,0a9.7,9.7,0,0,0-3.29.61v64.44a10,10,0,0,0,3.29.61,9.85,9.85,0,0,0,9.85-9.85v-46A9.85,9.85,0,0,0,1183,252.38ZM1094.35,341v13.13a13.14,13.14,0,1,0,26.27,0V341Zm39.4,0v13.13a13.14,13.14,0,1,0,26.27,0V341Z" transform="translate(-179.29 -72.67)"/><path class="cls-1" d="M1310.25,123.53c9,20.87-32.37,33.76-36.2,51.16-3.53,16,24.56,34.53,24.58,34.53A124.45,124.45,0,0,1,1287,186.86C1279.76,169.46,1331.05,153.73,1310.25,123.53Zm27.43,28.92s-36.23,2.29-38.08,25.48c-.82,10.33,9.52,15.84,9.83,23.36.23,6.12-6.19,11.23-6.19,11.23s11.65-2.19,15.3-11.55c4-10.39-7.83-17.49-6.64-25.81C1313.05,167.21,1337.68,152.45,1337.68,152.45Zm8.79,53.56a19.18,19.18,0,0,0-11.83,3.83c7.48-1.6,13.81,3,13.81,8.26,0,11.89-17.18,23.12-17.18,23.12s26.6-3,26.6-22.56C1357.87,210.59,1352.77,206.31,1346.47,206Zm-65.75,0s-33.2-.45-33.2,8.94c0,9.82,43.47,10.51,74.51,4.46,0,0,8.29-5.67,10.5-7.79-20.35,4.15-66.78,4.7-66.78,1.12C1265.75,209.45,1280.72,206,1280.72,206Zm-8,18.27c-5.09,0-12.69,3.93-12.69,7.73,0,7.62,38.35,13.5,66.74,2.35l-9.83-6C1297.68,234.53,1262.2,232.56,1272.7,224.31Zm4.72,17.05c-7,0-11.5,4.31-11.5,7.48,0,9.79,41.68,10.78,58.19.82L1313.62,243C1301.28,248.2,1270.3,248.91,1277.42,241.36Zm-23.25,8.87c-11.38-.23-18.77,4.88-18.77,9.12,0,22.55,116.51,21.46,116.51-1.59,0-3.82-4.51-5.64-6.13-6.51,9.51,22-95.29,20.34-95.29,7.33,0-3,7.69-5.87,14.84-4.47l-6.06-3.45A37.2,37.2,0,0,0,1254.17,250.23Zm110,15.17c-17.72,16.78-62.61,22.91-107.76,12.54C1301.57,296.4,1364,286,1364.2,265.4Z" transform="translate(-179.29 -72.67)"/><path class="cls-2" d="M1312.79,281.54l-60.12-33.79a15.23,15.23,0,0,0-14.78,0l-60.12,33.79a14.52,14.52,0,0,0-7.46,12.61v67.58a14.52,14.52,0,0,0,7.46,12.6l60.12,33.79a15.11,15.11,0,0,0,14.78,0l60.12-33.79a14.52,14.52,0,0,0,7.46-12.6V294.15A14.52,14.52,0,0,0,1312.79,281.54Zm-67.51,89.24A42.84,42.84,0,1,1,1279.35,302l-15.65,9.05a25,25,0,1,0,0,33.72l15.65,9.05A42.63,42.63,0,0,1,1245.28,370.78Zm42.84-39.27H1281v7.14h-7.14v-7.14h-7.14v-7.14h7.14v-7.14H1281v7.14h7.14Zm25,0H1306v7.14h-7.14v-7.14h-7.14v-7.14h7.14v-7.14H1306v7.14h7.14Z" transform="translate(-179.29 -72.67)"/><path class="cls-2" d="M610.35,145a3.57,3.57,0,0,0-1.16.19l-74.6,26a3.54,3.54,0,0,0-2.36,3.79L544,271.64a3.55,3.55,0,0,0,1.83,2.7l62.9,34.18a3.56,3.56,0,0,0,3.41,0l63.22-34.65a3.57,3.57,0,0,0,1.82-2.69L689,174.51a3.56,3.56,0,0,0-2.39-3.81l-75.08-25.5A3.48,3.48,0,0,0,610.35,145Zm.26,17.81,46.33,99.79H641.12l-9.91-21.35H590l-9.91,21.35H564.27Zm0,33.86-14,30.29h28Z" transform="translate(-179.29 -72.67)"/><path class="cls-1" d="M614.05,552.2a6.39,6.39,0,0,0-6.62,4.18c-2.18,5.29,3.25,10.46,5.19,13.16a39.23,39.23,0,0,1,4.08,6.09c.64,1.4.74,2.8,1.28,4.27A111.12,111.12,0,0,0,623.23,591a37.79,37.79,0,0,0,3,5c.69.92,1.85,1.35,2,2.77-1.14,1.62-1.21,4.11-1.85,6.15-2.89,9.13-1.8,20.49,2.39,27.22,1.31,2.09,4.37,6.52,8.54,4.84,3.65-1.49,2.85-6.12,3.89-10.22.24-.9.1-1.59.57-2.21v.19c1.09,2.23,2.21,4.46,3.32,6.67,2.49,4,6.88,8.13,10.58,10.95,1.92,1.45,3.44,4,5.93,4.82V647h-.19c-.48-.76-1.24-1.07-1.85-1.66a41.48,41.48,0,0,1-4.25-4.84,109.92,109.92,0,0,1-9.08-14.82c-1.3-2.49-2.44-5.24-3.53-7.78-.43-1-.43-2.47-1.31-3-1.21,1.87-3,3.37-3.89,5.57-1.47,3.51-1.68,7.81-2.23,12.24-.33.12-.19,0-.35.19-2.59-.64-3.51-3.3-4.46-5.57-2.42-5.77-2.89-15.06-.74-21.68.55-1.73,3-7.14,2-8.73-.47-1.58-2.08-2.49-3-3.7a27.69,27.69,0,0,1-3-5.19c-2-4.5-3.86-9.72-6-14.28a40.37,40.37,0,0,0-4.08-6.3c-1.54-2.14-3.25-3.7-4.46-6.31-.4-.9-1-2.37-.36-3.32a1.47,1.47,0,0,1,1.12-1.12c1.07-.83,4,.26,5.19.74a45.21,45.21,0,0,1,8,4.08c1.21.8,2.42,2.34,3.89,2.8h1.66c2.63.59,5.55.16,8,.92a47.44,47.44,0,0,1,11.67,5.55,72.1,72.1,0,0,1,25.4,27.79c1,1.85,1.4,3.63,2.25,5.58,1.68,3.93,3.84,8,5.55,11.86s3.34,7.73,5.74,10.93c1.25,1.68,6.14,2.61,8.35,3.53,1.54.67,4.1,1.35,5.54,2.23,2.83,1.68,5.53,3.7,8.16,5.57,1.33.93,5.36,2.94,5.58,4.63-6.53-.17-11.51.43-15.75,2.23-1.21.52-3.16.52-3.34,2,.64.68.75,1.73,1.28,2.58a20.71,20.71,0,0,0,4.26,5c1.69,1.25,3.4,2.6,5.2,3.72,3.18,1.92,6.73,3,9.82,5,1.8,1.16,3.62,2.61,5.38,3.89.88.66,1.45,1.66,2.58,2.06v-.19c-.59-.76-.73-1.8-1.28-2.58l-2.44-2.45a39.81,39.81,0,0,0-8.51-8.13c-2.54-1.83-8.21-4.29-9.25-7.23l-.19-.19a38.68,38.68,0,0,0,5.55-1.31c2.8-.73,5.26-.54,8.13-1.28,1.31-.38,2.61-.76,3.92-1.11v-.76c-1.45-1.47-2.49-3.46-4.08-4.82a117.66,117.66,0,0,0-13.36-10c-2.58-1.64-5.78-2.71-8.51-4.08-.92-.48-2.54-.71-3.15-1.5-1.45-1.82-2.23-4.15-3.35-6.28-2.32-4.48-4.6-9.37-6.66-14.09-1.4-3.2-2.33-6.38-4.08-9.27-8.42-13.83-17.48-22.2-31.52-30.4-3-1.76-6.57-2.42-10.36-3.32-2.06-.15-4.08-.26-6.14-.38-1.24-.52-2.54-2-3.7-2.8C624.53,555.45,618.79,552.27,614.05,552.2Zm20.08,20.11a14.16,14.16,0,0,0-3.34.38v.19H631c.64,1.33,1.8,2.18,2.61,3.32.62,1.31,1.21,2.61,1.83,3.92l.18-.19c1.14-.81,1.69-2.11,1.69-4.08-.48-.48-.55-1.09-.93-1.66C635.82,573.4,634.8,573,634.13,572.31Zm-198,77a22.48,22.48,0,0,0-6,1.11c-3.6,1.09-5.38,3.25-5.38,7.64V704H437v-44.8l16.86,38.3c2.08,4.77,4.93,6.48,10.5,6.48s8.33-1.71,10.41-6.48l16.87-37.32V704h12.14V658.07c0-4.39-1.76-6.55-5.39-7.64-8.63-2.72-14.44-.38-17.05,5.53L464,694.9,447.26,656C445.36,651.52,441.57,649.1,436.16,649.32Zm148,0c-4.79,0-19.71.57-19.71,12.14V669c0,5.31,4.67,9.65,14.8,10.72,1.14.07,2.27.16,3.41.16,0,0,11.81-.23,12.14-.16,6.83,0,6.08,5.31,6.08,6.07v6.07c0,.83-.19,6.07-6.15,6.07H564.46V704h30.4a26.15,26.15,0,0,0,10.93-2.28c5.13-2.34,7.24-5.52,7.24-9.69v-8.68c0-9.32-11.58-9.7-18.22-9.7H582.67c-4.76,0-5.5-2.9-6.07-6.08v-6.07c.57-2.42,1.64-5.69,5.86-6.07H613v-6.07Zm47,0c-9,1.23-12.12,5.69-12.12,12.14v30.36c0,5.9,3.3,9.46,10.08,11.31a23,23,0,0,0,6.29.9l13.52-.07h7.94l6.76,6.07h13.66l-9.39-8.46c4.41-1.83,5.78-4.63,5.78-9.87V661.48c0-6.45-4.19-10.91-13.16-12.14Zm48.69,0v42.24c0,7.33,4.15,11.45,15.13,12.28,1,0,2.06.12,3.08.12h30.36v-6.07H700.32c-6.26,0-8.37-2.63-8.37-6.38V649.34Zm-41.45,6.07H654a7.94,7.94,0,0,1,7.52,6.07s.1,28.27.1,30.36a3.93,3.93,0,0,1-1.17,3l-3.29-3H643.38l6.76,6.07H638.36a7.3,7.3,0,0,1-7.21-6.07V662.1C631.15,658.87,633.61,655.41,638.36,655.41ZM509.82,667.55c.24.24,0,25.88,0,26.38.09,5.31,6.83,10,17.38,10.05h19v.4c0,1.14.83,4.94-6.08,5.67H509.82v6.07h31.66c5.36-.16,17-1.37,16.91-10.67,0-.16.05-37.9,0-37.9H546.25v30.36c-.19,0-15,.05-18,0-5.86-.09-6.35-3.44-6.26-4.72V667.55Z" transform="translate(-179.29 -72.67)"/><path class="cls-2" d="M1107.42,542.19a82.18,82.18,0,1,0,82.18,82.18A82.18,82.18,0,0,0,1107.42,542.19Zm62.21,53.71c0,.66.12,1.22.12,1.91,0,7.14-1.34,15.18-5.36,25.25l-20.46,59.15A68.15,68.15,0,0,1,1130,689l-21.34-58.43-20.48,59.53a68.41,68.41,0,0,1-12.55-5.08l-31.58-86.48a68.17,68.17,0,0,1,6.9-12.79l2.1,0c7.37,0,18.79-.89,18.79-.89,3.81-.22,4.25,5.36.45,5.81,0,0-3.82.44-8.07.67l25.67,76.37,15.42-46.28-11-30.1c-3.8-.22-7.39-.66-7.39-.66-3.81-.23-3.35-6,.44-5.81,0,0,11.64.89,18.56.89,7.37,0,18.79-.89,18.79-.89,3.8-.22,4.24,5.36.45,5.81,0,0-3.83.44-8.07.67l25.48,75.79,7-23.52c3.57-9.16,5.36-16.74,5.36-22.79,0-8.71-3.12-14.74-5.81-19.43-3.57-5.82-6.94-10.73-6.94-16.54s4-11.23,9.81-12.29A69,69,0,0,1,1169.63,595.9Z" transform="translate(-179.29 -72.67)"/><text class="cls-4" transform="translate(0 30.69)">Programation Web:</text><text class="cls-5" transform="translate(26.38 64.54)">Html5, css3,<tspan x="0" y="25.2">JavaScript, Angular</tspan></text><text class="cls-4" transform="translate(1142.51 43.68)">Programation:</text><text class="cls-4" transform="translate(1045.51 546.68)">CMS:</text><text class="cls-4" transform="translate(26.51 471.68)">Base de donées:</text><text class="cls-4" transform="translate(420.51 855.68)">UX, UI Design:</text><text class="cls-5" transform="translate(1174.02 72.39)">Langage C, C++,<tspan x="0" y="25.2">JAVA, Android</tspan></text><text class="cls-5" transform="translate(1077.02 568.39)">Wordpress, Shopify</text><text class="cls-5" transform="translate(446.02 887.39)">Adobe Xd,<tspan x="0" y="25.2">Adobe Ilustrator,</tspan><tspan x="0" y="50.4">Adobe Photoshop</tspan></text><text class="cls-5" transform="translate(52.02 504.39)">MySQL, Merise</text></svg>