<svg id="Calque_1" data-name="Calque 1" xmlns="http://www.w3.org/2000/svg" viewBox="0 0 778 584"><defs><style>.cls-1,.cls-2{fill:#ff0213;}.cls-1{fill-rule:evenodd;}</style></defs><polygon class="cls-1" points="483.56 477.76 486.73 479.08 489.89 480.4 489.89 483.04 489.89 485.67 486.73 486.99 483.56 488.31 480.4 486.99 477.24 485.67 477.24 483.04 477.24 480.4 480.4 479.08 483.56 477.76"/><path class="cls-1" d="M561,382.88H549.12V400h23.71V382.88ZM568.64,397H553.3V385.9h15.34Z" transform="translate(-138 -208)"/><rect class="cls-2" x="463.67" y="573.61" width="14.39" height="10.39"/><rect class="cls-2" x="767.8" y="158.83" width="10.2" height="7.36"/><rect class="cls-2" x="270.31" y="262.85" width="22.14" height="15.98"/><rect class="cls-2" x="40.29" y="202.14" width="22.14" height="15.98"/><rect class="cls-2" x="488.32" y="11.88" width="16.1" height="11.62"/><rect class="cls-2" x="181.09" y="17.69" width="16.1" height="11.62"/><polygon class="cls-2" points="76.83 136.24 80.51 140.83 84.19 145.42 76.83 145.42 69.49 145.42 73.14 140.83 76.83 136.24"/><polygon class="cls-2" points="134.44 62.05 141.8 71.23 149.16 80.41 134.44 80.41 119.77 80.41 127.08 71.23 134.44 62.05"/><polygon class="cls-2" points="714.31 96.76 719.07 102.7 723.84 108.63 714.31 108.63 704.83 108.63 709.55 102.7 714.31 96.76"/><polygon class="cls-2" points="303.43 394.74 308.94 401.6 314.45 408.47 303.43 408.47 292.46 408.47 297.93 401.6 303.43 394.74"/><polygon class="cls-2" points="31.83 411.99 36.06 417.26 40.3 422.54 31.83 422.54 23.4 422.54 27.6 417.26 31.83 411.99"/><polygon class="cls-2" points="155.25 540.44 160.76 547.31 166.27 554.17 155.25 554.17 144.28 554.17 149.75 547.31 155.25 540.44"/><path class="cls-2" d="M395.36,455.77c0,4.66-5.23,8.44-11.69,8.44S372,460.43,372,455.77s5.23-8.44,11.69-8.44S395.36,451.11,395.36,455.77Z" transform="translate(-138 -208)"/><ellipse class="cls-2" cx="331.7" cy="23.51" rx="13.69" ry="9.88"/><path class="cls-2" d="M731.59,216.78c0,4.85-5.45,8.79-12.17,8.79s-12.17-3.94-12.17-8.79S712.7,208,719.42,208,731.59,211.93,731.59,216.78Z" transform="translate(-138 -208)"/><path class="cls-2" d="M814.79,269.37c0,5.44-6.12,9.86-13.67,9.86s-13.67-4.42-13.67-9.86,6.12-9.87,13.67-9.87S814.79,263.92,814.79,269.37Z" transform="translate(-138 -208)"/><path class="cls-2" d="M792.92,316.72c0,1.09-1.22,2-2.73,2s-2.74-.88-2.74-2,1.23-2,2.74-2S792.92,315.63,792.92,316.72Z" transform="translate(-138 -208)"/><ellipse class="cls-2" cx="688.81" cy="158.83" rx="12.03" ry="8.68"/><path class="cls-2" d="M792.92,423.26c0,2.83-3.18,5.13-7.11,5.13s-7.1-2.3-7.1-5.13,3.18-5.13,7.1-5.13S792.92,420.42,792.92,423.26Z" transform="translate(-138 -208)"/><path class="cls-2" d="M167.3,390.16c0,2.36-2.64,4.26-5.9,4.26s-5.91-1.9-5.91-4.26,2.65-4.26,5.91-4.26S167.3,387.81,167.3,390.16Z" transform="translate(-138 -208)"/><ellipse class="cls-2" cx="90.75" cy="458.72" rx="6.56" ry="4.74"/><ellipse class="cls-2" cx="5.6" cy="390.69" rx="5.6" ry="4.04"/><path class="cls-2" d="M394.53,546.05c0,3.1-3.49,5.62-7.79,5.62s-7.79-2.52-7.79-5.62,3.49-5.62,7.79-5.62S394.53,542.94,394.53,546.05Z" transform="translate(-138 -208)"/><path class="cls-2" d="M468.17,681.37c0,2.43-2.72,4.39-6.08,4.39s-6.09-2-6.09-4.39,2.73-4.39,6.09-4.39S468.17,679,468.17,681.37Z" transform="translate(-138 -208)"/><path class="cls-2" d="M504.12,711.16c0,2.21-2.48,4-5.54,4s-5.53-1.79-5.53-4,2.48-4,5.53-4S504.12,709,504.12,711.16Z" transform="translate(-138 -208)"/><path class="cls-2" d="M643.11,717.47c0,3.48-3.91,6.31-8.74,6.31s-8.73-2.83-8.73-6.31,3.91-6.31,8.73-6.31S643.11,714,643.11,717.47Z" transform="translate(-138 -208)"/><path class="cls-2" d="M376.38,766.13c0,2.18-2.46,4-5.48,4s-5.48-1.78-5.48-4,2.45-4,5.48-4S376.38,764,376.38,766.13Z" transform="translate(-138 -208)"/><path class="cls-1" d="M702.35,729.16c-5.43,1.82-36.67,17.75-97.45-.93s-59.07-47-75.46-40.83-7.14,19.16,1.38,28.53,34.56,20,2.59,15.22-59.8-3.51-103.78-44.16-34.81-70.4-49.58-69.46,2.68,24.89-11.44,26.59c-9.41,1.17-18.34-23.54-27-49.78-22.15-67.3,44.22-89.85,27.83-102.26s-32.37,22-41.62,19.5-9.17-36.43,37.16-73,95.75-47.32,155.15-39,118.55,61.68,143.78,50.08S686.37,395,640,370.19,318.06,335.11,289.5,434.5s-25.56,194.22,42.84,246.34,187.28,81,260.55,79,109.46-30.69,109.46-30.69Z" transform="translate(-138 -208)"/><path class="cls-1" d="M677.68,345.71c10.15,7.27-73.59-34.67-68.4-47.85s169.43,42.76,160.91,23.31-86.91-44.74-76.84-46.62,80.08,24.13,59,.47S618.29,237.07,508,251.89,359.2,294.82,365.85,278.36s61.75-36.31,36.84-42-131.77,81.12-171.94,149.3-28.07,119.77-39.92,111.28,6.08-54.53-20.77-45.63c-55.59,24.31,4,188.18,130.8,262.33,13.31,7.79-28.48-4.16-32,6.8s36.27,19.32,156,44.57S649,756.34,649,756.34s-168.53,3.1-254.63-33.79S270.27,632.47,252,532.08,338.75,341,444.81,329.84s232.87,15.87,232.87,15.87Z" transform="translate(-138 -208)"/><path class="cls-1" d="M702.35,729.16C542.91,775.9,349.54,717.33,299.72,587c-46.17-120.89,72.54-300.46,385.75-162.94,52.26,23,68.65,12.3,50.88-15.29s64,18.1,72.38-7.5-.24-43.75-94.69-84.8C419.49,188.34,150.26,381,221.91,602,270,750.42,567.33,826.45,702.35,729.16Z" transform="translate(-138 -208)"/><path class="cls-1" d="M702.35,729.16c-121.14,13.53-122.77-8.2-132.67-5.27s-13,10.66-2,17.05-59-1.88-83.34-9.14-63.78-24-79-46.09S401,652.56,382,656.25s8.2,20.73-14.77,19.38-41.87-19.74-57-61.14,30.84-74.8,11.85-86.33-27.67,39-38.3,15.87-1.95-67.12,30.35-95.18,74.65-18.39,72.05-34.32-17-4.8-23.37-4.22,17.85-19.15,56.72-26.41,56-2.23,103.13,10.43,77.57-5.63,41.22-22.91S389,332.3,328.53,368.32,250,454.77,250.63,521.6s54.77,146,108,176.76,119.69,53.06,189.31,59.44,154.41-28.64,154.41-28.64Z" transform="translate(-138 -208)"/><path class="cls-1" d="M557.43,772.74s-64.38-1-124.55-28.47c-31.46-14.37-21.91-30.92-38.22-33s-16.15,11.89-8.76,22.61-65.08-10.31-91.78-49.43,6.58-47.21-13.3-60.62S276,668,257.37,646.52s-35.3-67.41-31.65-115.44,69.3-59.85,47.14-81.82-36,36-49.09,31.1,7.71-63.19,62.32-99.8,111.08-18.27,103.3-48.26S344,299.79,309.62,323s-54.77,47.91-73.11,84.4-31.72,66.35-33.18,115,2,73.5,24,107.82,53,65.83,79.93,81.24c97.69,55.81,180.14,64.81,250.16,61.32Z" transform="translate(-138 -208)"/><path class="cls-2" d="M464.54,352.61c24.07,2.47,47.07,8.66,69.65,15.17,6.84,2,14.07,4,21.36,3.24s14.33-5.52,13-10.76c-1.26-5.08-9.46-8.41-9.67-13.58-.16-4,4.93-7.3,10.35-8.1s11,.33,16.23,1.61C637,352.83,680.07,382.5,734,387.25c6.29.55,13.09.67,18.47-1.75,7.45-3.35,9.74-10.8,7.39-16.9s-8.33-11.12-14.55-15.6c-44-31.66-109.52-46.94-170.87-39.84-4.15.48-10.05.18-10.48-2.84s5.24-4.19,8.24-6.32c4.67-3.32,2-9.58-3.68-12s-12.71-2-19.12-1a124.83,124.83,0,0,0-42.09,13.92c-5.61,3.13-10.89,6.72-17.41,8.73s-14.86,2-19.93-1.55c-2.11-1.49-3.6-3.55-6.3-4.42-4.48-1.46-9.39,1.09-13,3.47l-44.77,29.22c-5,3.26-10.08,6.88-13,11.35-.94,1.45-2.79,4.2-1.32,5.74,1.32,1.37,4.36,1.1,6.26.73,6.86-1.33,13.22-3.62,20.25-4.73A164.2,164.2,0,0,1,440,351.57,201,201,0,0,1,464.54,352.61Z" transform="translate(-138 -208)"/><path class="cls-2" d="M272.47,554.42c.57,4.61,3.3,10.49,9.71,10.42,2.67,0,5.08-1.21,7.74-1.44,6-.53,10.85,4.08,10.84,8.41s-3.4,8.24-6.78,11.82q-10.53,11.18-22.51,21.58c-2,1.74-4.4,3.59-7.52,3.71-5.39.21-8.16-4.53-9.19-8.35-10.39-38.39-5.22-78.89,14.7-115.26,2.22-4.05,7.93-11.9,15.7-8.55,5.22,2.25-1.57,8.69-3,11.4-6.71,13.14-9.35,28.08-10.36,42A124.63,124.63,0,0,0,272.47,554.42Z" transform="translate(-138 -208)"/><path class="cls-2" d="M362,700.47a7,7,0,0,1-4,10.3c-3.16,1.12-7,.61-10.2-.45-7.27-2.41-12.32-7.29-16.54-12.2a108,108,0,0,1-13.05-18.9,94.86,94.86,0,0,1-4.73-10.08c-.44-1.09-2-3.65,0-4.48,3.41-1.47,10.88,4,12.91,5.33,5.95,4,10.06,9.12,15.26,13.61a131.45,131.45,0,0,0,11.21,8.58C356.43,694.62,360.17,697.13,362,700.47Z" transform="translate(-138 -208)"/><path class="cls-2" d="M600.92,751.16c-18,.08-35.92-1.88-53.86-3.17-6.41-.46-14.62-.1-16.93,4.25-1.52,2.86.65,6.21,4,8s7.73,2.49,11.93,3a186.46,186.46,0,0,0,55.33-2.36,173.94,173.94,0,0,0,26-7.15c3.62-1.32,7.95-2.6,10.76-4.77.36-.28,2.19-1.59,1.62-2.07s-4.44.84-5.17,1A167.12,167.12,0,0,1,600.92,751.16Z" transform="translate(-138 -208)"/><path class="cls-2" d="M281.2,418.74c2.62,1.5,6.62,1.07,9.31-.36a17.57,17.57,0,0,0,5.91-5.77c4.14-5.75,7.93-11.68,13.35-16.84,5.8-5.52,12.91-9.17,22.09-11.09,4.29-.9,5.38-3.73.18-4.31-4.85-.54-9.94.48-14.63,1.23-5.65.89-11.55,1.81-16.29,4.34-5.56,3-9.73,7.61-13.35,11.77a50.15,50.15,0,0,0-7.69,11.62C278.73,412.22,277.29,416.51,281.2,418.74Z" transform="translate(-138 -208)"/><path class="cls-2" d="M272.37,354.37c-2.46,3.8-4.36,9,.15,11.63,2.73,1.6,6.82,1.41,10,.27s5.55-3.07,8-4.88c14.92-11,33.69-19.3,54.09-23.86,3.13-.7,6.42-1.37,8.86-2.95s3.67-4.44,1.76-6.37c-4.45-4.52-16.32,1.9-21.56-2.15-3.13-2.41-.84-6.38,2.14-8.88,3.34-2.79,7.42-5.12,10.27-8.18,2.36-2.53,3.84-5.91,2.52-8.92s-5.28-4.83-9.52-4.71a26.39,26.39,0,0,0-9.29,1.64,24.25,24.25,0,0,0-5.9,4.05c-6.23,5.09-12.75,9.93-18.64,15.24a205,205,0,0,0-17,17.24A183.45,183.45,0,0,0,274,352Q273.15,353.17,272.37,354.37Z" transform="translate(-138 -208)"/><path class="cls-2" d="M203.92,530.47a8.72,8.72,0,0,0-1.5-4.7c-1.91-2.42-6.56-3.47-10-2.26s-5.24,4.49-3.82,7.07a46.67,46.67,0,0,1-21-22.78c-3.88-8.84-5.14-18.14-6.38-27.37a8.56,8.56,0,0,0-7.53,5.51c-.87,2.68-.18,5.48.51,8.19,3.65,14.23,7.44,28.74,17.1,41.42,5,6.53,11.44,12.47,15.7,19.26,7.13,11.36,7.62,24.28,12.69,36.2a63.91,63.91,0,0,0,15.24,21.29c1.86,1.74,4.42,3.59,7.43,3.26a5.16,5.16,0,0,0,4.63-4c.29-1.87-.55-3.73-1.39-5.51-1.73-5-4.64-10-6.93-14.85l-7-15-3.51-7.53a8.18,8.18,0,0,1-.67-5c.26-2.41-.37-5-.64-7.35-.3-2.64-.6-5.27-.89-7.91Q204.94,539.41,203.92,530.47Z" transform="translate(-138 -208)"/><path class="cls-2" d="M349.1,742.45c2.22.5,4.86.95,6.68-.09a2.84,2.84,0,0,0,.89-4.22,11.6,11.6,0,0,0-4.48-3.23,102,102,0,0,0-23.55-7.82c-4.28-.92-8.63-1.65-13-2.25-3.53-.48-7.07-1.07-10.67-.7a30.55,30.55,0,0,0-8.37,2.05c-1.23.51-3.84,1.61-3.41,2.9.21.63,1.15.94,1.9,1.16,2.17.64,4.54,1,6.77,1.54l14.51,3.27,29.16,6.58Z" transform="translate(-138 -208)"/><path class="cls-2" d="M633.89,411c8.46,3.1,16.25,7.48,21.13,13.36,1.82,2.19,3.24,4.64,3.24,7.19a7.13,7.13,0,0,1-4.71,6.47c-4.08,1.65-9.21.48-13.37-1-18.56-6.83-32.33-20.3-52.58-23.82a18.58,18.58,0,0,1-5.25-1.36c-1.52-.79-2.5-2.33-1.63-3.52,1.31-1.82,5.06-1.31,7.69-.53l29.93,8.85c.89-2.28-2.16-4.39-5.2-5.28-2.88-.84-6.35-1.2-8.65-2.83-1.37-1-2.71-3.58-.21-4.26,2.08-.57,5,.26,7,.68,3.47.74,6.93,1.52,10.34,2.38A121.57,121.57,0,0,1,633.89,411Z" transform="translate(-138 -208)"/><path class="cls-2" d="M334.48,604.28c3.27,8,8.17,15.58,12.85,23.2a6.62,6.62,0,0,1,1.33,3.44,3,3,0,0,1-2.6,2.78c-1.95.37-3.77-.76-5.13-1.83a52.9,52.9,0,0,1-11.53-12.51,43.34,43.34,0,0,1-6.15-14.52,37.45,37.45,0,0,1-.17-15.17c.25-1.25.56-2.5.94-3.74s.69-2.76,2-3.55c1.79-1.13,4.71-.06,4.92,1.54.18,1.44-.18,3-.13,4.44a37.5,37.5,0,0,0,.45,4.6,48.2,48.2,0,0,0,2.4,9.09C333.89,602.8,334.18,603.54,334.48,604.28Z" transform="translate(-138 -208)"/><path class="cls-1" d="M638.29,669.25l64.51,52.27A252.42,252.42,0,0,1,677.48,640c-23.17,1-40.92-4.79-54.88-15.26l-25.06,16.11-25,16.09c12.81,11.22,18.69,24.6,14.68,41.11,37.29,5.82,73.81,14.6,109.29,27.53L632,673.31a11.44,11.44,0,0,1-9-2c-3.35-2.72-3-6.9.72-9.31s9.57-2.18,12.93.54c2.32,1.89,2.88,4.49,1.7,6.71Z" transform="translate(-138 -208)"/><polygon class="cls-1" points="468.71 402.62 417.7 435.41 431.15 446.31 482.16 413.51 468.71 402.62"/><path class="cls-1" d="M603.53,608l-51,32.8-37.15-30.11,0,0a.61.61,0,0,1-.18-.11c-2.13-1.73,7.56-10.46,21.65-19.52s27.23-15,29.35-13.28c0,0,.12.09.13.14h0Z" transform="translate(-138 -208)"/></svg>