<svg id="Calque_1" data-name="Calque 1" xmlns="http://www.w3.org/2000/svg" viewBox="0 0 1007 1007"><defs><style>.cls-1{fill:#f9f1e6;}.cls-2{fill:none;stroke:red;stroke-miterlimit:10;stroke-width:7px;}.cls-3{isolation:isolate;}.cls-4{fill:#ff0513;}</style></defs><rect class="cls-1" x="3" y="3" width="1000" height="1000"/><rect class="cls-2" x="3.5" y="3.5" width="1000" height="1000"/><g class="cls-3"><path class="cls-4" d="M92.94,404.27a13.48,13.48,0,0,0-5.72-5.62,18.81,18.81,0,0,0-8.77-1.94q-8.72,0-14,5.72t-5.25,15.28q0,10.19,5.52,15.91t15.17,5.72A18.33,18.33,0,0,0,91.1,436a19,19,0,0,0,6.67-9.66H75V413.09H114v16.7a35.11,35.11,0,0,1-6.77,12.49,35.62,35.62,0,0,1-12.12,9.34,37.41,37.41,0,0,1-16.59,3.58,39.3,39.3,0,0,1-19.48-4.78,34.09,34.09,0,0,1-13.34-13.29,42,42,0,0,1,0-38.9A34,34,0,0,1,59,384.9a38.94,38.94,0,0,1,19.43-4.78q13.23,0,22.31,6.41a30.25,30.25,0,0,1,12,17.74Z"/><path class="cls-4" d="M173.68,429.68H133.05q.42,5.46,3.52,8.35a10.76,10.76,0,0,0,7.61,2.89q6.72,0,9.34-5.67h19.11a26.35,26.35,0,0,1-14.91,17.63,30.68,30.68,0,0,1-12.91,2.63,31.32,31.32,0,0,1-15.33-3.68,26,26,0,0,1-10.5-10.5,32.38,32.38,0,0,1-3.78-15.95,32.73,32.73,0,0,1,3.73-16,25.75,25.75,0,0,1,10.44-10.5,31.67,31.67,0,0,1,15.44-3.68,31.33,31.33,0,0,1,15.12,3.57A25.55,25.55,0,0,1,170.27,409,30.84,30.84,0,0,1,174,424.43,45.87,45.87,0,0,1,173.68,429.68Zm-18.06-10a9.25,9.25,0,0,0-3.15-7.36,11.63,11.63,0,0,0-7.87-2.73,11.36,11.36,0,0,0-7.61,2.63,11.66,11.66,0,0,0-3.84,7.46Z"/><path class="cls-4" d="M188.38,452.88a23.18,23.18,0,0,1-9.45-7.19,18.87,18.87,0,0,1-3.88-10.23h17.74a6.82,6.82,0,0,0,2.84,4.93,10,10,0,0,0,6.19,1.89A8.88,8.88,0,0,0,207,441a4,4,0,0,0,1.84-3.42,3.94,3.94,0,0,0-2.63-3.72,52.37,52.37,0,0,0-8.5-2.68,79.05,79.05,0,0,1-10.5-3.1,18.15,18.15,0,0,1-7.25-5.14q-3-3.53-3-9.5a16.14,16.14,0,0,1,2.78-9.19,18.75,18.75,0,0,1,8.19-6.56,31.36,31.36,0,0,1,12.86-2.42q11,0,17.38,5.46a21.23,21.23,0,0,1,7.3,14.49H208.86a7.13,7.13,0,0,0-2.68-4.83,9.27,9.27,0,0,0-5.93-1.78,8.24,8.24,0,0,0-4.83,1.2,3.87,3.87,0,0,0-1.68,3.31,4,4,0,0,0,2.68,3.78,42.66,42.66,0,0,0,8.34,2.52,90.42,90.42,0,0,1,10.61,3.31,18.15,18.15,0,0,1,7.19,5.25q3.1,3.62,3.2,9.71a15.46,15.46,0,0,1-2.88,9.19,19.15,19.15,0,0,1-8.3,6.35A31.72,31.72,0,0,1,202,455.51,33.51,33.51,0,0,1,188.38,452.88Z"/><path class="cls-4" d="M264.19,439.45v15.22h-9.13q-9.76,0-15.23-4.78t-5.46-15.59V411h-7.14V396.08h7.14V381.8h18v14.28h11.76V411H252.33v23.52a4.92,4.92,0,0,0,1.26,3.78,6.15,6.15,0,0,0,4.2,1.16Z"/><path class="cls-4" d="M270.23,387.21a9,9,0,0,1-3-6.88,9.14,9.14,0,0,1,3-7,10.88,10.88,0,0,1,7.72-2.79,10.71,10.71,0,0,1,7.61,2.79,9.1,9.1,0,0,1,3,7,9,9,0,0,1-3,6.88A10.74,10.74,0,0,1,278,390,10.92,10.92,0,0,1,270.23,387.21Zm16.64,8.87v58.59H268.92V396.08Z"/><path class="cls-4" d="M305.83,451.83A26.79,26.79,0,0,1,295,441.33a34,34,0,0,1,.05-31.86A27,27,0,0,1,306,398.92a34.65,34.65,0,0,1,31.08,0A27,27,0,0,1,348,409.47a33.51,33.51,0,0,1-.05,31.81,27.28,27.28,0,0,1-11,10.55,32.89,32.89,0,0,1-15.6,3.68A32.18,32.18,0,0,1,305.83,451.83Zm24.25-15.64q3.63-3.78,3.62-10.81t-3.51-10.82a11.93,11.93,0,0,0-17.38-.05q-3.46,3.72-3.47,10.87t3.42,10.81a11,11,0,0,0,8.55,3.78A11.69,11.69,0,0,0,330.08,436.19Z"/><path class="cls-4" d="M408.41,402.12q6.13,6.66,6.14,18.32v34.23H396.7V422.85q0-5.87-3-9.13a11.92,11.92,0,0,0-16.38,0q-3,3.25-3,9.13v31.82h-18V396.08h18v7.77a18.89,18.89,0,0,1,7.35-6.14,23.32,23.32,0,0,1,10.4-2.26Q402.27,395.45,408.41,402.12Z"/><path class="cls-4" d="M438.65,409.42a25.41,25.41,0,0,1,9.29-10.5,24.28,24.28,0,0,1,13.13-3.68,23.09,23.09,0,0,1,10.55,2.42,19.26,19.26,0,0,1,7.51,6.51V377h17.95v77.7H479.13v-8.4a18.28,18.28,0,0,1-7.2,6.72,22.53,22.53,0,0,1-10.86,2.52,24,24,0,0,1-13.13-3.73,25.7,25.7,0,0,1-9.29-10.6,35.31,35.31,0,0,1-3.41-15.91A34.93,34.93,0,0,1,438.65,409.42Zm36.75,5.35a12.61,12.61,0,0,0-18.17,0q-3.72,3.82-3.72,10.55t3.72,10.66a12.5,12.5,0,0,0,18.17.05q3.72-3.89,3.73-10.6T475.4,414.77Z"/><path class="cls-4" d="M559.76,429.68H519.13q.42,5.46,3.52,8.35a10.76,10.76,0,0,0,7.61,2.89q6.72,0,9.34-5.67h19.11a26.35,26.35,0,0,1-14.91,17.63,30.68,30.68,0,0,1-12.91,2.63,31.32,31.32,0,0,1-15.33-3.68,26,26,0,0,1-10.5-10.5,32.38,32.38,0,0,1-3.78-15.95,32.73,32.73,0,0,1,3.73-16,25.75,25.75,0,0,1,10.44-10.5,31.67,31.67,0,0,1,15.44-3.68A31.33,31.33,0,0,1,546,398.81,25.55,25.55,0,0,1,556.35,409a31,31,0,0,1,3.73,15.43A45.87,45.87,0,0,1,559.76,429.68Zm-18.06-10a9.25,9.25,0,0,0-3.15-7.36,11.63,11.63,0,0,0-7.87-2.73,11.36,11.36,0,0,0-7.61,2.63,11.66,11.66,0,0,0-3.84,7.46Z"/><path class="cls-4" d="M606.49,397.76a22.61,22.61,0,0,1,10.81-2.52,24.28,24.28,0,0,1,13.13,3.68,25.48,25.48,0,0,1,9.29,10.5,35.06,35.06,0,0,1,3.41,15.85,35.44,35.44,0,0,1-3.41,15.91,25.77,25.77,0,0,1-9.29,10.6,24,24,0,0,1-13.13,3.73A22.55,22.55,0,0,1,606.49,453a19,19,0,0,1-7.25-6.56v8.19h-18V377h18v27.41A18.43,18.43,0,0,1,606.49,397.76Zm14.64,17a12.27,12.27,0,0,0-9.18-3.84,12.1,12.1,0,0,0-9.08,3.89q-3.74,3.89-3.73,10.61t3.73,10.6a12.55,12.55,0,0,0,18.21-.05q3.78-3.94,3.78-10.66T621.13,414.72Z"/><path class="cls-4" d="M647.17,409.42a25.44,25.44,0,0,1,9.3-10.5,24.25,24.25,0,0,1,13.12-3.68,22.57,22.57,0,0,1,10.87,2.52,18.53,18.53,0,0,1,7.19,6.62v-8.3h18v58.59h-18v-8.29a19.43,19.43,0,0,1-7.3,6.61,22.5,22.5,0,0,1-10.86,2.52,23.78,23.78,0,0,1-13-3.73,25.72,25.72,0,0,1-9.3-10.6,35.44,35.44,0,0,1-3.41-15.91A35.06,35.06,0,0,1,647.17,409.42Zm36.75,5.35a12.6,12.6,0,0,0-18.16,0Q662,418.54,662,425.27t3.73,10.66a12.49,12.49,0,0,0,18.16.05q3.74-3.89,3.73-10.6T683.92,414.77Z"/><path class="cls-4" d="M765.51,402.12q6.13,6.66,6.14,18.32v34.23H753.8V422.85q0-5.87-3-9.13a11.92,11.92,0,0,0-16.38,0q-3,3.25-3,9.13v31.82h-18V396.08h18v7.77a18.89,18.89,0,0,1,7.35-6.14,23.28,23.28,0,0,1,10.39-2.26Q759.36,395.45,765.51,402.12Z"/><path class="cls-4" d="M779,409.94a27.43,27.43,0,0,1,9.76-10.66,24.87,24.87,0,0,1,13.39-3.83,24.56,24.56,0,0,1,10,1.94,18.32,18.32,0,0,1,7.14,5.41v-6.72h18V482.6h-18V447.32a23,23,0,0,1-7.4,5.88,21.65,21.65,0,0,1-9.92,2.21,24.63,24.63,0,0,1-13.23-3.79A27.09,27.09,0,0,1,779,441a35.08,35.08,0,0,1,0-31.08Zm38.43,7.51a12.4,12.4,0,0,0-4.78-4.83,12.58,12.58,0,0,0-6.2-1.63,12.36,12.36,0,0,0-6.09,1.63,12.66,12.66,0,0,0-4.83,4.88,15.66,15.66,0,0,0-1.89,8,15.39,15.39,0,0,0,1.89,7.93,12.86,12.86,0,0,0,4.83,4.83,12.47,12.47,0,0,0,6.09,1.63,12.81,12.81,0,0,0,6.15-1.63,12.29,12.29,0,0,0,4.83-4.89,16,16,0,0,0,1.83-8A15.74,15.74,0,0,0,817.38,417.45Z"/><path class="cls-4" d="M902.79,396.08v58.59H884.84v-8a19.79,19.79,0,0,1-7.4,6.25,22.7,22.7,0,0,1-10.35,2.36,23.2,23.2,0,0,1-11.86-3,20.22,20.22,0,0,1-8-8.67,29.43,29.43,0,0,1-2.84-13.33V396.08h17.85v31.81q0,5.89,3,9.14a10.68,10.68,0,0,0,8.19,3.26,10.8,10.8,0,0,0,8.29-3.26q3-3.25,3.05-9.14V396.08Z"/><path class="cls-4" d="M965.37,429.68H924.74q.42,5.46,3.51,8.35a10.8,10.8,0,0,0,7.62,2.89q6.72,0,9.34-5.67h19.11a26.35,26.35,0,0,1-14.91,17.63,30.68,30.68,0,0,1-12.91,2.63,31.32,31.32,0,0,1-15.33-3.68,26,26,0,0,1-10.5-10.5,32.38,32.38,0,0,1-3.78-15.95,32.73,32.73,0,0,1,3.73-16,25.75,25.75,0,0,1,10.44-10.5,31.67,31.67,0,0,1,15.44-3.68,31.33,31.33,0,0,1,15.12,3.57A25.61,25.61,0,0,1,962,409a31,31,0,0,1,3.73,15.43A45.87,45.87,0,0,1,965.37,429.68Zm-18.06-10a9.25,9.25,0,0,0-3.15-7.36,11.63,11.63,0,0,0-7.87-2.73,11.4,11.4,0,0,0-7.62,2.63,11.69,11.69,0,0,0-3.83,7.46Z"/></g><path class="cls-4" d="M631.28,547.27,521.5,485.57a27.82,27.82,0,0,0-27,0l-109.78,61.7a26.51,26.51,0,0,0-13.62,23v123.4a26.51,26.51,0,0,0,13.62,23l109.78,61.7a27.66,27.66,0,0,0,27,0l109.78-61.7a26.51,26.51,0,0,0,13.62-23V570.29A26.5,26.5,0,0,0,631.28,547.27ZM508,710.22a78.23,78.23,0,1,1,62.21-125.54L541.64,601.2a45.63,45.63,0,1,0-2.89,64.47c1-.92,2-1.89,2.89-2.89l28.57,16.52A77.75,77.75,0,0,1,508,710.22Zm78.23-71.71h-13v13h-13v-13h-13v-13h13v-13h13v13h13Zm45.63,0h-13v13h-13v-13h-13v-13h13v-13h13v13h13Z"/></svg>