<svg id="Calque_1" data-name="Calque 1" xmlns="http://www.w3.org/2000/svg" viewBox="0 0 1007 1007"><defs><style>.cls-1{fill:#f9f1e6;}.cls-2{fill:none;stroke:red;stroke-miterlimit:10;stroke-width:7px;}.cls-3{font-size:105px;font-family:Poppins-Bold, Poppins;font-weight:700;letter-spacing:-0.05em;}.cls-3,.cls-4{fill:#ff0513;}</style></defs><rect class="cls-1" x="3" y="3" width="1000" height="1000"/><rect class="cls-2" x="3.5" y="3.5" width="1000" height="1000"/><text class="cls-3" transform="translate(37.5 454.67)">Gestion de banque </text><path class="cls-4" d="M628.28,544.27,518.5,482.57a27.82,27.82,0,0,0-27,0l-109.78,61.7a26.51,26.51,0,0,0-13.62,23v123.4a26.5,26.5,0,0,0,13.62,23l109.78,61.7a27.65,27.65,0,0,0,27,0l109.78-61.7a26.5,26.5,0,0,0,13.62-23V567.29A26.51,26.51,0,0,0,628.28,544.27ZM505,707.22a78.23,78.23,0,1,1,62.21-125.54L538.64,598.2a45.63,45.63,0,1,0,0,61.58l28.57,16.52A77.75,77.75,0,0,1,505,707.22Zm78.23-71.71h-13v13h-13v-13h-13v-13h13v-13h13v13h13Zm45.63,0h-13v13h-13v-13h-13v-13h13v-13h13v13h13Z" transform="translate(3 3)"/></svg>