<svg id="Calque_1" data-name="Calque 1" xmlns="http://www.w3.org/2000/svg" viewBox="0 0 1007 1007"><defs><style>.cls-1{fill:#f9f1e6;}.cls-2{fill:none;stroke:red;stroke-miterlimit:10;stroke-width:7px;}.cls-3{isolation:isolate;}.cls-4{fill:#ff0513;}</style></defs><rect class="cls-1" x="3" y="3" width="1000" height="1000"/><rect class="cls-2" x="3.5" y="3.5" width="1000" height="1000"/><g class="cls-3"><path class="cls-4" d="M79.07,411.47a11.54,11.54,0,0,0-4.9-4.81A16,16,0,0,0,66.65,405q-7.47,0-12,4.9T50.18,423q0,8.73,4.72,13.63t13,4.91a15.71,15.71,0,0,0,9.58-2.88,16.33,16.33,0,0,0,5.72-8.28H63.68V419H97.16v14.31a30.2,30.2,0,0,1-5.81,10.71,30.61,30.61,0,0,1-10.39,8,32.13,32.13,0,0,1-14.22,3.06A33.68,33.68,0,0,1,50,451a29.25,29.25,0,0,1-11.43-11.39,36,36,0,0,1,0-33.35A29.22,29.22,0,0,1,50,394.87a33.41,33.41,0,0,1,16.65-4.1q11.34,0,19.12,5.49a25.92,25.92,0,0,1,10.31,15.21Z"/><path class="cls-4" d="M148.28,433.25H113.45a10.48,10.48,0,0,0,3,7.16,9.22,9.22,0,0,0,6.53,2.47q5.76,0,8-4.86h16.38a22.49,22.49,0,0,1-4.55,8.91,22.74,22.74,0,0,1-8.23,6.21,26.45,26.45,0,0,1-11.07,2.25,26.94,26.94,0,0,1-13.14-3.15,22.41,22.41,0,0,1-9-9,27.79,27.79,0,0,1-3.24-13.68,28.1,28.1,0,0,1,3.19-13.68,22.13,22.13,0,0,1,9-9,27.13,27.13,0,0,1,13.23-3.15,26.85,26.85,0,0,1,13,3.06,22,22,0,0,1,8.86,8.73,26.5,26.5,0,0,1,3.2,13.23A39.29,39.29,0,0,1,148.28,433.25ZM132.8,424.7a7.91,7.91,0,0,0-2.7-6.3,9.94,9.94,0,0,0-6.75-2.34,9.76,9.76,0,0,0-6.53,2.25,10,10,0,0,0-3.28,6.39Z"/><path class="cls-4" d="M160.88,453.14a20,20,0,0,1-8.1-6.17,16.17,16.17,0,0,1-3.33-8.77h15.21a5.85,5.85,0,0,0,2.43,4.23,8.6,8.6,0,0,0,5.31,1.62,7.49,7.49,0,0,0,4.45-1.13,3.43,3.43,0,0,0,1.58-2.92,3.39,3.39,0,0,0-2.25-3.2,46.62,46.62,0,0,0-7.29-2.29,66.87,66.87,0,0,1-9-2.66,15.43,15.43,0,0,1-6.21-4.4,12,12,0,0,1-2.61-8.15,13.86,13.86,0,0,1,2.38-7.88,16.12,16.12,0,0,1,7-5.62,26.91,26.91,0,0,1,11-2.07q9.45,0,14.89,4.68a18.21,18.21,0,0,1,6.26,12.42H178.43a6.13,6.13,0,0,0-2.3-4.14,8,8,0,0,0-5.08-1.53,7,7,0,0,0-4.14,1,3.3,3.3,0,0,0-1.44,2.83,3.46,3.46,0,0,0,2.29,3.24,36.83,36.83,0,0,0,7.16,2.16,78.39,78.39,0,0,1,9.09,2.83,15.86,15.86,0,0,1,6.16,4.5,12.75,12.75,0,0,1,2.75,8.33,13.18,13.18,0,0,1-2.48,7.87,16.3,16.3,0,0,1-7.11,5.45,27.17,27.17,0,0,1-10.75,2A28.86,28.86,0,0,1,160.88,453.14Z"/><path class="cls-4" d="M225.86,441.62v13.05H218q-8.37,0-13.05-4.09t-4.68-13.37v-20h-6.12V404.45h6.12V392.21h15.39v12.24h10.08v12.78H215.69v20.16a4.22,4.22,0,0,0,1.08,3.24,5.27,5.27,0,0,0,3.6,1Z"/><path class="cls-4" d="M231,396.84a7.7,7.7,0,0,1-2.56-5.89,7.85,7.85,0,0,1,2.56-6,9.38,9.38,0,0,1,6.62-2.38,9.23,9.23,0,0,1,6.52,2.38,7.86,7.86,0,0,1,2.57,6,7.71,7.71,0,0,1-2.57,5.89,9.15,9.15,0,0,1-6.52,2.39A9.3,9.3,0,0,1,231,396.84Zm14.27,7.61v50.22H229.91V404.45Z"/><path class="cls-4" d="M261.54,452.24a23.07,23.07,0,0,1-9.27-9,29.18,29.18,0,0,1,0-27.32,23.26,23.26,0,0,1,9.36-9,29.74,29.74,0,0,1,26.64,0,23.26,23.26,0,0,1,9.36,9,26.72,26.72,0,0,1,3.42,13.64,26.43,26.43,0,0,1-3.47,13.64,23.48,23.48,0,0,1-9.45,9,28.23,28.23,0,0,1-13.36,3.15A27.74,27.74,0,0,1,261.54,452.24Zm20.79-13.41q3.1-3.24,3.11-9.27t-3-9.27a10.22,10.22,0,0,0-14.89,0q-3,3.19-3,9.31t2.92,9.27a9.48,9.48,0,0,0,7.34,3.24A10,10,0,0,0,282.33,438.83Z"/><path class="cls-4" d="M349.47,409.62q5.26,5.73,5.27,15.71v29.34h-15.3V427.4q0-5-2.61-7.83a10.23,10.23,0,0,0-14,0q-2.61,2.79-2.61,7.83v27.27H304.79V404.45h15.39v6.66a16.33,16.33,0,0,1,6.3-5.27,20.16,20.16,0,0,1,8.91-1.93Q344.21,403.91,349.47,409.62Z"/><path class="cls-4" d="M375.39,415.88a21.76,21.76,0,0,1,8-9,20.79,20.79,0,0,1,11.25-3.15,19.77,19.77,0,0,1,9,2.07,16.57,16.57,0,0,1,6.44,5.58V388.07h15.39v66.6H410.09v-7.2a15.69,15.69,0,0,1-6.17,5.76,19.31,19.31,0,0,1-9.31,2.16,20.57,20.57,0,0,1-11.25-3.19,22,22,0,0,1-8-9.1,33.18,33.18,0,0,1,0-27.22Zm31.5,4.59a10.37,10.37,0,0,0-7.78-3.33,10.49,10.49,0,0,0-7.79,3.28q-3.19,3.3-3.19,9.05t3.19,9.13a10.71,10.71,0,0,0,15.57,0q3.19-3.33,3.2-9.09T406.89,420.47Z"/><path class="cls-4" d="M435.64,391.49h15.75l-10.08,24.12H431Z"/><path class="cls-4" d="M503,433.25H468.13a10.48,10.48,0,0,0,3,7.16,9.2,9.2,0,0,0,6.52,2.47q5.76,0,8-4.86h16.38a22.47,22.47,0,0,1-4.54,8.91,22.77,22.77,0,0,1-8.24,6.21,26.45,26.45,0,0,1-11.07,2.25,26.94,26.94,0,0,1-13.14-3.15,22.41,22.41,0,0,1-9-9,27.79,27.79,0,0,1-3.24-13.68,28.1,28.1,0,0,1,3.2-13.68,22.1,22.1,0,0,1,9-9,27.13,27.13,0,0,1,13.23-3.15,26.85,26.85,0,0,1,13,3.06,22,22,0,0,1,8.87,8.73,26.5,26.5,0,0,1,3.19,13.23A39.29,39.29,0,0,1,503,433.25Zm-14.4-41.67-21.69,9.09V390.05l21.69-10.44Zm-1.08,33.12a7.91,7.91,0,0,0-2.7-6.3,9.94,9.94,0,0,0-6.75-2.34,9.73,9.73,0,0,0-6.52,2.25,10,10,0,0,0-3.29,6.39Z"/><path class="cls-4" d="M529.42,440.27l10.89-35.82h16.38l-17.82,50.22h-19l-17.82-50.22h16.47Z"/><path class="cls-4" d="M605.74,433.25H570.91a10.48,10.48,0,0,0,3,7.16,9.2,9.2,0,0,0,6.52,2.47q5.76,0,8-4.86h16.38a22.47,22.47,0,0,1-4.54,8.91,22.77,22.77,0,0,1-8.24,6.21A26.45,26.45,0,0,1,581,455.39a26.94,26.94,0,0,1-13.14-3.15,22.41,22.41,0,0,1-9-9,27.79,27.79,0,0,1-3.24-13.68,28.1,28.1,0,0,1,3.2-13.68,22.1,22.1,0,0,1,9-9A27.13,27.13,0,0,1,581,403.73a26.85,26.85,0,0,1,13,3.06,22,22,0,0,1,8.87,8.73A26.5,26.5,0,0,1,606,428.75,39.29,39.29,0,0,1,605.74,433.25Zm-14.4-43.2v10.62l-21.69-9.09v-12Zm-1.08,34.65a7.91,7.91,0,0,0-2.7-6.3,9.94,9.94,0,0,0-6.75-2.34,9.73,9.73,0,0,0-6.52,2.25A10,10,0,0,0,571,424.7Z"/><path class="cls-4" d="M654.3,409.62q5.26,5.73,5.26,15.71v29.34h-15.3V427.4q0-5-2.61-7.83a10.23,10.23,0,0,0-14,0Q625,422.36,625,427.4v27.27H609.61V404.45H625v6.66a16.33,16.33,0,0,1,6.3-5.27,20.16,20.16,0,0,1,8.91-1.93Q649,403.91,654.3,409.62Z"/><path class="cls-4" d="M712.84,433.25H678a10.48,10.48,0,0,0,3,7.16,9.2,9.2,0,0,0,6.52,2.47q5.76,0,8-4.86h16.38a22.47,22.47,0,0,1-4.54,8.91,22.77,22.77,0,0,1-8.24,6.21,26.45,26.45,0,0,1-11.07,2.25A26.94,26.94,0,0,1,675,452.24a22.41,22.41,0,0,1-9-9,27.79,27.79,0,0,1-3.24-13.68,28.1,28.1,0,0,1,3.2-13.68,22.1,22.1,0,0,1,9-9,27.13,27.13,0,0,1,13.23-3.15,26.85,26.85,0,0,1,13,3.06,22,22,0,0,1,8.87,8.73,26.5,26.5,0,0,1,3.19,13.23A39.29,39.29,0,0,1,712.84,433.25Zm-15.48-8.55a7.91,7.91,0,0,0-2.7-6.3,9.94,9.94,0,0,0-6.75-2.34,9.73,9.73,0,0,0-6.52,2.25,10,10,0,0,0-3.29,6.39Z"/><path class="cls-4" d="M795.69,409.58q5.53,5.67,5.53,15.75v29.34h-15.3V427.4c0-3.24-.85-5.74-2.56-7.52a10.74,10.74,0,0,0-14.13,0c-1.71,1.78-2.57,4.28-2.57,7.52v27.27h-15.3V427.4c0-3.24-.85-5.74-2.56-7.52a10.74,10.74,0,0,0-14.13,0c-1.71,1.78-2.57,4.28-2.57,7.52v27.27H716.71V404.45H732.1v6.3a16.58,16.58,0,0,1,6.12-5,19.38,19.38,0,0,1,8.55-1.84,20.82,20.82,0,0,1,10.13,2.43,17.41,17.41,0,0,1,7,6.93,20.23,20.23,0,0,1,7.11-6.75,19.21,19.21,0,0,1,9.81-2.61Q790.15,403.91,795.69,409.58Z"/><path class="cls-4" d="M854.59,433.25H819.76a10.48,10.48,0,0,0,3,7.16,9.2,9.2,0,0,0,6.52,2.47q5.76,0,8-4.86h16.38a22.47,22.47,0,0,1-4.54,8.91,22.77,22.77,0,0,1-8.24,6.21,26.45,26.45,0,0,1-11.07,2.25,26.94,26.94,0,0,1-13.14-3.15,22.41,22.41,0,0,1-9-9,27.79,27.79,0,0,1-3.24-13.68,28.1,28.1,0,0,1,3.2-13.68,22.1,22.1,0,0,1,9-9,27.13,27.13,0,0,1,13.23-3.15,26.85,26.85,0,0,1,13,3.06,22,22,0,0,1,8.87,8.73,26.5,26.5,0,0,1,3.19,13.23A39.29,39.29,0,0,1,854.59,433.25Zm-15.48-8.55a7.91,7.91,0,0,0-2.7-6.3,9.94,9.94,0,0,0-6.75-2.34,9.73,9.73,0,0,0-6.52,2.25,10,10,0,0,0-3.29,6.39Z"/><path class="cls-4" d="M903.15,409.62q5.26,5.73,5.26,15.71v29.34h-15.3V427.4q0-5-2.61-7.83a10.23,10.23,0,0,0-14,0q-2.61,2.79-2.61,7.83v27.27H858.46V404.45h15.39v6.66a16.33,16.33,0,0,1,6.3-5.27,20.16,20.16,0,0,1,8.91-1.93Q897.88,403.91,903.15,409.62Z"/><path class="cls-4" d="M942.61,441.62v13.05h-7.83q-8.37,0-13-4.09t-4.68-13.37v-20h-6.12V404.45h6.12V392.21h15.39v12.24h10.08v12.78H932.44v20.16a4.22,4.22,0,0,0,1.08,3.24,5.27,5.27,0,0,0,3.6,1Z"/><path class="cls-4" d="M955.39,453.14a20,20,0,0,1-8.1-6.17A16.17,16.17,0,0,1,944,438.2h15.21a5.85,5.85,0,0,0,2.43,4.23,8.6,8.6,0,0,0,5.31,1.62,7.54,7.54,0,0,0,4.46-1.13,3.44,3.44,0,0,0,1.57-2.92,3.39,3.39,0,0,0-2.25-3.2,46.62,46.62,0,0,0-7.29-2.29,66.87,66.87,0,0,1-9-2.66,15.43,15.43,0,0,1-6.21-4.4,12,12,0,0,1-2.61-8.15,13.94,13.94,0,0,1,2.38-7.88,16.09,16.09,0,0,1,7-5.62,26.82,26.82,0,0,1,11-2.07q9.45,0,14.9,4.68a18.25,18.25,0,0,1,6.25,12.42H972.94a6.16,6.16,0,0,0-2.29-4.14,8,8,0,0,0-5.09-1.53,7,7,0,0,0-4.14,1A3.3,3.3,0,0,0,960,419a3.47,3.47,0,0,0,2.3,3.24,36.46,36.46,0,0,0,7.15,2.16,78.39,78.39,0,0,1,9.09,2.83,15.89,15.89,0,0,1,6.17,4.5,12.8,12.8,0,0,1,2.74,8.33A13.24,13.24,0,0,1,985,448a16.39,16.39,0,0,1-7.12,5.45,27.17,27.17,0,0,1-10.75,2A28.86,28.86,0,0,1,955.39,453.14Z"/></g><path class="cls-4" d="M522.14,482c16.52,38.23-59.28,61.84-66.3,93.71-6.48,29.24,45,63.25,45,63.25-7.81-12.11-13.47-22.11-21.31-41C466.28,566.14,560.25,537.32,522.14,482Zm50.25,53s-66.37,4.2-69.75,46.68c-1.51,18.92,17.43,29,18,42.78C521.06,635.65,509.3,645,509.3,645s21.33-4,28-21.17c7.4-19-14.34-32-12.15-47.27C527.28,562,572.39,535,572.39,535Zm16.1,98.12c-7-.3-14.67,2-21.67,7,13.71-2.93,25.3,5.45,25.3,15.12,0,21.78-31.47,42.36-31.47,42.36s48.72-5.56,48.72-41.33c0-14.8-9.37-22.64-20.88-23.18Zm-120.45,0s-60.81-.82-60.81,16.38c0,18,79.63,19.25,136.5,8.17,0,0,15.19-10.4,19.22-14.27-37.27,7.6-122.32,8.61-122.32,2,0-6,27.37-12.26,27.37-12.26Zm-14.69,33.47c-9.32,0-23.23,7.2-23.23,14.15,0,14,70.24,24.74,122.25,4.32l-18-11c-35.25,11.28-100.24,7.66-81-7.45ZM462,697.85c-12.79,0-21.07,7.88-21.07,13.7,0,17.93,76.34,19.74,106.59,1.5L528.3,700.83C505.71,710.38,449,711.67,462,697.85Zm-42.6,16.24C398.57,713.66,385,723,385,730.8c0,41.3,213.43,39.31,213.43-2.91,0-7-8.26-10.33-11.24-11.93,17.44,40.37-174.54,37.25-174.54,13.43,0-5.42,14.08-10.75,27.18-8.19l-11.1-6.32a69.34,69.34,0,0,0-9.32-.79ZM621,741.87c-32.46,30.75-114.7,42-197.4,23C506.25,798.67,620.55,779.64,621,741.87Z"/></svg>