<svg id="Calque_1" data-name="Calque 1" xmlns="http://www.w3.org/2000/svg" viewBox="0 0 600 584"><defs><style>.cls-1{fill:#ff0513;}</style></defs><path class="cls-1" d="M425.16,745.28c-24.13,0-24.13-33.66,0-33.66H585.09c24.16,0,24.18,33.66,0,33.66Z" transform="translate(-259 -208)"/><path class="cls-1" d="M434.63,757.25h139.7c-16.9,18.67-38.67,34.75-69,34.75C473.89,792,453.25,774.37,434.63,757.25Z" transform="translate(-259 -208)"/><path class="cls-1" d="M395.46,699.24c-30.12,0-30.14-33.65,0-33.65H614.81c30.14,0,30.13,33.65,0,33.65Z" transform="translate(-259 -208)"/><path class="cls-1" d="M365.09,653.23v-98.5L776.33,246l-16.64-12.48L859,208l-34.06,74.52-18.76-14.08L724.12,330c43,71.79,9.63,133-78.62,235.27v88.57H575.43c-28.17,0-28.15-31.28,0-31.28h27.84V556.14C701.41,444.34,713,401.26,691.72,354.37l-284.4,213.5V622.6h32c28.25,0,28.05,31.28,0,31.28C364.69,653.92,372.47,653.91,365.09,653.23Z" transform="translate(-259 -208)"/><path class="cls-1" d="M316.05,509.13c33.39-25.06-10.89,7.59,300.48-221l-17.81-13.38L698,249.17,664,323.7l-17.59-13.2C423,472.76,491.64,422.14,339,536.69,329.34,525.38,325.25,520.61,316.05,509.13Z" transform="translate(-259 -208)"/><path class="cls-1" d="M259,396.85c0,30.35,24.2,67.11,41.66,92,35.95-27,2.42-1.68,195.3-147.47l19.1,14.34,34.06-74.52-99.29,25.55L466.11,319,312.78,434.9C257.57,326.44,423.92,219.42,581.52,268.2l31.84-23.47C452.11,184.65,259,268.4,259,396.85Z" transform="translate(-259 -208)"/><path class="cls-1" d="M521.67,437.2q10,15,19.89,29.9L691.72,354.37c21.24,46.89,9.69,90-88.45,201.77v4.24q21.11,32,42.23,64v-59C739.6,456.22,764.85,398,724.12,330l82.06-61.6,18.76,14.08L859,208l-99.31,25.56L776.33,246Z" transform="translate(-259 -208)"/><path class="cls-1" d="M486,383.94q9.71,14.44,19.37,28.9c28.5-20.69,70-50.73,141-102.34L664,323.7l34-74.53-99.3,25.56,17.81,13.38C563.39,327.15,520.59,358.55,486,383.94Z" transform="translate(-259 -208)"/><path class="cls-1" d="M515.06,355.72l34.06-74.52-99.29,25.55L466.11,319,450.2,331q10.11,14.83,20.14,29.73L496,341.38Z" transform="translate(-259 -208)"/><path class="cls-1" d="M409.71,272.05c50-18.32,111.5-22.51,171.81-3.85l31.84-23.47c-75-27.93-156.82-24.74-223-.44Q400.09,258.15,409.71,272.05Z" transform="translate(-259 -208)"/></svg>