<svg id="Calque_1" data-name="Calque 1" xmlns="http://www.w3.org/2000/svg" viewBox="0 0 1007 1007"><defs><style>.cls-1{fill:#f9f1e6;}.cls-2{fill:none;stroke:red;stroke-miterlimit:10;stroke-width:7px;}.cls-3{font-size:90px;font-family:Poppins-Bold, Poppins;font-weight:700;letter-spacing:-0.05em;}.cls-3,.cls-4{fill:#ff0513;}</style></defs><rect class="cls-1" x="3" y="3" width="1000" height="1000"/><rect class="cls-2" x="3.5" y="3.5" width="1000" height="1000"/><text class="cls-3" transform="translate(31.55 454.67)">Gestion d’évènements</text><path class="cls-4" d="M519.14,479c16.52,38.23-59.28,61.84-66.3,93.71-6.48,29.24,45,63.25,45,63.25-7.81-12.11-13.47-22.11-21.31-41C463.28,563.14,557.25,534.32,519.14,479Zm50.25,53s-66.37,4.2-69.75,46.68c-1.51,18.92,17.43,29,18,42.78C518.06,632.65,506.3,642,506.3,642s21.33-4,28-21.17c7.4-19-14.34-32-12.15-47.27C524.28,559,569.39,532,569.39,532Zm16.1,98.12c-7-.3-14.67,2-21.67,7,13.71-2.93,25.3,5.45,25.3,15.12,0,21.78-31.47,42.36-31.47,42.36s48.72-5.56,48.72-41.33C606.37,638.47,597,630.63,585.49,630.09Zm-120.45,0s-60.81-.82-60.81,16.38c0,18,79.63,19.25,136.5,8.17,0,0,15.19-10.4,19.22-14.27-37.27,7.6-122.32,8.61-122.32,2C437.63,636.38,465,630.14,465,630.14Zm-14.69,33.47c-9.32,0-23.23,7.2-23.23,14.15,0,14,70.24,24.74,122.25,4.32l-18-11C496.12,682.34,431.13,678.72,450.35,663.61ZM459,694.85c-12.79,0-21.07,7.88-21.07,13.7,0,17.93,76.34,19.74,106.59,1.5l-19.22-12.22C502.71,707.38,446,708.67,459,694.85Zm-42.6,16.24C395.57,710.66,382,720,382,727.8c0,41.3,213.43,39.31,213.43-2.91,0-7-8.26-10.33-11.24-11.93,17.44,40.37-174.54,37.25-174.54,13.43,0-5.42,14.08-10.75,27.18-8.19l-11.1-6.32A69.52,69.52,0,0,0,416.41,711.09ZM618,738.87c-32.46,30.75-114.7,42-197.4,23C503.25,795.67,617.55,776.64,618,738.87Z" transform="translate(3 3)"/></svg>