<svg id="Calque_1" data-name="Calque 1" xmlns="http://www.w3.org/2000/svg" viewBox="0 0 1007 1007"><defs><style>.cls-1{fill:#f9f1e6;}.cls-2{fill:none;stroke:red;stroke-miterlimit:10;stroke-width:7px;}.cls-3{isolation:isolate;}.cls-4{fill:#ff0513;}</style></defs><rect class="cls-1" x="3" y="3" width="1000" height="1000"/><rect class="cls-2" x="3.5" y="3.5" width="1000" height="1000"/><g class="cls-3"><path class="cls-4" d="M407.26,370.43v84.24H386.74V404.15L367.9,454.67H351.34l-19-50.64v50.64H311.86V370.43H336.1l23.64,58.32,23.4-58.32Z"/><path class="cls-4" d="M490.78,426.11H444.34q.48,6.24,4,9.54a12.28,12.28,0,0,0,8.7,3.3q7.68,0,10.68-6.48h21.84a30,30,0,0,1-6.06,11.88,30.34,30.34,0,0,1-11,8.28,35.27,35.27,0,0,1-14.76,3,35.92,35.92,0,0,1-17.52-4.2,29.87,29.87,0,0,1-12-12,37,37,0,0,1-4.32-18.24A37.47,37.47,0,0,1,428.2,403a29.49,29.49,0,0,1,11.94-12,36.17,36.17,0,0,1,17.64-4.2,35.81,35.81,0,0,1,17.28,4.08,29.3,29.3,0,0,1,11.82,11.64,35.33,35.33,0,0,1,4.26,17.64A52.38,52.38,0,0,1,490.78,426.11Zm-19.2-55.56-28.92,12.12V368.51l28.92-13.92Zm-1.44,44.16a10.55,10.55,0,0,0-3.6-8.4,13.25,13.25,0,0,0-9-3.12,13,13,0,0,0-8.7,3,13.32,13.32,0,0,0-4.38,8.52Z"/><path class="cls-4" d="M545.26,437.27v17.4H534.82q-11.16,0-17.4-5.46t-6.24-17.82V404.75H503v-17h8.16V371.39H531.7v16.32h13.44v17H531.7v26.88q0,3,1.44,4.32t4.8,1.32Z"/><path class="cls-4" d="M625.42,426.11H579q.48,6.24,4,9.54a12.28,12.28,0,0,0,8.7,3.3q7.68,0,10.68-6.48h21.84a30,30,0,0,1-6.06,11.88,30.34,30.34,0,0,1-11,8.28,35.27,35.27,0,0,1-14.76,3,35.92,35.92,0,0,1-17.52-4.2,29.87,29.87,0,0,1-12-12,37,37,0,0,1-4.32-18.24A37.47,37.47,0,0,1,562.84,403a29.49,29.49,0,0,1,11.94-12,36.17,36.17,0,0,1,17.64-4.2,35.81,35.81,0,0,1,17.28,4.08,29.3,29.3,0,0,1,11.82,11.64,35.33,35.33,0,0,1,4.26,17.64A52.38,52.38,0,0,1,625.42,426.11Zm-20.64-11.4a10.55,10.55,0,0,0-3.6-8.4,13.25,13.25,0,0,0-9-3.12,13,13,0,0,0-8.7,3,13.32,13.32,0,0,0-4.38,8.52Z"/><path class="cls-4" d="M655.36,451.43a30.75,30.75,0,0,1-12.36-12,38.87,38.87,0,0,1,.06-36.42A30.94,30.94,0,0,1,655.54,391a39.65,39.65,0,0,1,35.52,0A30.94,30.94,0,0,1,703.54,403a35.57,35.57,0,0,1,4.56,18.18,35.21,35.21,0,0,1-4.62,18.18,31.24,31.24,0,0,1-12.6,12.06,37.67,37.67,0,0,1-17.82,4.2A37,37,0,0,1,655.36,451.43Zm27.72-17.88q4.14-4.32,4.14-12.36t-4-12.36a13.64,13.64,0,0,0-19.86-.06q-4,4.26-4,12.42t3.9,12.36a12.62,12.62,0,0,0,9.78,4.32A13.37,13.37,0,0,0,683.08,433.55Z"/></g><path class="cls-4" d="M634.51,481.77h-263a19.16,19.16,0,0,0-19.14,19.13v263A19.15,19.15,0,0,0,371.52,783h263a19.14,19.14,0,0,0,19.14-19.11v-263A19.13,19.13,0,0,0,634.51,481.77ZM517.34,712.6c0,28.66-16.81,41.71-41.35,41.71-22.19,0-38.18-14.88-44.71-28.69L453.83,712c4.34,7.7,11,13.64,20.48,13.64,9.11,0,14.35-3.56,14.35-17.4V618h28.68Zm62.23,41.71c-25.41,0-39.84-12.8-47.88-28.69l21.52-14.34C559.06,720.86,565.45,730,579,730c11.35,0,17.29-5.66,17.29-13.5,0-9.36-6.17-12.69-18.63-18.16l-6.84-2.94c-19.75-8.4-32.89-18.94-32.89-41.24,0-20.51,15.66-36.14,40.09-36.14,17.4,0,29.89,6.05,38.92,21.91l-21.3,13.7c-4.7-8.43-9.75-11.74-17.62-11.74s-13.08,5.1-13.08,11.74c0,8.21,5.07,11.51,16.81,16.61l6.83,2.94c23.28,10,36.4,20.12,36.4,43C624.93,740.81,605.57,754.31,579.57,754.31Z"/></svg>