<svg id="Calque_1" data-name="Calque 1" xmlns="http://www.w3.org/2000/svg" viewBox="0 0 1007 1007"><defs><style>.cls-1{fill:#f9f1e6;}.cls-2{fill:none;stroke:red;stroke-miterlimit:10;stroke-width:7px;}.cls-3{font-size:120px;font-family:Poppins-Bold, Poppins;font-weight:700;letter-spacing:0.05em;}.cls-3,.cls-4{fill:#ff0513;}</style></defs><rect class="cls-1" x="3" y="3" width="1000" height="1000"/><rect class="cls-2" x="3.5" y="3.5" width="1000" height="1000"/><text class="cls-3" transform="translate(304.42 454.67)">Méteo</text><path class="cls-4" d="M631.51,478.77h-263a19.15,19.15,0,0,0-19.14,19.13v263A19.15,19.15,0,0,0,368.52,780h263a19.14,19.14,0,0,0,19.14-19.11v-263A19.14,19.14,0,0,0,631.51,478.77ZM514.34,709.6c0,28.66-16.81,41.71-41.35,41.71-22.19,0-38.18-14.88-44.71-28.69L450.83,709c4.34,7.7,11,13.64,20.48,13.64,9.11,0,14.35-3.56,14.35-17.4V615h28.68Zm62.23,41.71c-25.41,0-39.84-12.8-47.88-28.69l21.52-14.34C556.06,717.86,562.45,727,576,727c11.35,0,17.29-5.66,17.29-13.5,0-9.36-6.17-12.69-18.63-18.16l-6.84-2.94c-19.75-8.4-32.89-18.94-32.89-41.24,0-20.51,15.66-36.14,40.09-36.14,17.4,0,29.89,6.05,38.92,21.91l-21.3,13.7c-4.7-8.43-9.75-11.74-17.62-11.74s-13.08,5.1-13.08,11.74c0,8.21,5.07,11.51,16.81,16.61l6.83,2.94c23.28,9.95,36.4,20.12,36.4,43C621.93,737.81,602.57,751.31,576.57,751.31Z" transform="translate(3 3)"/></svg>