<svg id="Calque_1" data-name="Calque 1" xmlns="http://www.w3.org/2000/svg" viewBox="0 0 724 584"><defs><style>.cls-1{fill:#ff010b;}</style></defs><polygon class="cls-1" points="605.52 448.49 577.38 400.39 667.72 245.99 577.38 91.59 605.52 43.49 724 245.99 605.52 448.49"/><polygon class="cls-1" points="577.38 91.59 667.72 245.99 724 245.99 605.52 43.49 577.38 91.59"/><polygon class="cls-1" points="118.48 448.49 0 245.99 118.48 43.49 146.62 91.59 56.28 245.99 146.62 400.39 118.48 448.49"/><polygon class="cls-1" points="146.62 91.59 118.48 43.49 0 245.99 56.28 245.99 146.62 91.59"/><polygon class="cls-1" points="301.56 584 264.75 558.15 376.84 92.02 413.65 117.87 301.56 584"/><polygon class="cls-1" points="339.81 245.99 382.84 245.99 413.65 117.87 376.84 92.02 339.81 245.99"/><polygon class="cls-1" points="430.25 491.99 393.43 466.14 505.52 0 542.34 25.85 430.25 491.99"/><polygon class="cls-1" points="446.37 245.99 489.4 245.99 542.34 25.85 505.52 0 446.37 245.99"/><polygon class="cls-1" points="217.69 491.99 180.87 466.14 292.96 0 329.78 25.85 217.69 491.99"/><polygon class="cls-1" points="233.81 245.99 276.84 245.99 329.78 25.85 292.96 0 233.81 245.99"/></svg>