<svg id="Calque_1" data-name="Calque 1" xmlns="http://www.w3.org/2000/svg" viewBox="0 0 724.54 583.75"><defs><style>.cls-1{fill:#ff010b;}</style></defs><path class="cls-1" d="M709.64,791.88H684.28V736.72h25.36a44.54,44.54,0,0,0,44.49-44.49V553a80.24,80.24,0,0,1,19.92-53,80.24,80.24,0,0,1-19.92-53V307.78a44.54,44.54,0,0,0-44.49-44.5H684.28V208.12h25.36a99.77,99.77,0,0,1,99.65,99.66V447a25.44,25.44,0,0,0,25.4,25.4,27.58,27.58,0,0,1,0,55.16,25.44,25.44,0,0,0-25.4,25.4V692.23A99.77,99.77,0,0,1,709.64,791.88Z" transform="translate(-137.73 -208.12)"/><path class="cls-1" d="M834.69,472.42a25.44,25.44,0,0,1-25.4-25.4V307.78a99.77,99.77,0,0,0-99.65-99.66H684.28v55.16h25.36a44.54,44.54,0,0,1,44.49,44.5V447a80.13,80.13,0,0,0,15.48,47.43h92.1A27.59,27.59,0,0,0,834.69,472.42Z" transform="translate(-137.73 -208.12)"/><path class="cls-1" d="M562.29,718.94H543.41V674.81h18.88a31.67,31.67,0,0,0,31.63-31.63V539.47A61.27,61.27,0,0,1,608.28,500a61.23,61.23,0,0,1-14.36-39.46V356.82a31.66,31.66,0,0,0-31.63-31.62H543.41V281.08h18.88A75.83,75.83,0,0,1,638,356.82V460.54a17.41,17.41,0,0,0,17.4,17.4,22.06,22.06,0,0,1,0,44.12A17.42,17.42,0,0,0,638,539.47V643.18A75.84,75.84,0,0,1,562.29,718.94Z" transform="translate(-137.73 -208.12)"/><path class="cls-1" d="M655.44,477.94a17.41,17.41,0,0,1-17.4-17.4V356.82a75.83,75.83,0,0,0-75.75-75.74H543.41V325.2h18.88a31.66,31.66,0,0,1,31.63,31.62V460.54a60.9,60.9,0,0,0,10.45,33.91h72.34A22,22,0,0,0,655.44,477.94Z" transform="translate(-137.73 -208.12)"/><path class="cls-1" d="M315.73,791.88H290.37a99.77,99.77,0,0,1-99.66-99.65V553a25.44,25.44,0,0,0-25.4-25.4,27.58,27.58,0,1,1,0-55.16,25.44,25.44,0,0,0,25.4-25.4V307.78a99.78,99.78,0,0,1,99.66-99.66h25.36v55.16H290.37a44.55,44.55,0,0,0-44.5,44.5V447A80.24,80.24,0,0,1,226,500a80.24,80.24,0,0,1,19.92,53V692.23a44.54,44.54,0,0,0,44.5,44.49h25.36Z" transform="translate(-137.73 -208.12)"/><path class="cls-1" d="M190.71,307.78V447a25.44,25.44,0,0,1-25.4,25.4,27.59,27.59,0,0,0-27,22h92.1A80.13,80.13,0,0,0,245.87,447V307.78a44.55,44.55,0,0,1,44.5-44.5h25.36V208.12H290.37A99.78,99.78,0,0,0,190.71,307.78Z" transform="translate(-137.73 -208.12)"/><path class="cls-1" d="M456.6,718.94H437.72A75.85,75.85,0,0,1,362,643.18V539.47a17.42,17.42,0,0,0-17.4-17.41,22.06,22.06,0,0,1,0-44.12,17.41,17.41,0,0,0,17.4-17.4V356.82a75.83,75.83,0,0,1,75.76-75.74H456.6V325.2H437.72a31.66,31.66,0,0,0-31.63,31.62V460.54A61.23,61.23,0,0,1,391.73,500a61.27,61.27,0,0,1,14.36,39.47V643.18a31.66,31.66,0,0,0,31.63,31.63H456.6Z" transform="translate(-137.73 -208.12)"/><path class="cls-1" d="M362,356.82V460.54a17.41,17.41,0,0,1-17.4,17.4,22,22,0,0,0-21.27,16.51h72.34a60.91,60.91,0,0,0,10.46-33.91V356.82a31.66,31.66,0,0,1,31.63-31.62H456.6V281.08H437.72A75.83,75.83,0,0,0,362,356.82Z" transform="translate(-137.73 -208.12)"/></svg>