<svg id="Calque_1" data-name="Calque 1" xmlns="http://www.w3.org/2000/svg" viewBox="0 0 1007 1007"><defs><style>.cls-1{fill:#f9f1e6;}.cls-2{fill:none;stroke:red;stroke-miterlimit:10;stroke-width:7px;}.cls-3{isolation:isolate;}.cls-4,.cls-5{fill:#ff0513;}.cls-5{fill-rule:evenodd;}</style></defs><rect class="cls-1" x="3" y="3" width="1000" height="1000"/><rect class="cls-2" x="3.5" y="3.5" width="1000" height="1000"/><g class="cls-3"><path class="cls-4" d="M293.14,410.93a24.7,24.7,0,0,1-10.32,9.78q-7,3.72-17.28,3.72H252.82v30.24H232.3V370.43h33.24q10.08,0,17,3.48a23.92,23.92,0,0,1,10.44,9.6,27.9,27.9,0,0,1,3.48,14A27.13,27.13,0,0,1,293.14,410.93Zm-20.4-5.58q2.88-2.76,2.88-7.8t-2.88-7.8Q269.86,387,264,387H252.82v21.12H264Q269.86,408.11,272.74,405.35Z"/><path class="cls-4" d="M326,451.43a30.75,30.75,0,0,1-12.36-12,38.87,38.87,0,0,1,.06-36.42A30.94,30.94,0,0,1,326.14,391a39.65,39.65,0,0,1,35.52,0A30.94,30.94,0,0,1,374.14,403a35.57,35.57,0,0,1,4.56,18.18,35.21,35.21,0,0,1-4.62,18.18,31.24,31.24,0,0,1-12.6,12.06,37.67,37.67,0,0,1-17.82,4.2A37,37,0,0,1,326,451.43Zm27.72-17.88q4.14-4.32,4.14-12.36t-4-12.36a13.64,13.64,0,0,0-19.86-.06q-4,4.26-4,12.42t3.9,12.36a12.62,12.62,0,0,0,9.78,4.32A13.37,13.37,0,0,0,353.68,433.55Z"/><path class="cls-4" d="M425.14,390.17a23.21,23.21,0,0,1,12-3.18v21.72H431.5q-7.68,0-11.52,3.3t-3.84,11.58v31.08H395.62v-67h20.52v11.16A27.07,27.07,0,0,1,425.14,390.17Z"/><path class="cls-4" d="M490.3,437.27v17.4H479.86q-11.16,0-17.4-5.46t-6.24-17.82V404.75h-8.16v-17h8.16V371.39h20.52v16.32h13.44v17H476.74v26.88q0,3,1.44,4.32t4.8,1.32Z"/><path class="cls-4" d="M541.3,404.75h-11v49.92H509.74V404.75H502.3v-17h7.44v-1.92q0-12.36,7.08-18.78t20.76-6.42q2.28,0,3.36.12v17.4q-5.88-.36-8.28,1.68t-2.4,7.32v.6h11Z"/><path class="cls-4" d="M569.67,451.43a30.75,30.75,0,0,1-12.36-12,35.86,35.86,0,0,1-4.5-18.24A35.47,35.47,0,0,1,557.38,403,30.92,30.92,0,0,1,569.85,391a39.67,39.67,0,0,1,35.53,0A30.92,30.92,0,0,1,617.85,403a35.57,35.57,0,0,1,4.57,18.18,35.21,35.21,0,0,1-4.63,18.18,31.28,31.28,0,0,1-12.59,12.06,37.72,37.72,0,0,1-17.82,4.2A37,37,0,0,1,569.67,451.43Zm27.72-17.88q4.15-4.32,4.15-12.36t-4-12.36a13.63,13.63,0,0,0-19.85-.06c-2.65,2.84-4,7-4,12.42s1.29,9.48,3.89,12.36a12.63,12.63,0,0,0,9.79,4.32A13.36,13.36,0,0,0,597.39,433.55Z"/><path class="cls-4" d="M659.85,365.87v88.8H639.33v-88.8Z"/><path class="cls-4" d="M682.23,377.57a10.3,10.3,0,0,1-3.42-7.86,10.44,10.44,0,0,1,3.42-8,12.44,12.44,0,0,1,8.82-3.18,12.27,12.27,0,0,1,8.7,3.18,10.44,10.44,0,0,1,3.42,8,10.3,10.3,0,0,1-3.42,7.86,12.27,12.27,0,0,1-8.7,3.18A12.44,12.44,0,0,1,682.23,377.57Zm19,10.14v67H680.73v-67Z"/><path class="cls-4" d="M734.91,451.43a30.75,30.75,0,0,1-12.36-12,38.87,38.87,0,0,1,.06-36.42A30.94,30.94,0,0,1,735.09,391a39.65,39.65,0,0,1,35.52,0A30.94,30.94,0,0,1,783.09,403a35.57,35.57,0,0,1,4.56,18.18A35.21,35.21,0,0,1,783,439.37a31.24,31.24,0,0,1-12.6,12.06,37.67,37.67,0,0,1-17.82,4.2A37,37,0,0,1,734.91,451.43Zm27.72-17.88q4.14-4.32,4.14-12.36t-4-12.36a13.64,13.64,0,0,0-19.86-.06q-4,4.26-4,12.42t3.9,12.36a12.62,12.62,0,0,0,9.78,4.32A13.37,13.37,0,0,0,762.63,433.55Z"/></g><path class="cls-4" d="M615.24,503H420.55a14.18,14.18,0,0,0-14.16,14.17V711.83A14.18,14.18,0,0,0,420.55,726H615.22a14.18,14.18,0,0,0,14.17-14.14V517.17A14.17,14.17,0,0,0,615.24,503ZM528.51,673.88c0,21.22-12.45,30.88-30.62,30.88-16.42,0-28.27-11-33.1-21.24l16.7-10.1c3.21,5.71,8.11,10.1,15.16,10.1,6.74,0,10.62-2.63,10.62-12.88V603.88h21.24Zm46.06,30.88c-18.81,0-29.49-9.48-35.45-21.24l15.93-10.62c4.34,7.1,9.07,13.88,19.06,13.88,8.4,0,12.8-4.19,12.8-10,0-6.92-4.56-9.39-13.79-13.44l-5.06-2.17c-14.62-6.23-24.35-14-24.35-30.53,0-15.19,11.59-26.76,29.68-26.76,12.88,0,22.13,4.48,28.81,16.22l-15.77,10.14c-3.48-6.24-7.21-8.69-13-8.69s-9.69,3.78-9.69,8.69c0,6.08,3.76,8.53,12.45,12.3l5.06,2.18c17.23,7.36,26.94,14.89,26.94,31.81C608.15,694.77,593.82,704.76,574.57,704.76Z"/><path class="cls-4" d="M884.73,505.56a4.79,4.79,0,0,0-3.55-1.56h-188a4.79,4.79,0,0,0-3.55,1.56,4.7,4.7,0,0,0-1.24,3.68L705.29,699a4.8,4.8,0,0,0,3.48,4.21l77.06,22a4.47,4.47,0,0,0,1.31.19,4.53,4.53,0,0,0,1.32-.19l77.11-22a4.83,4.83,0,0,0,3.48-4.21l17-189.76A4.76,4.76,0,0,0,884.73,505.56ZM844.18,571H753.65l2.16,24.5H842l-6.47,72.39-48.4,14.63-.47-.15-47.85-14.5-2.61-29.49h23.44l1,11.44,26.75,5.61,26.26-5.61,2.8-31h-82l-6.37-71.24H846.27Z"/><path class="cls-5" d="M331.58,504.17,314.14,701.75,232.79,725l-81.36-23.24L134,504.17ZM185.14,632h23.25l.56,14.53,23.84,8.13,23.83-8.13,1.73-26.15H207.23l-1.18-23.24h53.48l1.72-23.25H181.08l-1.75-23.24H285.68l-2.91,46.49L278.69,664l-45.9,15.11L186.89,664Z"/></svg>