<svg id="Calque_1" data-name="Calque 1" xmlns="http://www.w3.org/2000/svg" viewBox="0 0 1007 1007"><defs><style>.cls-1{fill:#f9f1e6;}.cls-2{fill:none;stroke:red;stroke-miterlimit:10;stroke-width:7px;}.cls-3{font-size:120px;font-family:Poppins-Bold, Poppins;font-weight:700;letter-spacing:0.05em;}.cls-3,.cls-4,.cls-5{fill:#ff0513;}.cls-5{fill-rule:evenodd;}</style></defs><rect class="cls-1" x="3" y="3" width="1000" height="1000"/><rect class="cls-2" x="3.5" y="3.5" width="1000" height="1000"/><text class="cls-3" transform="translate(224.86 454.67)">Portfolio</text><path class="cls-4" d="M612.24,500H417.55a14.17,14.17,0,0,0-14.16,14.17V708.83A14.17,14.17,0,0,0,417.55,723H612.22a14.17,14.17,0,0,0,14.17-14.14V514.17A14.17,14.17,0,0,0,612.24,500ZM525.51,670.88c0,21.22-12.45,30.88-30.62,30.88-16.42,0-28.27-11-33.1-21.24l16.7-10.1c3.21,5.71,8.11,10.1,15.16,10.1,6.74,0,10.62-2.63,10.62-12.88V600.88h21.24Zm46.06,30.88c-18.81,0-29.49-9.48-35.45-21.24l15.93-10.62c4.34,7.1,9.07,13.88,19.06,13.88,8.4,0,12.8-4.19,12.8-10,0-6.92-4.56-9.39-13.79-13.44l-5.06-2.17c-14.62-6.23-24.35-14-24.35-30.53,0-15.19,11.59-26.76,29.68-26.76,12.88,0,22.13,4.48,28.81,16.22l-15.77,10.14c-3.48-6.24-7.21-8.69-13-8.69s-9.69,3.78-9.69,8.69c0,6.08,3.76,8.53,12.45,12.3l5.06,2.18c17.23,7.36,26.94,14.89,26.94,31.81C605.15,691.77,590.82,701.76,571.57,701.76Z" transform="translate(3 3)"/><path class="cls-4" d="M881.73,502.56a4.78,4.78,0,0,0-3.55-1.56h-188a4.78,4.78,0,0,0-3.55,1.56,4.71,4.71,0,0,0-1.24,3.68L702.29,696a4.81,4.81,0,0,0,3.48,4.21l77.06,22a4.37,4.37,0,0,0,1.31.19,4.48,4.48,0,0,0,1.32-.19l77.11-22a4.84,4.84,0,0,0,3.48-4.21L883,506.24A4.75,4.75,0,0,0,881.73,502.56ZM841.18,568H750.65l2.16,24.5H839l-6.47,72.39-48.4,14.63-.47-.15-47.85-14.5-2.61-29.49h23.44l1,11.44,26.75,5.61,26.26-5.61,2.8-31h-82l-6.37-71.24H843.27Z" transform="translate(3 3)"/><path class="cls-5" d="M328.58,501.17,311.14,698.75,229.79,722l-81.36-23.24L131,501.17ZM182.14,629h23.25l.56,14.53,23.84,8.13,23.83-8.13,1.73-26.15H204.23l-1.18-23.24h53.48l1.72-23.25H178.08l-1.75-23.24H282.68l-2.91,46.49L275.69,661l-45.9,15.11L183.89,661Z" transform="translate(3 3)"/></svg>