<svg id="Object" xmlns="http://www.w3.org/2000/svg" xmlns:xlink="http://www.w3.org/1999/xlink" viewBox="0 0 442.91 345.85"><defs><style>.cls-1,.cls-5,.cls-6{fill:none;}.cls-2{clip-path:url(#clip-path);}.cls-3{fill:#ff0513;}.cls-4{clip-path:url(#clip-path-2);}.cls-5,.cls-6{stroke:#3a3a3a;stroke-miterlimit:10;}.cls-6{stroke-linecap:round;stroke-width:6px;}</style><clipPath id="clip-path" transform="translate(-288.67 -91.76)"><rect class="cls-1" x="261.3" y="63.23" width="1103.29" height="736"/></clipPath><clipPath id="clip-path-2" transform="translate(-288.67 -91.76)"><circle class="cls-1" cx="531.86" cy="302.11" r="138.04"/></clipPath></defs><g class="cls-2"><circle class="cls-3" cx="161.89" cy="150.14" r="150.14"/><circle class="cls-3" cx="312.65" cy="402.91" r="23.98" transform="translate(-482 247.33) rotate(-45)"/><g class="cls-4"><line class="cls-5" x1="82.4" y1="75.49" x2="442.91" y2="75.49"/><line class="cls-5" x1="82.4" y1="80.39" x2="442.91" y2="80.39"/><line class="cls-5" x1="82.4" y1="85.3" x2="442.91" y2="85.3"/><line class="cls-5" x1="82.4" y1="90.21" x2="442.91" y2="90.21"/><line class="cls-5" x1="82.4" y1="95.11" x2="442.91" y2="95.11"/><line class="cls-5" x1="82.4" y1="100.02" x2="442.91" y2="100.02"/><line class="cls-5" x1="82.4" y1="104.93" x2="442.91" y2="104.93"/><line class="cls-5" x1="82.4" y1="109.83" x2="442.91" y2="109.83"/><line class="cls-5" x1="82.4" y1="114.74" x2="442.91" y2="114.74"/><line class="cls-5" x1="82.4" y1="119.65" x2="442.91" y2="119.65"/><line class="cls-5" x1="82.4" y1="124.55" x2="442.91" y2="124.55"/><line class="cls-5" x1="82.4" y1="129.46" x2="442.91" y2="129.46"/><line class="cls-5" x1="82.4" y1="134.37" x2="442.91" y2="134.37"/><line class="cls-5" x1="82.4" y1="139.27" x2="442.91" y2="139.27"/><line class="cls-5" x1="82.4" y1="144.18" x2="442.91" y2="144.18"/><line class="cls-5" x1="82.4" y1="149.09" x2="442.91" y2="149.09"/><line class="cls-5" x1="82.4" y1="153.99" x2="442.91" y2="153.99"/><line class="cls-5" x1="82.4" y1="158.9" x2="442.91" y2="158.9"/><line class="cls-5" x1="82.4" y1="163.81" x2="442.91" y2="163.81"/><line class="cls-5" x1="82.4" y1="168.71" x2="442.91" y2="168.71"/><line class="cls-5" x1="82.4" y1="173.62" x2="442.91" y2="173.62"/><line class="cls-5" x1="82.4" y1="178.53" x2="442.91" y2="178.53"/><line class="cls-5" x1="82.4" y1="183.43" x2="442.91" y2="183.43"/><line class="cls-5" x1="82.4" y1="188.34" x2="442.91" y2="188.34"/><line class="cls-5" x1="82.4" y1="193.25" x2="442.91" y2="193.25"/><line class="cls-5" x1="82.4" y1="198.15" x2="442.91" y2="198.15"/><line class="cls-5" x1="82.4" y1="203.06" x2="442.91" y2="203.06"/><line class="cls-5" x1="82.4" y1="207.97" x2="442.91" y2="207.97"/><line class="cls-5" x1="82.4" y1="212.87" x2="442.91" y2="212.87"/><line class="cls-5" x1="82.4" y1="217.78" x2="442.91" y2="217.78"/><line class="cls-5" x1="82.4" y1="222.69" x2="442.91" y2="222.69"/><line class="cls-5" x1="82.4" y1="227.59" x2="442.91" y2="227.59"/><line class="cls-5" x1="82.4" y1="232.5" x2="442.91" y2="232.5"/><line class="cls-5" x1="82.4" y1="237.41" x2="442.91" y2="237.41"/><line class="cls-5" x1="82.4" y1="242.31" x2="442.91" y2="242.31"/><line class="cls-5" x1="82.4" y1="247.22" x2="442.91" y2="247.22"/><line class="cls-5" x1="82.4" y1="252.12" x2="442.91" y2="252.12"/><line class="cls-5" x1="82.4" y1="257.03" x2="442.91" y2="257.03"/><line class="cls-5" x1="82.4" y1="261.94" x2="442.91" y2="261.94"/><line class="cls-5" x1="82.4" y1="266.84" x2="442.91" y2="266.84"/><line class="cls-5" x1="82.4" y1="271.75" x2="442.91" y2="271.75"/><line class="cls-5" x1="82.4" y1="276.66" x2="442.91" y2="276.66"/><line class="cls-5" x1="82.4" y1="281.56" x2="442.91" y2="281.56"/><line class="cls-5" x1="82.4" y1="286.47" x2="442.91" y2="286.47"/><line class="cls-5" x1="82.4" y1="291.38" x2="442.91" y2="291.38"/><line class="cls-5" x1="82.4" y1="296.28" x2="442.91" y2="296.28"/><line class="cls-5" x1="82.4" y1="301.19" x2="442.91" y2="301.19"/><line class="cls-5" x1="82.4" y1="306.1" x2="442.91" y2="306.1"/><line class="cls-5" x1="82.4" y1="311" x2="442.91" y2="311"/><line class="cls-5" x1="82.4" y1="315.91" x2="442.91" y2="315.91"/><line class="cls-5" x1="82.4" y1="320.82" x2="442.91" y2="320.82"/><line class="cls-5" x1="82.4" y1="325.72" x2="442.91" y2="325.72"/><line class="cls-5" x1="82.4" y1="330.63" x2="442.91" y2="330.63"/><line class="cls-5" x1="82.4" y1="335.54" x2="442.91" y2="335.54"/><line class="cls-5" x1="82.4" y1="340.44" x2="442.91" y2="340.44"/><line class="cls-5" x1="82.4" y1="345.35" x2="442.91" y2="345.35"/></g><polyline class="cls-6" points="9.19 35.79 31.85 9.75 54.51 35.79"/><polyline class="cls-6" points="9.19 61.83 31.85 35.79 54.51 61.83"/><polyline class="cls-6" points="9.19 89.33 31.85 63.3 54.51 89.33"/></g></svg>