<svg id="Calque_3" data-name="Calque 3" xmlns="http://www.w3.org/2000/svg" xmlns:xlink="http://www.w3.org/1999/xlink" viewBox="0 0 691.44 719.07"><defs><style>.cls-1{clip-path:url(#clip-path);}.cls-2,.cls-3{fill:#ff0213;}.cls-2{fill-rule:evenodd;}</style><clipPath id="clip-path" transform="translate(-4073.56 -663.68)"/></defs><g class="cls-1"><polygon class="cls-2" points="429.76 588.26 432.57 589.88 435.38 591.51 435.38 594.75 435.38 598 432.57 599.62 429.76 601.24 426.95 599.62 424.14 598 424.14 594.75 424.14 591.51 426.95 589.88 429.76 588.26"/><path class="cls-2" d="M4449.47,879h-10.53v21.07H4460V879Zm6.82,17.35h-13.63V882.73h13.63Z" transform="translate(-4073.56 -663.68)"/><rect class="cls-3" x="412.09" y="706.28" width="12.79" height="12.79"/><rect class="cls-3" x="682.37" y="195.56" width="9.07" height="9.07"/><rect class="cls-3" x="240.24" y="323.64" width="19.68" height="19.68"/><rect class="cls-3" x="35.81" y="248.89" width="19.68" height="19.68"/><rect class="cls-3" x="433.99" y="14.63" width="14.31" height="14.31"/><rect class="cls-3" x="160.95" y="21.79" width="14.31" height="14.31"/><polygon class="cls-3" points="68.28 167.75 71.55 173.4 74.82 179.05 68.28 179.05 61.76 179.05 65.01 173.4 68.28 167.75"/><polygon class="cls-3" points="119.48 76.4 126.03 87.7 132.57 99.01 119.48 99.01 106.44 99.01 112.94 87.7 119.48 76.4"/><polygon class="cls-3" points="634.84 119.14 639.07 126.45 643.3 133.76 634.84 133.76 626.41 133.76 630.61 126.45 634.84 119.14"/><polygon class="cls-3" points="269.67 486.03 274.57 494.49 279.46 502.94 269.67 502.94 259.92 502.94 264.78 494.49 269.67 486.03"/><polygon class="cls-3" points="28.29 507.27 32.05 513.77 35.81 520.27 28.29 520.27 20.79 520.27 24.53 513.77 28.29 507.27"/><polygon class="cls-3" points="137.98 665.43 142.87 673.89 147.77 682.34 137.98 682.34 128.23 682.34 133.09 673.89 137.98 665.43"/><path class="cls-3" d="M4302.29,968.76a10.39,10.39,0,1,1-10.39-10.4A10.39,10.39,0,0,1,4302.29,968.76Z" transform="translate(-4073.56 -663.68)"/><circle class="cls-3" cx="294.79" cy="28.94" r="12.17"/><path class="cls-3" d="M4601.11,674.5a10.82,10.82,0,1,1-10.82-10.82A10.81,10.81,0,0,1,4601.11,674.5Z" transform="translate(-4073.56 -663.68)"/><path class="cls-3" d="M4675.05,739.24a12.15,12.15,0,1,1-12.15-12.14A12.15,12.15,0,0,1,4675.05,739.24Z" transform="translate(-4073.56 -663.68)"/><path class="cls-3" d="M4655.61,797.55a2.43,2.43,0,1,1-2.42-2.43A2.42,2.42,0,0,1,4655.61,797.55Z" transform="translate(-4073.56 -663.68)"/><circle class="cls-3" cx="612.18" cy="195.56" r="10.69"/><path class="cls-3" d="M4655.61,928.73a6.32,6.32,0,1,1-6.31-6.32A6.3,6.3,0,0,1,4655.61,928.73Z" transform="translate(-4073.56 -663.68)"/><path class="cls-3" d="M4099.6,888a5.25,5.25,0,1,1-5.24-5.25A5.25,5.25,0,0,1,4099.6,888Z" transform="translate(-4073.56 -663.68)"/><circle class="cls-3" cx="80.65" cy="564.81" r="5.83"/><circle class="cls-3" cx="4.98" cy="481.05" r="4.98"/><path class="cls-3" d="M4301.55,1079.92a6.92,6.92,0,1,1-6.92-6.93A6.92,6.92,0,0,1,4301.55,1079.92Z" transform="translate(-4073.56 -663.68)"/><path class="cls-3" d="M4367,1246.54a5.41,5.41,0,1,1-5.41-5.41A5.41,5.41,0,0,1,4367,1246.54Z" transform="translate(-4073.56 -663.68)"/><path class="cls-3" d="M4399,1283.22a4.92,4.92,0,1,1-4.92-4.92A4.91,4.91,0,0,1,4399,1283.22Z" transform="translate(-4073.56 -663.68)"/><path class="cls-3" d="M4522.48,1291a7.77,7.77,0,1,1-7.77-7.76A7.77,7.77,0,0,1,4522.48,1291Z" transform="translate(-4073.56 -663.68)"/><path class="cls-3" d="M4285.42,1350.9a4.87,4.87,0,1,1-4.87-4.87A4.87,4.87,0,0,1,4285.42,1350.9Z" transform="translate(-4073.56 -663.68)"/><path class="cls-2" d="M4575.12,1305.38c-4.83,2.24-32.59,21.85-86.61-1.15s-52.5-57.84-67.06-50.26-6.35,23.58,1.22,35.12,30.72,24.59,2.31,18.74-53.15-4.32-92.23-54.37-30.94-86.68-44.07-85.53,2.38,30.65-10.16,32.74c-8.37,1.44-16.3-29-24-61.3-19.69-82.85,39.3-110.62,24.74-125.91s-28.78,27-37,24-8.15-44.86,33-89.86,85.1-58.27,137.88-48,105.36,75.93,127.79,61.65,20-67.35-21.27-97.93-286.08-43.19-311.47,79.18-22.71,239.14,38.08,303.32,166.44,99.73,231.56,97.28,97.28-37.79,97.28-37.79Z" transform="translate(-4073.56 -663.68)"/><path class="cls-2" d="M4553.2,833.25c9,8.94-65.41-42.69-60.79-58.92S4643,827,4635.41,803s-77.23-55.09-68.29-57.4,71.18,29.71,52.43.58-119.14-46.73-217.14-28.49-132.26,52.86-126.35,32.6,54.88-44.72,32.74-51.71S4191.69,798.49,4156,882.43s-24.95,147.47-35.48,137,5.41-67.14-18.46-56.18c-49.4,29.93,3.54,231.71,116.25,323,11.83,9.59-25.31-5.12-28.41,8.37s32.23,23.8,138.6,54.88,199.18-10.68,199.18-10.68-149.78,3.83-226.29-41.61-110.27-110.91-126.49-234.51,77.09-235.24,171.34-249,207,19.54,207,19.54Z" transform="translate(-4073.56 -663.68)"/><path class="cls-2" d="M4575.12,1305.38c-141.7,57.55-313.55-14.56-357.83-175-41-148.84,64.47-369.95,342.83-200.62,46.45,28.34,61,15.14,45.22-18.82s56.9,22.28,64.33-9.24-.22-53.86-84.16-104.42c-261.78-157.78-501.05,79.47-437.38,351.56,42.77,182.74,307,276.35,427,156.56Z" transform="translate(-4073.56 -663.68)"/><path class="cls-2" d="M4575.12,1305.38c-107.66,16.66-109.11-10.09-117.9-6.49s-11.54,13.13-1.81,21-52.42-2.31-74.06-11.25-56.68-29.5-70.24-56.76-3.82-40.81-20.69-36.27,7.28,25.53-13.13,23.87-37.21-24.3-50.62-75.29,27.4-92.09,10.52-106.29-24.59,48-34,19.54-1.73-82.64,27-117.19,66.34-22.64,64-42.26-15.15-5.91-20.77-5.19,15.86-23.58,50.4-32.52,49.76-2.74,91.66,12.83,68.94-6.92,36.64-28.19-155.48-48.18-209.21-3.83-69.81,106.45-69.23,188.73,48.68,179.78,96,217.64,106.37,65.34,168.24,73.2,137.23-35.27,137.23-35.27Z" transform="translate(-4073.56 -663.68)"/><path class="cls-2" d="M4446.33,1359s-57.22-1.2-110.7-35c-27.95-17.7-19.47-38.08-34-40.67s-14.36,14.64-7.79,27.83-57.84-12.69-81.56-60.86,5.84-58.13-11.83-74.64-4.33,54.45-20.84,28-31.37-83-28.13-142.14,61.59-73.7,41.9-100.74-32,44.28-43.63,38.29,6.85-77.81,55.39-122.88,98.72-22.5,91.8-59.43-40.31-40-70.89-11.46-48.68,59-65,103.91-28.19,81.71-29.49,141.57,1.8,90.5,21.34,132.76,47.1,81.06,71,100c86.82,68.73,160.1,79.81,222.33,75.51Z" transform="translate(-4073.56 -663.68)"/><path class="cls-3" d="M4363.77,841.74c21.39,3,41.83,10.66,61.9,18.68,6.08,2.42,12.51,4.94,19,4s12.73-6.8,11.58-13.25c-1.12-6.26-8.41-10.36-8.6-16.72-.14-4.91,4.38-9,9.2-10s9.77.4,14.43,2c45.73,15.57,84,52.09,132,57.94,5.59.68,11.63.83,16.41-2.15,6.62-4.13,8.66-13.3,6.57-20.82s-7.4-13.68-12.93-19.19c-39.1-39-97.33-57.81-151.86-49.06-3.69.59-8.93.22-9.31-3.5s4.65-5.16,7.32-7.79c4.15-4.08,1.74-11.78-3.27-14.75s-11.3-2.43-17-1.26A91.6,91.6,0,0,0,4401.81,783c-5,3.85-9.68,8.28-15.47,10.74s-13.21,2.5-17.71-1.9c-1.88-1.84-3.21-4.37-5.6-5.45-4-1.79-8.35,1.35-11.59,4.28l-39.8,36c-4.44,4-9,8.47-11.52,14-.84,1.79-2.48,5.18-1.17,7.07,1.17,1.69,3.87,1.36,5.56.9,6.1-1.65,11.75-4.46,18-5.82a106.09,106.09,0,0,1,19.46-2.32A129.44,129.44,0,0,1,4363.77,841.74Z" transform="translate(-4073.56 -663.68)"/><path class="cls-3" d="M4193.07,1090.23c.51,5.67,2.93,12.91,8.63,12.83,2.38,0,4.52-1.49,6.88-1.78,5.29-.65,9.64,5,9.63,10.35s-3,10.15-6,14.56q-9.36,13.75-20,26.57c-1.78,2.14-3.9,4.43-6.68,4.57-4.8.26-7.25-5.58-8.17-10.29a255.22,255.22,0,0,1,13.07-141.91c2-5,7.05-14.65,14-10.52,4.64,2.76-1.4,10.69-2.63,14-6,16.18-8.31,34.57-9.2,51.7A211.5,211.5,0,0,0,4193.07,1090.23Z" transform="translate(-4073.56 -663.68)"/><path class="cls-3" d="M4272.67,1270.06c1.81,4.48.8,10.55-3.53,12.67-2.81,1.38-6.22.76-9.07-.55-6.46-3-10.95-9-14.69-15a142.29,142.29,0,0,1-11.61-23.27q-2.39-6.11-4.2-12.41c-.39-1.35-1.75-4.5,0-5.52,3-1.81,9.67,4.88,11.48,6.57,5.29,5,8.94,11.22,13.56,16.75a132.55,132.55,0,0,0,10,10.56C4267.69,1262.85,4271,1265.94,4272.67,1270.06Z" transform="translate(-4073.56 -663.68)"/><path class="cls-3" d="M4485,1332.47c-16,.09-31.93-2.32-47.87-3.91-5.7-.57-13-.11-15,5.23-1.35,3.53.59,7.65,3.6,9.92s6.87,3.07,10.6,3.63a120.58,120.58,0,0,0,49.18-2.9,122.84,122.84,0,0,0,23.14-8.81c3.22-1.62,7.07-3.2,9.56-5.88.32-.34,1.95-2,1.45-2.54s-3.95,1-4.6,1.23A109,109,0,0,1,4485,1332.47Z" transform="translate(-4073.56 -663.68)"/><path class="cls-3" d="M4200.83,923.17c2.32,1.84,5.88,1.31,8.27-.45s3.89-4.46,5.26-7.1c3.67-7.08,7-14.39,11.86-20.74a36.53,36.53,0,0,1,19.63-13.65c3.82-1.11,4.78-4.59.16-5.31-4.3-.67-8.83.6-13,1.51-5,1.1-10.27,2.24-14.48,5.35-4.94,3.66-8.64,9.36-11.86,14.49a67.42,67.42,0,0,0-6.84,14.31C4198.63,915.14,4197.35,920.42,4200.83,923.17Z" transform="translate(-4073.56 -663.68)"/><path class="cls-3" d="M4193,843.91c-2.18,4.68-3.87,11.06.14,14.32,2.42,2,6.05,1.74,8.84.33s4.93-3.77,7.11-6a115.12,115.12,0,0,1,48.07-29.38c2.78-.86,5.71-1.68,7.87-3.63s3.26-5.47,1.57-7.84c-3.95-5.56-14.51,2.33-19.17-2.65-2.77-3-.74-7.86,1.91-10.94,3-3.43,6.6-6.3,9.12-10.06,2.1-3.12,3.42-7.28,2.25-11a8.48,8.48,0,0,0-8.46-5.8,17.79,17.79,0,0,0-8.26,2,23.24,23.24,0,0,0-5.25,5c-5.53,6.26-11.33,12.23-16.56,18.76A233.35,233.35,0,0,0,4194.39,841Z" transform="translate(-4073.56 -663.68)"/><path class="cls-3" d="M4132.15,1060.73a13.84,13.84,0,0,0-1.33-5.78,6.85,6.85,0,0,0-12.32,5.93c-9.2-6.77-15.19-17.17-18.64-28.05s-4.56-22.35-5.66-33.71c-3.38.34-5.92,3.48-6.7,6.78s-.16,6.75.46,10.09c3.25,17.52,6.61,35.39,15.2,51,4.42,8,10.16,15.35,13.95,23.71,6.34,14,6.77,29.9,11.28,44.57a83,83,0,0,0,13.54,26.22c1.65,2.15,3.93,4.43,6.61,4,2.29-.35,3.86-2.68,4.11-5a16,16,0,0,0-1.23-6.79c-1.54-6.17-4.13-12.26-6.16-18.28l-6.24-18.54-3.12-9.26a13.54,13.54,0,0,1-.6-6.11c.23-3-.33-6.09-.57-9-.26-3.25-.53-6.49-.79-9.73Q4133,1071.75,4132.15,1060.73Z" transform="translate(-4073.56 -663.68)"/><path class="cls-3" d="M4261.18,1321.74c2,.61,4.31,1.17,5.93-.11s1.63-3.49.79-5.19a11.08,11.08,0,0,0-4-4,74.65,74.65,0,0,0-20.93-9.63,117.27,117.27,0,0,0-11.57-2.77c-3.14-.59-6.28-1.32-9.49-.86a21.32,21.32,0,0,0-7.43,2.52c-1.1.63-3.41,2-3,3.57.18.78,1,1.16,1.69,1.43,1.92.79,4,1.27,6,1.89l12.89,4,25.91,8.1Z" transform="translate(-4073.56 -663.68)"/><path class="cls-3" d="M4514.28,913.65c7.52,3.82,14.44,9.21,18.78,16.44a17.76,17.76,0,0,1,2.88,8.86c0,3.15-1.45,6.42-4.19,8-3.62,2-8.18.6-11.88-1.29-16.49-8.41-28.73-25-46.73-29.33a13,13,0,0,1-4.67-1.67c-1.35-1-2.22-2.86-1.45-4.34,1.17-2.24,4.5-1.6,6.84-.65l26.6,10.9c.79-2.81-1.92-5.4-4.62-6.5s-5.65-1.47-7.69-3.49c-1.21-1.19-2.41-4.4-.19-5.24,1.85-.7,4.44.31,6.21.84,3.08.91,6.15,1.87,9.19,2.93A86.29,86.29,0,0,1,4514.28,913.65Z" transform="translate(-4073.56 -663.68)"/><path class="cls-3" d="M4248.18,1151.62c2.91,9.84,7.27,19.18,11.42,28.56a10.22,10.22,0,0,1,1.18,4.24,3.52,3.52,0,0,1-2.31,3.42c-1.73.45-3.35-.93-4.55-2.25a62.47,62.47,0,0,1-10.26-15.41,65.87,65.87,0,0,1-5.46-17.88,63.49,63.49,0,0,1-.15-18.67c.22-1.55.5-3.08.84-4.61.3-1.38.61-3.39,1.74-4.37,1.59-1.39,4.19-.07,4.37,1.9.16,1.77-.16,3.67-.11,5.46s.18,3.79.39,5.67a79,79,0,0,0,2.14,11.2C4247.66,1149.79,4247.92,1150.71,4248.18,1151.62Z" transform="translate(-4073.56 -663.68)"/><path class="cls-2" d="M4518.19,1231.61l57.33,64.36a402.26,402.26,0,0,1-22.5-100.39c-20.6,1.21-36.37-5.89-48.78-18.78L4482,1196.63l-22.24,19.81c11.38,13.81,16.61,30.3,13,50.62a402.44,402.44,0,0,1,97.13,33.9l-57.32-64.35a8.13,8.13,0,1,1,5.6-5Z" transform="translate(-4073.56 -663.68)"/><rect class="cls-3" x="4443.08" y="1177.33" width="60.71" height="17.97" transform="translate(-3729.53 2612.37) rotate(-41.69)"/><path class="cls-2" d="M4487.3,1156.25,4442,1196.63l-33-37.07.05,0a.54.54,0,0,1-.16-.14c-1.89-2.12,6.71-12.87,19.24-24s24.2-18.47,26.09-16.35a.57.57,0,0,1,.12.18h0Z" transform="translate(-4073.56 -663.68)"/></g></svg>